<?xml version="1.0" encoding="UTF-8"?>
<svg id="_レイヤー_1" data-name="レイヤー 1" xmlns="http://www.w3.org/2000/svg" viewBox="0 0 1025.51 258.11">
  <defs>
    <style>
      .cls-1 {
        fill: #d94236;
      }
    </style>
  </defs>
  <g>
    <path class="cls-1" d="M323.96,256.06c-.29.5-.77.61-1.72.73-.73.09-1.46.2-2.21.09-.91-.13-.79-.87-1.21-1.23-.37-.67-1.47-.71-1.78-1.45s-1.28-1.2-1.52-1.97.69-1.8.52-2.57-1.73-1.27-1.85-2.05.88-1.7.82-2.48-1.55-1.55-1.55-2.33c0-1.24,0-1.24,0-2.48s.49-1.24.49-2.47.11-1.24.11-2.47.93-1.24.93-2.47-.56-1.24-.56-2.47,1.39-1.24,1.39-2.47-.25-1.24-.25-2.48-1.05-1.24-1.05-2.48.5-1.24.49-2.48-1.31-1.24-1.31-2.48,1.94-1.24,1.94-2.48-1.54-1.24-1.54-2.47,1.4-1.24,1.4-2.48.36-1.24.36-2.48-1.35-1.24-1.35-2.48,1.17-1.24,1.17-2.48-1.7-1.24-1.7-2.48,1.88-1.24,1.88-2.48-1.64-1.24-1.64-2.48,1.4-1.24,1.4-2.48-1.71-1.24-1.71-2.48.67-1.24.67-2.48,0-1.24,0-2.48,1.23-1.24,1.23-2.48-1.25-1.24-1.25-2.48.77-1.24.77-2.48-.43-1.24-.43-2.48-.57-1.24-.57-2.48.02-1.24.02-2.48-.76-1.24-.76-2.48,1.35-1.24,1.34-2.48-.56-1.24-.56-2.48.51-1.24.51-2.48-.54-1.24-.54-2.48.75-1.24.75-2.48-.55-1.24-.55-2.47.18-1.24.18-2.47-1.05-1.24-1.05-2.48.78-1.24.78-2.48-.38-1.24-.38-2.48-.23-1.24-.23-2.48-.34-1.24-.34-2.48.67-1.24.67-2.48-.23-1.24-.23-2.48,1.49-1.24,1.49-2.48-1.4-1.24-1.4-2.48.82-1.24.82-2.48-.63-1.24-.63-2.48.89-1.24.89-2.48-1.06-1.24-1.06-2.48,1.1-1.24,1.1-2.48-1-1.24-1-2.48,1.37-1.24,1.37-2.48-.45-1.24-.45-2.48.73-1.24.73-2.49-.07-1.56-.48-2.74c-.83.06-2.51-.41-3.3-.28s-1.18,2.26-1.95,2.47-2.3-1.78-3.06-1.49-.95,2.02-1.67,2.39-1.08,1.28-1.76,1.72-1.76.25-2.4.76-1.54.71-2.14,1.28-.97,1.34-1.51,1.96-1.91.6-2.4,1.25-.11,1.95-.55,2.64-.99,1.31-1.39,2.02-1.58,1.04-1.95,1.77.93,2.23.6,2.99-.94,1.34-1.24,2.11-1.11,1.32-1.38,2.1-.39,1.59-.63,2.37.49,1.82.28,2.61-2.59,1.02-2.78,1.81.56,1.82.39,2.62-.16,1.64-.31,2.44-1.05,1.48-1.19,2.28,1.57,1.9,1.44,2.71-1.42,1.44-1.52,2.25-1.17,1.52-1.26,2.32,1.27,1.79,1.19,2.6-.09,1.63-.16,2.44.78,1.7.72,2.5-1.64,1.53-1.69,2.33,1.39,1.72,1.35,2.52c-.06,1.21-.1,1.21-.16,2.41s-1.92,1.11-1.98,2.32.83,1.25.77,2.46-.27,1.2-.33,2.4-.86,1.17-.92,2.38.87,1.25.81,2.46.81,1.25.75,2.46-1.87,1.12-1.93,2.32-.05,1.21-.11,2.41-.45,1.19-.51,2.39,1.12,1.27,1.06,2.48-.81,1.17-.87,2.38-.49,1.19-.55,2.4,1.55,1.29,1.48,2.5.53,1.23.49,2.44,0,1.23-.03,2.47-2.16,1.19-2.19,2.43,1.97,1.29,1.94,2.53-2.08,1.19-2.11,2.43.07,1.24.04,2.49,1.25,1.27,1.22,2.51-.45,1.23-.48,2.47.4,1.25.37,2.5.6,1.26.57,2.49-.49,1.23-.52,2.47-.69,1.23-.72,2.47-1.03,1.22-1.06,2.46,1.8,1.29,1.77,2.53-.8,1.23-.83,2.47.97,1.27.94,2.52c-.02.81-1.42,1.59-1.48,2.44s.94,1.77.83,2.59-1,1.56-1.16,2.35c-.18.86.95,2.11.69,2.84-.3.87-1.16,1.68-1.58,2.28-.54.78-1.86.57-2.63.73-.9.2-2.1,1.63-2.81,1.35s-.13-2.57-.68-3.27c-.46-.58-2.59-.29-2.94-1.1-.3-.7-.69-1.59-.92-2.42-.21-.75-.02-1.71-.18-2.55-.15-.77.67-1.74.56-2.58s.06-1.62-.01-2.44-1.2-1.54-1.25-2.36,1.81-1.7,1.78-2.52-1.53-1.59-1.54-2.4.95-1.64.95-2.45-.53-1.64-.52-2.44-.04-1.65-.02-2.45c.02-.85,0-1.66.03-2.44.03-.86-.08-1.69-.05-2.44.03-.82-.61-1.66-.58-2.48s.99-1.61,1.02-2.43.94-1.61.97-2.43-.93-1.68-.9-2.5.4-1.63.43-2.45-1.61-1.71-1.58-2.53.49-1.62.53-2.44,1.35-1.58,1.39-2.4-.62-1.67-.58-2.49-1.01-1.69-.97-2.51.25-1.63.29-2.45.26-1.63.3-2.45,1.93-1.53,1.98-2.35-.47-1.67-.42-2.49-.64-1.68-.59-2.5.73-1.59.78-2.41-.21-1.66-.15-2.47-.28-1.66-.22-2.48,1.75-1.51,1.81-2.33-1.46-1.76-1.4-2.57-.42-1.68-.35-2.5,2.15-1.46,2.22-2.28-.2-1.66-.12-2.47-.9-1.73-.82-2.54.58-1.59.66-2.41.5-1.6.58-2.41-1.11-1.77-1.03-2.58.57-1.59.67-2.42,1.42-1.47,1.53-2.29-1.11-1.81-.99-2.63,1.1-1.49,1.24-2.3-.81-1.82-.66-2.63,0-1.69.17-2.5,2.09-1.23,2.28-2.04-.28-1.75-.08-2.55.15-1.66.37-2.46-.21-1.79.02-2.58,1.96-1.12,2.21-1.9,0-1.73.28-2.51.64-1.52.94-2.28-.06-1.82.26-2.57,1.73-1.03,2.08-1.77.42-1.62.8-2.34-.37-2.12.04-2.82,2.34-.52,2.78-1.2,1.27-1.08,1.75-1.74.72-1.47,1.23-2.1-.18-2.36.38-2.95,1.97-.4,2.57-.96.84-1.56,1.48-2.07,1.45-.85,2.13-1.31,1.5-.7,2.22-1.1.94-1.88,1.69-2.22,2.05.58,2.83.31,1.4-1.02,2.21-1.23,1.46-1.28,2.28-1.42,1.72-.1,2.56-.18,1.74,1.95,2.58,1.93,2.61-.67,3.44-.63c.41-1.32-.77-1.69-.77-3.06s-.12-1.38-.12-2.75-.35-1.38-.35-2.76,1.37-1.91.45-2.94c-.87-.97-1.57,1.25-2.88,1.18s-1.25-1.11-2.56-1.19-1.25-1.03-2.56-1.11c-.8-.05-1.51-.25-2.3-.36s-1.54-.06-2.32-.23-1.5-.33-2.26-.57-2.05.97-2.78.67-1.72-.28-2.43-.65-.23-2.83-.91-3.25-2.33.6-2.97.11-.94-1.41-1.53-1.96-1.14-1.13-1.67-1.73-1.75-.78-2.26-1.45-.1-2-.55-2.71-1.21-1.23-1.61-1.97.31-1.99-.05-2.76-1.59-1.11-1.9-1.89-.05-1.74-.32-2.54-.96-1.44-1.19-2.25.74-1.89.54-2.71-.59-1.54-.76-2.36-1.1-1.48-1.23-2.31-1.22-1.52-1.33-2.35.89-1.79.8-2.63-1.35-1.57-1.41-2.41.91-1.74.87-2.58-.45-1.66-.47-2.5,1.39-1.68,1.39-2.51-2.09-1.71-2.07-2.54.66-1.67.7-2.5.87-1.63.93-2.46-.75-1.75-.68-2.58.19-1.68.28-2.5,1.45-1.51,1.57-2.32c.11-.76-.07-1.49.14-2.21s.72-1.28,1.03-1.94c.34-.74-.23-1.9.19-2.47.5-.68,1.72-.28,2.31-.62.7-.41.88-1.03,1.64-.81.67.19.74.83,1.26,1.61.39.59,1.21.97,1.52,1.79.26.7,1.24,1.26,1.45,2.07.19.74-1.42,1.91-1.27,2.71s1.32,1.36,1.43,2.15-.26,1.64-.17,2.43.07,1.6.13,2.37c.07.83.74,1.58.78,2.33.04.8-.13,1.61-.08,2.41s.77,1.57.81,2.36-1.02,1.67-.98,2.46,1.9,1.48,1.95,2.28-.39,1.63-.33,2.42.08,1.59.16,2.39.46,1.55.55,2.35.29,1.56.39,2.35-.25,1.64-.13,2.43-.08,1.63.06,2.42-.78,1.81-.61,2.59.45,1.57.64,2.35c.21.84,1.1,1.5,1.39,2.22.32.8,1.83.89,2.23,1.56.45.73-.09,2.05.45,2.63.57.61,1.83.28,2.5.74s1.37.48,2.13.81,1.15,1.24,1.97,1.45,1.37,1.41,2.21,1.53c.79.11,1.77-1.56,2.6-1.5s1.53,2.34,2.37,2.35,1.62-1.67,2.45-1.7.69.15,1.52.1c.39-1.15,1.07-.89,1.07-2.1s-.69-1.21-.69-2.42-.6-1.21-.6-2.43.57-1.21.57-2.42,1.32-1.21,1.32-2.42-.38-1.21-.38-2.43.41-1.21.42-2.43-.68-1.21-.68-2.43-1.26-1.22-1.26-2.43,1.26-1.21,1.26-2.42.24-1.21.24-2.43-1.45-1.22-1.44-2.43.35-1.21.35-2.43,1.99-1.21,1.99-2.42-1.97-1.22-1.97-2.43-.37-1.22-.36-2.43.11-1.22.11-2.43,1.52-1.21,1.53-2.43-.08-1.22-.07-2.43-1.14-1.22-1.14-2.44,1.25-1.21,1.25-2.43c0-.82-1.47-1.76-1.41-2.63s.33-1.75.45-2.6.18-1.8.36-2.62c.19-.86.71-1.71.98-2.49.29-.86,1.11-1.53,1.5-2.23.46-.81,1-1.62,1.61-2.1.69-.55,1.64.65,2.53.67s1.79-1.07,2.47-.51c.6.49.21,1.76.67,2.57.39.69,2.22.78,2.52,1.64.27.77.85,1.61,1.04,2.46s-1.45,2-1.33,2.85,1.12,1.58,1.18,2.42.8,1.74.8,2.56c0,1.21-.81,1.21-.8,2.42s.66,1.21.66,2.42-.39,1.21-.38,2.42-.96,1.21-.96,2.42.4,1.21.4,2.42-.82,1.21-.82,2.42,1.13,1.21,1.13,2.42.87,1.21.88,2.42-1.8,1.22-1.8,2.43.31,1.21.31,2.42.4,1.21.4,2.42.07,1.21.07,2.42,1.34,1.21,1.35,2.42.02,1.21.02,2.43-.79,1.21-.79,2.42-.43,1.21-.43,2.43-.68,1.22-.68,2.43,1.62,1.21,1.62,2.42-1.21,1.22-1.21,2.43-.05,1.22-.05,2.43-.54,1.44-.16,2.6c.84.08,2.13.3,2.92.33.85.04,1.69.1,2.48.08.85-.03,1.82.75,2.6.64.83-.11,1.52-1.29,2.29-1.51s1.13-1.45,1.85-1.81,1.21-.79,1.86-1.3,1.77-.34,2.32-.99c.51-.59.02-1.85.48-2.58.41-.66,1.98-.66,2.35-1.44s1-1.57,1.3-2.4.83-1.68,1.05-2.54-.72-1.99-.57-2.87.72-1.69.82-2.58.13-1.78.2-2.67.74-1.74.79-2.63c.08-1.31-.33-1.33-.26-2.63s.21-1.3.28-2.6.84-1.26.92-2.56.2-1.3.28-2.6-.34-1.33-.26-2.64-.65-1.35-.58-2.66.53-1.28.6-2.59-1.68-1.41-1.6-2.72,1.97-1.2,2.05-2.51c.04-.68-.91-1.55-.74-2.31.16-.7.66-1.36.9-2.07s1.69-.88,1.98-1.54c.32-.71-1.17-2.29-.82-2.88.26-.44,1.74-.66,2.62-.82s2.01-.18,2.44.07c.67.39,1.26,1.11,1.76,1.77.46.6.06,1.7.4,2.47.3.7,1.31,1.16,1.52,1.96.2.74.52,1.51.66,2.32s-.52,1.67-.43,2.47,0,1.57.05,2.37.6,1.56.63,2.35.53,1.6.55,2.38c.02.82.77,1.62.78,2.38.01.85-2.35,1.71-2.36,2.56s1.34,1.71,1.32,2.56-1.28,1.65-1.32,2.5-.04,1.68-.1,2.52.82,1.75.75,2.6-.69,1.63-.79,2.47-.06,1.69-.19,2.53.3,1.77.15,2.6-1.08,1.5-1.26,2.33-.79,1.52-1,2.34,0,1.72-.25,2.54.73,2.03.45,2.83-1.95,1.07-2.27,1.86.67,2.12.3,2.85-2.24.65-2.66,1.36-.7,1.43-1.18,2.1-.49,1.67-1.03,2.29-1.41.89-2.01,1.46-1.06,1.22-1.71,1.73-.4,2.36-1.1,2.81-1.67.61-2.41.99-1.74.29-2.52.59-1.64.36-2.45.58-1.84-.88-2.66-.73-1.4,1.71-2.24,1.78-1.68.92-2.52.92-1.59-1.68-2.43-1.76-.83.7-1.66.55c-.41,1.09-1.94.84-1.94,2.01s.89,1.17.89,2.34,1.46,1.17,1.46,2.34-1.07,1.17-1.07,2.34-.79,1.31-.38,2.41c.84-.05,1.86-.65,2.66-.64s1.64.65,2.44.73,1.61.35,2.4.5,1.33,1.26,2.1,1.48,1.6.12,2.35.42,1.7.11,2.43.48,1.92,0,2.61.44,1.5.83,2.15,1.34,0,2.52.6,3.08,2.25,0,2.82.61,1.44.96,1.96,1.6-.52,2.45-.04,3.12,2.04.56,2.48,1.26.18,1.79.59,2.51.46,1.57.84,2.31,1.23,1.19,1.57,1.94,1.2,1.26,1.52,2.02,1.19,1.3,1.49,2.07-1.19,2.18-.92,2.95.71,1.46.96,2.25.09,1.66.32,2.45,2.66.95,2.87,1.75-.45,1.82-.26,2.62.18,1.65.36,2.45.82,1.51.99,2.31.52,1.58.67,2.39.65,1.57.79,2.37-1.42,1.91-1.29,2.71,1.8,1.39,1.92,2.2-.78,1.78-.68,2.58-.06,1.67.03,2.47,1.32,1.51,1.4,2.31-.06,1.68.02,2.5.3,1.64.38,2.47-1.52,1.81-1.44,2.63.87,1.58.94,2.41.73,1.6.8,2.43-.74,1.72-.68,2.55-.16,1.67-.1,2.5,1.15,1.58,1.21,2.41,1.2,1.59,1.26,2.41-.88,1.72-.83,2.55,1.21,1.59,1.25,2.42-.83,1.71-.79,2.54.4,1.64.44,2.47-.61,1.69-.57,2.52.4,1.64.44,2.47-.37,1.67-.34,2.5,0,1.66.03,2.49.6,1.64.63,2.46-.66,1.68-.64,2.51,1.1,1.62,1.13,2.45-1.44,1.7-1.41,2.53,1.43,1.61,1.46,2.44-.4,1.67-.38,2.5-.53,1.67-.51,2.5.99,1.63,1.01,2.46.71,1.64.73,2.48c.02.76-1.02,1.62-1,2.5.02.79.63,1.6.64,2.46.02.8.34,1.63.35,2.48s-1.06,1.65-1.07,2.48-.06,1.64-.08,2.47,1.09,1.69,1.06,2.51-.16,1.67-.21,2.49-1.02,1.61-1.09,2.42.54,1.75.43,2.56c-.11.84-2.12,1.35-2.27,2.13-.16.85,1.62,2.09,1.42,2.85-.23.85-2,1.12-2.3,1.83-.34.83-.82,1.26-1.27,1.86-.53.73.08,2.74-.62,3.07s-2.11.66-3.02.49c-.79-.15-1.55-1.56-2.12-2.37-.44-.63-1.35-1.33-1.66-2.23-.26-.76.73-1.97.54-2.86-.17-.82.52-1.75.41-2.62s-.67-1.61-.72-2.47-.88-1.71-.88-2.54,1.09-1.65,1.09-2.47-2.12-1.64-2.13-2.46.72-1.65.71-2.47.66-1.65.65-2.47.69-1.65.68-2.47-1.23-1.63-1.24-2.45-.8-1.63-.81-2.45.47-1.65.46-2.47-.35-1.64-.37-2.46.71-1.66.7-2.48.34-1.65.32-2.47-1.32-1.61-1.33-2.43.6-1.66.58-2.48,1.52-1.68,1.49-2.51-1.79-1.59-1.81-2.41.03-1.64,0-2.46-.77-1.62-.8-2.44,1.51-1.69,1.48-2.52.69-1.67.65-2.49-.48-1.63-.51-2.45-.97-1.6-1.01-2.42.17-1.65.13-2.47-.75-1.61-.79-2.43.2-1.65.16-2.47-.26-1.63-.31-2.45-.51-1.62-.55-2.44,1.81-1.74,1.77-2.56-2.02-1.53-2.06-2.35.9-1.7.85-2.52.19-1.66.14-2.48.69-1.67.63-2.5-.71-1.58-.78-2.4.28-1.66.2-2.48.11-1.66.02-2.48-1.05-1.53-1.15-2.35-1.31-1.47-1.42-2.29.35-1.69.23-2.5-.97-1.49-1.11-2.3.96-1.82.8-2.63.31-1.74.14-2.54-2.41-1.13-2.6-1.93,1.04-1.94.83-2.73.38-1.83.15-2.61-2.53-.92-2.79-1.69.42-1.87.13-2.63-1.32-1.22-1.64-1.96-.51-1.53-.87-2.26.71-2.23.31-2.94-1.46-1.09-1.9-1.77-1.92-.64-2.4-1.29.45-2.47-.08-3.08-2.58.22-3.17-.34.05-2.53-.6-3.03-1.49-.84-2.18-1.27-1.56-.63-2.31-.98-1.26-1.43-2.04-1.7-1.72-.27-2.53-.45-2.24.36-3.07.27c-.41,1.17,1.28,1.4,1.28,2.64s-.73,1.24-.73,2.47-1,1.24-1,2.47,2.11,1.24,2.11,2.47-.77,1.24-.77,2.47.19,1.24.19,2.47-.31,1.24-.31,2.48-.8,1.24-.8,2.48,1.44,1.24,1.44,2.48-1.77,1.24-1.78,2.48.43,1.24.43,2.48,1.36,1.24,1.36,2.48-1.62,1.24-1.62,2.47.5,1.24.5,2.48-1.05,1.24-1.05,2.48.26,1.24.26,2.48.99,1.24.99,2.48-.18,1.24-.18,2.48.97,1.24.97,2.48.33,1.24.33,2.48-1.82,1.24-1.82,2.48.11,1.24.11,2.48,1.65,1.24,1.65,2.48-.16,1.24-.16,2.48-1.98,1.24-1.98,2.48.94,1.24.94,2.48,1.32,1.24,1.32,2.48-2.17,1.24-2.17,2.48,1.27,1.24,1.27,2.48-1.27,1.24-1.27,2.48,1.3,1.24,1.3,2.48-.61,1.24-.62,2.48,1.51,1.24,1.51,2.48-2.27,1.24-2.27,2.48.06,1.24.06,2.48-.16,1.24-.16,2.47,1.5,1.24,1.5,2.48-1.53,1.24-1.53,2.48,2.12,1.24,2.12,2.48.17,1.24.17,2.48-.74,1.24-.74,2.48.53,1.24.53,2.48-1.54,1.24-1.54,2.48.63,1.24.63,2.48-.13,1.24-.13,2.48.11,1.24.11,2.48.08,1.24.08,2.48-.76,1.24-.76,2.48,1.48,1.24,1.48,2.48-1.32,1.24-1.32,2.48,1.36,1.24,1.36,2.48-1.31,1.24-1.31,2.48,1.33,1.24,1.33,2.48-1.9,1.24-1.9,2.48,1.1,1.24,1.1,2.49-.51,1.24-.51,2.49c0,.79.93,1.61.88,2.38s-1.64,1.38-1.75,2.15,1.15,1.79.97,2.55-1.95,1.03-2.2,1.77-.51,1.35-.84,2.07,0,1.66-.39,2.35Z"/>
    <path class="cls-1" d="M434.57,256.74c-.35-.74-1.79-1.01-2.09-1.74s1.49-2.28,1.24-3.04-.46-1.46-.66-2.24-.79-1.41-.92-2.21-.33-1.53-.39-2.34-.17-1.56-.17-2.38c0-1.24.77-1.24.77-2.48s-.19-1.24-.19-2.48-2.07-1.24-2.07-2.48,2.3-1.24,2.3-2.48-1.09-1.24-1.09-2.48-1.2-1.24-1.2-2.48,1.28-1.24,1.28-2.48-.97-1.24-.97-2.48,1.03-1.24,1.03-2.48.54-1.24.54-2.48-1.81-1.24-1.81-2.48-.11-1.24-.11-2.48-.05-1.24-.05-2.48.63-1.24.63-2.48.77-1.24.77-2.48.96-1.24.96-2.48-.73-1.24-.73-2.48-1.36-1.24-1.36-2.48,1.51-1.24,1.51-2.48.6-1.24.6-2.48-.19-1.24-.19-2.48-1.17-1.24-1.17-2.48,1.28-1.24,1.28-2.48.12-1.24.12-2.48-.49-1.24-.49-2.48-1.62-1.24-1.62-2.48,1.71-1.24,1.71-2.48-1.51-1.24-1.51-2.48-.53-1.24-.53-2.48.49-1.24.49-2.48.65-1.24.65-2.48.59-1.24.59-2.48-1.52-1.24-1.52-2.48.25-1.24.25-2.48,1.19-1.24,1.19-2.48-.36-1.24-.36-2.48-.6-1.24-.6-2.48,1.18-1.24,1.18-2.48-1.2-1.24-1.2-2.48-.6-1.24-.6-2.48,2.09-1.24,2.09-2.48-.06-1.24-.06-2.48-1.85-1.24-1.85-2.48.95-1.24.95-2.48,1.22-1.24,1.22-2.48-.08-1.24-.08-2.49-1.67-1.24-1.67-2.48,1.73-1.24,1.73-2.49-.56-1.24-.56-2.49-1.26-1.24-1.26-2.48.74-1.24.74-2.48.82-1.24.82-2.49-2.2-1.24-2.2-2.49.03-1.24.03-2.49,1.4-1.25,1.4-2.49-.5-1.08-.91-2.25c-.84.07-.8.92-1.6,1.06s-1.52.37-2.3.59-2.01-.9-2.77-.6-.86,2.03-1.58,2.4-1.64.3-2.32.75-1.91.15-2.56.67-1.38.98-1.97,1.56-.98,1.38-1.52,2.01-.01,2.05-.5,2.72-2,.58-2.44,1.28.04,1.91-.37,2.64-2.64.49-3.01,1.24.5,2.07.17,2.83.14,1.81-.15,2.58-2.19.96-2.45,1.75.01,1.75-.23,2.54-.51,1.57-.73,2.37.46,1.81.27,2.61-1.1,1.44-1.27,2.25-.29,1.63-.44,2.44.25,1.72.12,2.53-.72,1.56-.84,2.37-.99,1.54-1.1,2.36.78,1.77.69,2.58-.07,1.65-.15,2.47-1.39,1.54-1.45,2.36,1.14,1.76,1.08,2.57.58,1.69.53,2.5-.32,1.64-.36,2.45c-.06,1.21-.43,1.19-.49,2.4s.61,1.24.55,2.45-.45,1.19-.51,2.4-.51,1.18-.57,2.39-.44,1.19-.5,2.4-.16,1.2-.22,2.41-.08,1.21-.14,2.41-.44,1.19-.51,2.4.9,1.25.84,2.46.09,1.22.03,2.42-1.56,1.13-1.62,2.34.32,1.23.26,2.44.06,1.22,0,2.42-.52,1.19-.59,2.4-.32,1.21-.36,2.43c-.05,1.28.84,1.32.81,2.6s.4,1.29.37,2.58.55,1.3.52,2.58.08,1.29.05,2.57.35,1.29.32,2.58-2.48,1.23-2.51,2.51.72,1.3.69,2.59-.75,1.26-.79,2.55.29,1.29.26,2.58.15,1.29.12,2.58,1.78,1.33,1.75,2.61-.33,1.28-.36,2.56-1.6,1.25-1.63,2.54-.09,1.29-.12,2.57c-.02.84,1.51,1.78,1.45,2.66s-.41,1.74-.51,2.59.34,1.89.18,2.71c-.18.9-1.37,1.56-1.62,2.33-.3.91-1.73,1.02-2.15,1.66-.55.82,0,2.86-.8,3.04-.92.2-1.69-1.21-2.41-1.51s-2.31.23-2.86-.5c-.45-.6-.92-1.56-1.27-2.4-.3-.72-.53-1.64-.76-2.49-.2-.77,1.28-1.95,1.12-2.81-.14-.79-.78-1.5-.89-2.36s-1.18-1.54-1.25-2.39,1.27-1.75,1.23-2.59-.28-1.64-.3-2.48-.32-1.66-.33-2.49-.17-1.68-.17-2.5-.92-1.7-.91-2.52c.01-.86,1-1.68,1.02-2.48.02-.88.53-1.7.55-2.48.02-.83-.39-1.67-.36-2.49s.52-1.64.54-2.47-1.83-1.71-1.8-2.54.66-1.64.69-2.46.11-1.65.14-2.48,1.01-1.62,1.04-2.45-.31-1.67-.28-2.49-.21-1.66-.18-2.49-.96-1.69-.93-2.52,2-1.57,2.03-2.4-1.88-1.74-1.84-2.56,1.05-1.61,1.09-2.43.66-1.62.7-2.45-.65-1.69-.61-2.51.91-1.6.96-2.43-.32-1.67-.27-2.5,1.07-1.59,1.12-2.41.08-1.65.14-2.47.19-1.64.25-2.46.01-1.65.07-2.47-.95-1.73-.88-2.55-.19-1.67-.12-2.5-.07-1.67,0-2.49,1.12-1.56,1.2-2.38-.1-1.67-.02-2.49-.72-1.74-.63-2.56.84-1.57.93-2.39,1.18-1.53,1.28-2.35-.52-1.8-.41-2.65.3-1.7.43-2.54-.16-1.78-.01-2.62-.57-1.87-.4-2.72,2.72-1.2,2.9-2.04.35-1.66.55-2.5-1.2-2.06-.98-2.89,1.61-1.35,1.84-2.18.14-1.73.38-2.56.45-1.65.71-2.48.38-1.61.64-2.39,1.45-1.21,1.74-1.98-.35-1.89-.03-2.65-.04-1.83.31-2.58,1.76-.98,2.14-1.71-.48-2.15-.07-2.87,1.79-.87,2.23-1.56-.27-2.22.21-2.89,1.04-1.38,1.56-2.01,1.48-.99,2.04-1.59,1.25-1.15,1.86-1.71,1.84-.41,2.49-.92.97-1.46,1.65-1.92,2.08.31,2.8-.09,1.26-.95,2.02-1.29,1.09-1.6,1.88-1.88,1.69-.03,2.5-.24,1.35-1.66,2.17-1.79,1.86,1.69,2.7,1.61,1.54-1.65,2.38-1.66,2.48.79,3.32.84c.41-1.29.39-1.62.39-2.98s-1.35-1.35-1.35-2.71,1.16-1.36,1.16-2.72-.58-1.29-1.53-2.27-.85-1.78-2.25-1.87-1.51,1.55-2.9,1.46-1.31-1.48-2.71-1.58c-.85-.06-1.85,1.55-2.66,1.43s-1.56-.96-2.36-1.15-1.63-.44-2.4-.71-1.05-1.71-1.8-2.05-2.03.38-2.74-.04-.96-1.51-1.63-2-1.55-.66-2.17-1.22-1.61-.73-2.18-1.34-1.11-1.27-1.63-1.93-1.64-.92-2.11-1.61.23-2.13-.19-2.85-1.3-1.19-1.67-1.94-.25-1.71-.58-2.48-1.13-1.34-1.42-2.13.17-1.8-.08-2.6-1-1.43-1.21-2.24-.23-1.66-.41-2.47-1.37-1.45-1.52-2.27.5-1.79.38-2.61-.59-1.62-.67-2.45-.38-1.67-.43-2.5-.44-1.68-.47-2.51.63-1.71.64-2.54c0-1.41-.23-1.41-.23-2.81s1.49-1.41,1.49-2.81-1.4-1.41-1.4-2.82c0-.82.84-1.67.88-2.57.04-.84-.52-1.75-.44-2.62s1.07-1.61,1.19-2.46-.76-1.91-.59-2.73c.19-.87,1.47-1.43,1.72-2.22.28-.87-.33-2.05.03-2.77.43-.85,1.96-.7,2.52-1.24.66-.64.81-1.22,1.67-1.28s.8.65,1.45,1.27c.54.51,1.13.67,1.53,1.54.32.71.51,1.41.75,2.3.22.78,2.35,1.17,2.51,2.05.15.81-2.05,2.02-1.94,2.88s1.7,1.5,1.78,2.35.76,1.67.81,2.51-.68,1.77-.64,2.6c.04.88-.37,1.75-.34,2.56.05,1.3.31,1.29.36,2.59s-1.03,1.34-.98,2.63,1.11,1.26,1.15,2.56-.09,1.3-.05,2.6c.03.83-.82,1.72-.77,2.55s1.91,1.53,1.98,2.36-.17,1.67-.07,2.49-.33,1.73-.19,2.54.44,1.61.63,2.42,1.35,1.33,1.59,2.13-1.63,2.3-1.34,3.08c.31.84,1.59,1.31,1.97,2.01.43.77,1.08,1.4,1.6,2.02.56.66.72,1.87,1.37,2.37s2.35-.62,3.11-.25,1.05,1.75,1.87,1.99,1.48,1.37,2.34,1.51,1.86-1.22,2.72-1.15,1.65.03,2.51.04,1.63-.91,2.49-.93,1.99,1.28,2.84,1.24c.4-1.14-1.47-1.31-1.46-2.52s.04-1.21.04-2.42,1.87-1.21,1.87-2.42-.89-1.22-.89-2.43.21-1.21.21-2.42.81-1.21.81-2.42-.93-1.22-.93-2.43-.87-1.22-.86-2.43,1.82-1.21,1.82-2.42-.01-1.21,0-2.43.39-1.21.4-2.43-1.18-1.22-1.17-2.43.75-1.21.75-2.43.43-1.21.43-2.43-1.6-1.22-1.6-2.43-.6-1.22-.6-2.43-.03-1.22-.03-2.43,2.14-1.21,2.14-2.43-2-1.22-1.99-2.44,2.05-1.21,2.06-2.43-.1-1.22-.1-2.44c0-.82-1.24-1.7-1.18-2.58s.57-1.65.69-2.5-.15-1.78.03-2.6-.16-1.92.11-2.7c.3-.86,1.1-1.57,1.49-2.26.46-.81,1.51-1.1,2.11-1.59.68-.56,1.32.18,2.2.17s2.04-1.38,2.72-.82c.6.49.6,1.72,1.06,2.53.39.69,1.66,1.13,1.96,1.99.27.78-.81,1.99-.61,2.85s1.4,1.47,1.52,2.33-.55,1.8-.49,2.64,1.5,1.72,1.5,2.54c0,1.27-.43,1.27-.43,2.53s-1.06,1.27-1.06,2.54,1.59,1.26,1.6,2.53-2.22,1.27-2.22,2.54,2.02,1.26,2.02,2.53.08,1.27.09,2.54-.39,1.27-.39,2.54-.95,1.27-.95,2.54-.25,1.27-.25,2.54,1.08,1.27,1.08,2.54-1.89,1.27-1.88,2.54,1.49,1.27,1.49,2.54-.96,1.27-.96,2.54.55,1.27.55,2.53.07,1.27.07,2.54.04,1.27.04,2.54.13,1.27.14,2.54.66,1.27.67,2.54-.93,1.28-.93,2.55-1.2,1.67-.82,2.89c.82.1,2.7-.02,3.47.03.83.06,1.64.43,2.41.43.83,0,1.52-1.7,2.28-1.78.82-.08,1.55.23,2.3.04.79-.2,1.95.75,2.67.41s1.08-1.36,1.72-1.85c.61-.47.36-1.71.91-2.33.5-.57,1.01-.96,1.47-1.67.41-.64.89-1.15,1.27-1.91s2.38-.77,2.67-1.53.02-1.78.24-2.57-.31-1.76-.14-2.57.91-1.5,1.03-2.32-.1-1.67-.02-2.49-.24-1.66-.18-2.48,1.74-1.53,1.79-2.36c.08-1.27-1.51-1.36-1.44-2.63s-.47-1.3-.4-2.57,2.09-1.15,2.16-2.42-.26-1.29-.19-2.56-.98-1.33-.9-2.6.51-1.25.58-2.52.41-1.25.49-2.52-1.21-1.35-1.13-2.62.47-1.25.54-2.52c.04-.68,1.36-1.22,1.53-1.99.16-.7-.94-1.77-.7-2.48s1.31-1.11,1.6-1.76c.32-.72-.31-1.92.03-2.5.26-.45,1.62-1.5,2.49-1.67s1.68,1.53,2.1,1.78c.67.39,1.61.37,2.11,1.03.46.6,1.1,1.2,1.43,1.98.3.7,1.23,1.32,1.45,2.12.2.74-1.13,1.88-.99,2.69s.79,1.47.88,2.27.08,1.59.14,2.39.84,1.57.87,2.36-1.1,1.65-1.09,2.43c.02.82.37,1.61.38,2.38.01.81,1.35,1.62,1.35,2.43s-1.76,1.6-1.79,2.4-.52,1.58-.56,2.38.2,1.61.13,2.42,1.5,1.78,1.41,2.58-1.33,1.47-1.44,2.27.35,1.7.2,2.49-.51,1.56-.67,2.35-.58,1.53-.77,2.31.76,1.9.53,2.68-1.75,1.17-2.01,1.94-.02,1.71-.3,2.47.25,1.87-.07,2.62-.81,1.46-1.15,2.19-2.56.53-2.94,1.25-.8,1.36-1.2,2.06-.11,1.76-.57,2.41-.84,1.36-1.35,1.96-.8,1.45-1.37,2-1.51.71-2.12,1.21-.46,2.15-1.13,2.58-1.94-.02-2.64.35-1.79-.19-2.53.11-1.45.39-2.22.6-1.41.54-2.2.68-1.49.24-2.29.3-1.56,1.63-2.37,1.61-1.71.32-2.51.22-2.49-1.85-3.28-2.02c-.4,1.11,1.72,1.57,1.72,2.75s-.51,1.18-.51,2.36-.01,1.18-.01,2.36.83,1.18.83,2.36-1.49,1.31-1.07,2.42c.85-.06,1.83-.38,2.64-.37s1.59,1.23,2.4,1.31,1.77-.81,2.58-.65,1.49.9,2.28,1.13,1.72.06,2.49.37.96,1.74,1.7,2.13,1.48.56,2.18,1.02,1.79.26,2.45.78,1.93.34,2.54.92.42,1.94.99,2.56,2.02.48,2.55,1.13.21,1.94.69,2.63,1.26,1.16,1.7,1.87-.36,2.12.05,2.85,2.65.46,3.03,1.21.2,1.78.55,2.54-.04,1.83.28,2.6,1.45,1.21,1.75,2,.57,1.58.84,2.37-.66,1.96-.41,2.76.8,1.48,1.03,2.28.16,1.67.38,2.47,1.46,1.34,1.66,2.15-.75,1.88-.57,2.69.94,1.5,1.1,2.31-.08,1.71.07,2.53.87,1.54,1.01,2.36,1.04,1.53,1.16,2.35-1.56,1.92-1.45,2.74,1.27,1.51,1.37,2.33-.27,1.72-.18,2.53.09,1.66.18,2.48.79,1.58.88,2.41-.05,1.67.03,2.5.83,1.59.91,2.42-.97,1.75-.9,2.57,1.93,1.51,2,2.34-.38,1.7-.32,2.52.07,1.66.12,2.49.41,1.64.46,2.47.21,1.65.25,2.48-.38,1.69-.33,2.51-.26,1.68-.22,2.5-1.03,1.71-.99,2.54.16,1.65.2,2.48.72,1.63.75,2.46,1.38,1.61,1.41,2.43-1.17,1.7-1.14,2.53,1.13,1.62,1.15,2.45.37,1.65.39,2.48-.69,1.68-.67,2.51-1.02,1.69-1,2.51,1.8,1.61,1.82,2.44-2.22,1.71-2.2,2.54,1.71,1.61,1.73,2.44.52,1.65.54,2.48-1.08,1.69-1.06,2.52c.02.74.73,1.53.75,2.39.02.76.65,1.56.66,2.39.02.78-.53,1.6-.52,2.42s-1.29,1.6-1.29,2.42.39,1.59.38,2.4-.43,1.59-.45,2.39.64,1.62.6,2.42,1.18,1.7,1.13,2.49-1.37,1.53-1.45,2.32-.41,1.58-.51,2.36c-.11.82,1.18,1.88,1.03,2.64-.16.82-.7,1.61-.9,2.35-.23.82-2.35.91-2.65,1.6-.34.81.98,2.46.54,3.04-.53.7-1.3,1.81-1.99,2.12s-2.16.4-3.04.24c-.79-.14-.91-2.01-1.48-2.84-.43-.63-.82-1.3-1.14-2.21-.26-.77-1.6-1.34-1.78-2.23-.17-.82.91-1.91.8-2.78s-1.68-1.61-1.74-2.47.1-1.83.1-2.66-.1-1.67-.11-2.51.28-1.68.27-2.51.47-1.68.46-2.51-.1-1.67-.1-2.51,1.55-1.69,1.54-2.53-1.46-1.66-1.47-2.49,1.08-1.69,1.07-2.52-1.67-1.65-1.68-2.48-.36-1.67-.37-2.5,1.79-1.71,1.78-2.54-.96-1.65-.97-2.49-.74-1.65-.76-2.49.77-1.69.75-2.53-.7-1.65-.73-2.49.34-1.68.32-2.52.91-1.7.89-2.54-.45-1.66-.48-2.49.77-1.7.74-2.54-1.19-1.63-1.22-2.46-.93-1.63-.97-2.47,1.73-1.75,1.69-2.58-.38-1.66-.42-2.49-.47-1.65-.51-2.49-.15-1.67-.19-2.5-1.42-1.6-1.47-2.43-.1-1.67-.15-2.5.7-1.71.65-2.55.34-1.69.29-2.53.58-1.71.53-2.55-1.72-1.57-1.77-2.41,1.1-1.72,1.04-2.57-.07-1.65-.14-2.5.04-1.67-.04-2.51-.36-1.63-.45-2.47-.14-1.66-.24-2.49.63-1.77.51-2.6-1.25-1.51-1.38-2.33-1.28-1.46-1.42-2.29-.39-1.6-.56-2.42.55-1.81.36-2.63-1.49-1.34-1.7-2.15.9-1.96.67-2.76-.21-1.7-.47-2.49-.28-1.7-.56-2.48-1.66-1.16-1.98-1.92-.24-1.72-.6-2.47-.78-1.49-1.17-2.21-.3-1.79-.74-2.49-1.27-1.21-1.75-1.87-.92-1.44-1.46-2.06-.61-1.82-1.2-2.4-1.23-1.31-1.88-1.83-1.67-.73-2.37-1.17-1.83-.23-2.59-.59-1.39-1.1-2.18-1.37-2.01,1.22-2.84,1.04-2.04-1.7-2.88-1.79c-.42,1.17,1.04,1.48,1.04,2.72s-.3,1.24-.3,2.48-1.29,1.24-1.29,2.48,2.04,1.24,2.04,2.48-.52,1.24-.52,2.48.07,1.24.07,2.48-.13,1.24-.14,2.48-.88,1.24-.89,2.48.81,1.24.81,2.48.15,1.24.15,2.48-.78,1.24-.78,2.48-.16,1.24-.17,2.48.5,1.24.5,2.48.48,1.24.48,2.48.75,1.24.75,2.48-2.37,1.24-2.37,2.48,1.35,1.24,1.35,2.48-1.24,1.24-1.24,2.48.04,1.24.04,2.48.94,1.24.94,2.48-.53,1.24-.53,2.48.15,1.24.15,2.48.58,1.24.58,2.48-.77,1.24-.77,2.48-.42,1.24-.42,2.48.45,1.24.45,2.48,1.31,1.24,1.31,2.48-1.46,1.24-1.46,2.48,1.44,1.24,1.44,2.48-1.69,1.24-1.69,2.48.17,1.24.17,2.48.62,1.24.62,2.48-.44,1.24-.44,2.48.19,1.24.19,2.48,1.66,1.24,1.66,2.48-.33,1.24-.33,2.48-.48,1.24-.48,2.48-.21,1.24-.21,2.48-1.3,1.24-1.3,2.48,1.48,1.24,1.48,2.48.83,1.24.82,2.48-1.64,1.24-1.64,2.48,1.48,1.24,1.48,2.48-2,1.24-2,2.48.89,1.24.89,2.48,1.45,1.24,1.45,2.49-1.08,1.24-1.08,2.48-.4,1.24-.4,2.48.71,1.24.71,2.49-.59,1.24-.59,2.48-.15,1.24-.15,2.48-.95,1.24-.95,2.49.37,1.24.37,2.49.57,1.24.57,2.49.92,1.25.92,2.49.15,1.25.15,2.49c0,.81-1.99,1.5-2.05,2.29s1.38,1.75,1.25,2.52.12,1.7-.07,2.46-2.26,1.01-2.5,1.76.78,1.93.49,2.67-1.21,1-1.54,1.73c-.6.2-1.05-.17-1.85-.09-.7.07-1.35.64-2.08.61s-1.5.16-2.15,0Z"/>
  </g>
  <g>
    <path class="cls-1" d="M860.96,256.04c-.29.5-.73.63-1.68.74-.73.09-1.45.14-2.2.03-.91-.13-1.92.07-2.35-.29-.37-.67.08-1.76-.23-2.5s-1.05-1.23-1.29-2,.48-1.69.3-2.47-2.43-1.13-2.55-1.91,1.46-1.76,1.4-2.54.37-1.53.37-2.3c0-1.24-.8-1.24-.8-2.48s.84-1.24.84-2.47-.39-1.24-.39-2.47-.82-1.24-.82-2.47.85-1.24.85-2.47-1.2-1.24-1.2-2.47-.81-1.24-.81-2.47,2.52-1.24,2.52-2.48-.86-1.24-.86-2.48-1.26-1.24-1.27-2.48,1.73-1.24,1.73-2.48-1.49-1.24-1.49-2.47,1.66-1.24,1.66-2.48-.93-1.24-.93-2.47.89-1.24.89-2.48.15-1.24.15-2.48-1.54-1.24-1.54-2.48,1.44-1.24,1.44-2.48.09-1.24.09-2.48-1.01-1.24-1.01-2.48,1.03-1.24,1.03-2.48-1.66-1.24-1.66-2.48-.37-1.24-.37-2.48.38-1.24.38-2.48-.35-1.24-.35-2.48,1.02-1.24,1.02-2.48-1.41-1.24-1.41-2.48,2.36-1.24,2.36-2.48.04-1.24.04-2.48-2.38-1.24-2.38-2.48.42-1.24.42-2.48.54-1.24.54-2.48-.47-1.24-.47-2.48.99-1.24.99-2.48.58-1.24.58-2.48-1.27-1.24-1.27-2.47-.5-1.24-.5-2.47,1.78-1.24,1.78-2.48-.89-1.24-.89-2.48.13-1.24.13-2.48-.91-1.24-.91-2.48,1.53-1.24,1.53-2.48-1.59-1.24-1.59-2.48-.34-1.24-.34-2.48.14-1.24.14-2.48.42-1.24.42-2.48.89-1.24.89-2.48-1.37-1.24-1.37-2.48,1.76-1.24,1.76-2.48-1.04-1.24-1.04-2.48.27-1.24.27-2.48.67-1.24.66-2.48-.99-1.24-.99-2.48,1.21-1.24,1.21-2.48-1.04-1.24-1.04-2.49.16-1.14-.24-2.31c-.83.06-1.07.37-1.86.51s-1.37,1.09-2.14,1.3-2.11-1.29-2.87-1-1.09,1.61-1.81,1.98-1.33.86-2.01,1.3-1.59.53-2.22,1.03-1.77.48-2.36,1.05-.31,1.97-.85,2.58-.99,1.23-1.48,1.89-2.38.34-2.83,1.03,1.06,2.55.65,3.26-2.49.51-2.85,1.24-.13,1.76-.46,2.51.74,2.04.44,2.8-2.01.97-2.28,1.75-.59,1.53-.83,2.31.46,1.82.25,2.61-.84,1.45-1.03,2.25.25,1.72.07,2.51-1.94,1.27-2.09,2.07-.26,1.63-.4,2.43,1.13,1.84,1.01,2.64-.46,1.58-.57,2.38-1.58,1.46-1.67,2.27,1.33,1.79,1.25,2.6-.94,1.56-1.01,2.36-.22,1.63-.27,2.44,1.45,1.74,1.4,2.54-1.35,1.56-1.39,2.36c-.06,1.21.94,1.26.88,2.46s-1.36,1.14-1.42,2.35,1.39,1.28,1.33,2.49-2.24,1.1-2.3,2.3-.15,1.2-.21,2.41,1.68,1.29,1.62,2.5-1.04,1.16-1.1,2.37-.18,1.2-.24,2.41.23,1.22.17,2.43.07,1.21,0,2.42-1.17,1.15-1.23,2.36.21,1.22.15,2.43.27,1.23.21,2.43,1.55,1.29,1.49,2.5-1.54,1.14-1.59,2.35.08,1.25.05,2.49.2,1.25.17,2.49,1.08,1.27,1.05,2.51-.59,1.23-.62,2.47.69,1.26.66,2.5-.5,1.23-.53,2.47-.77,1.22-.8,2.47-1.08,1.22-1.11,2.46,2.22,1.3,2.19,2.53-1.23,1.21-1.26,2.45.55,1.26.52,2.5-1.56,1.21-1.59,2.45-.26,1.24-.29,2.48.13,1.25.1,2.49.04,1.25.01,2.49c-.02.81,1.96,1.75,1.9,2.59s-1.74,1.52-1.84,2.34.97,1.88.8,2.67c-.18.86-.28,1.8-.54,2.54-.3.87-1.02,1.65-1.44,2.26-.54.78-1.58,1.06-2.34,1.23-.9.2-1.75.2-2.45-.08s-1.25-.94-1.8-1.64c-.46-.58-.68-1.35-1.03-2.17-.3-.7-1.03-1.31-1.26-2.14-.21-.75-1.06-1.44-1.22-2.27-.15-.77,1.31-1.84,1.2-2.67s-2.06-1.4-2.13-2.23,2.12-1.78,2.07-2.61-.67-1.58-.7-2.4-1.47-1.6-1.48-2.42.58-1.65.58-2.46-.42-1.66-.41-2.46,1.23-1.63,1.24-2.42c.02-.85.62-1.64.64-2.42.03-.86.12-1.68.15-2.44.03-.82-.81-1.67-.79-2.49s-.69-1.67-.66-2.49.34-1.63.37-2.45.02-1.64.05-2.46-.48-1.66-.45-2.48.85-1.61.89-2.43.65-1.61.69-2.43.29-1.63.32-2.45-.25-1.65-.21-2.47-.33-1.66-.29-2.48-.69-1.68-.64-2.5.25-1.63.29-2.45.73-1.6.78-2.42.31-1.62.36-2.44-.17-1.65-.12-2.47,1.23-1.56,1.28-2.38-.96-1.71-.9-2.52.47-1.61.53-2.42-1.41-1.75-1.35-2.57,1.45-1.53,1.52-2.35,1.06-1.56,1.13-2.37-1.46-1.77-1.39-2.58,1.34-1.52,1.41-2.34-.99-1.74-.91-2.55-.09-1.66-.01-2.47.92-1.56,1-2.37,1.27-1.52,1.35-2.33-2.02-1.87-1.92-2.7,1.26-1.5,1.37-2.32-.96-1.8-.84-2.62,2.44-1.27,2.58-2.08.27-1.6.42-2.41-.14-1.69.03-2.49.23-1.62.41-2.42.29-1.61.49-2.41,1.15-1.38,1.37-2.17.25-1.61.48-2.4-1.5-2.2-1.24-2.98,2.7-.81,2.98-1.59-.46-1.91-.16-2.67-.49-2-.16-2.75,1.84-.99,2.19-1.73-.14-1.93.24-2.65,1.69-.96,2.1-1.67,1.29-1.11,1.73-1.8-.58-2.4-.1-3.06.94-1.44,1.46-2.07,1.07-1.35,1.63-1.95,1.63-.78,2.23-1.34,1.74-.53,2.38-1.04,1.83-.2,2.51-.66.93-1.48,1.65-1.88.85-1.99,1.6-2.34,2.08.75,2.86.47,1.65.09,2.46-.12,1.46-.54,2.28-.69,1.42-1.4,2.25-1.48,1.66,1.16,2.5,1.14,2.81-.77,3.65-.73c.41-1.32-.44-1.75-.43-3.13s-1.62-1.38-1.62-2.76,1.72-1.38,1.72-2.76-.42-1.3-1.34-2.32c-.87-.97-.89.67-2.19.59s-1.28-.56-2.59-.64-1.27-.73-2.58-.81c-.8-.05-1.51-.71-2.3-.82s-1.86,1.24-2.64,1.06-1.55-.64-2.31-.88-1.12-1.63-1.86-1.93-1.59-.3-2.3-.66-1.71-.25-2.39-.67-.65-1.84-1.28-2.33-2.01-.08-2.59-.62-1.62-.74-2.16-1.34.53-2.6.03-3.27-.98-1.26-1.43-1.97-2.46-.49-2.86-1.23.07-1.93-.28-2.69.47-1.97.16-2.76-.64-1.48-.91-2.28-2.1-1.08-2.33-1.89,1.24-2.04,1.05-2.85-.91-1.47-1.08-2.3-1.55-1.41-1.69-2.24.47-1.77.36-2.6.61-1.74.53-2.57-2.35-1.48-2.41-2.32-.08-1.71-.12-2.54,1.33-1.73,1.31-2.57-.97-1.68-.97-2.51-.25-1.7-.23-2.54-.01-1.71.03-2.54,1.54-1.6,1.6-2.43-1.4-1.82-1.32-2.64.7-1.64.79-2.46,1.17-1.55,1.29-2.37c.11-.76.4-1.43.61-2.15s.21-1.52.52-2.18c.34-.74-.35-2.14.07-2.71.5-.68,2.03-.39,2.62-.74.7-.41,1.56-1.52,2.31-1.3.67.19-.03,2.22.49,3.01.39.59,1.86.59,2.17,1.42.26.7,1.3,1.26,1.51,2.08.19.74-1.31,1.9-1.16,2.71s.82,1.45.94,2.24.16,1.59.25,2.38,1.06,1.53,1.12,2.3c.07.83-.62,1.69-.58,2.44.04.8.13,1.6.17,2.4s.64,1.57.68,2.37-.38,1.63-.33,2.43-.67,1.65-.61,2.45,1.1,1.53,1.17,2.33.24,1.58.32,2.38-1.07,1.73-.98,2.52,1.46,1.44,1.56,2.23.9,1.47,1.03,2.26.04,1.59.18,2.38-.06,1.62.11,2.41,1,1.38,1.2,2.16c.21.84.06,1.63.34,2.35.32.8.25,1.66.65,2.32.45.73.63,1.59,1.18,2.17.57.61,1.16,1.23,1.83,1.69s1.41.89,2.17,1.21,1.45.96,2.26,1.17,1.78-.58,2.61-.46c.79.11,1.58.04,2.42.09s1.57,1.58,2.41,1.59,1.65-.38,2.48-.41,2.07-.51,2.9-.55c.39-1.15.49-1.37.5-2.58s.24-1.21.24-2.42-.87-1.22-.87-2.43-.43-1.21-.43-2.43-.57-1.21-.57-2.43-.11-1.21-.11-2.43-.38-1.22-.38-2.43,2.45-1.21,2.46-2.42-.75-1.22-.75-2.43.73-1.21.73-2.43-.32-1.22-.31-2.43-.18-1.21-.17-2.43-1.81-1.22-1.81-2.43.31-1.21.31-2.43,1.57-1.21,1.57-2.42.06-1.21.06-2.43-1.57-1.22-1.57-2.43.28-1.21.28-2.43-.59-1.22-.59-2.43,1-1.22,1-2.43,1.28-1.21,1.29-2.43c0-.82-2.02-1.75-1.96-2.62s1.54-1.57,1.65-2.42-1.2-1.98-1.02-2.8c.19-.86.49-1.78.76-2.56.29-.86.76-1.77,1.15-2.46.46-.81,2.25-.39,2.86-.87.69-.55.91-1.18,1.8-1.16s2.05-.52,2.74.04c.6.49.06,2.04.52,2.85.39.69.86,1.28,1.16,2.14.27.77.75,1.48.94,2.33s.49,1.62.61,2.47,1.14,1.62,1.2,2.46-.87,1.79-.87,2.61c0,1.21-.48,1.21-.48,2.42s.44,1.21.44,2.42-.47,1.21-.46,2.42,1.88,1.21,1.89,2.42-.61,1.21-.61,2.42-.06,1.21-.05,2.42-.95,1.21-.95,2.43.38,1.21.38,2.42.27,1.21.28,2.42,1.03,1.21,1.04,2.42-1.93,1.22-1.93,2.43,1.96,1.21,1.96,2.42-.97,1.22-.97,2.43-.58,1.21-.58,2.43.74,1.21.75,2.42-.82,1.21-.82,2.43.43,1.21.43,2.43-.96,1.22-.96,2.43.03,1.21.03,2.43-.08,1.22-.07,2.43-.23,1.56.16,2.72c.84.08,2.51-.33,3.3-.3.85.04,1.64-.28,2.43-.31.85-.03,1.58-.3,2.36-.41.83-.11,1.8.68,2.56.45s1.48-.77,2.2-1.14.85-1.5,1.5-2.01,1.59-.5,2.14-1.14c.51-.59,1.82-.68,2.28-1.41.41-.66.18-1.77.55-2.54s.79-1.62,1.08-2.45.13-1.81.34-2.68-.49-1.86-.34-2.74,2.68-1.41,2.78-2.3.18-1.81.25-2.71-1.51-1.9-1.46-2.79c.08-1.31,1.29-1.23,1.37-2.54s-.25-1.33-.17-2.63.04-1.31.12-2.61-.05-1.31.03-2.62,1.04-1.25,1.12-2.56-.93-1.37-.85-2.67-.68-1.35-.6-2.66,1.24-1.24,1.32-2.55-1.36-1.39-1.28-2.7c.04-.68,1.25-1.31,1.42-2.07.16-.7-1.02-1.86-.78-2.57s.56-1.5.85-2.16c.32-.71,1.14-1.25,1.48-1.84.26-.44,1.57-.99,2.44-1.15s1.69.72,2.11.97c.67.39,1.6.5,2.1,1.16.46.6-.41,1.89-.07,2.67.3.7.74,1.23.96,2.03.2.74,1.38,1.26,1.53,2.07s-.25,1.62-.16,2.43,1.46,1.48,1.52,2.28-1.84,1.7-1.81,2.5,1.59,1.56,1.61,2.34c.02.82-1.37,1.64-1.36,2.41.01.85-.34,1.69-.35,2.54s1.33,1.71,1.31,2.56-1.21,1.66-1.25,2.5,1.62,1.79,1.56,2.63-2,1.54-2.08,2.39,1.47,1.85,1.37,2.7-1.6,1.49-1.72,2.33,1.42,1.96,1.26,2.79-.99,1.55-1.17,2.38-.38,1.66-.6,2.48-1.62,1.28-1.87,2.09.68,1.99.4,2.79-1.3,1.31-1.62,2.1-.25,1.68-.61,2.41-.27,1.76-.7,2.46-.92,1.42-1.4,2.09-.46,1.84-1,2.47-2.12.32-2.72.89-.86,1.54-1.52,2.05-1.63.57-2.33,1.02-1.16,1.33-1.9,1.7-1.79.02-2.57.32-1.37,1.08-2.17,1.3-1.64.23-2.47.37-1.54,1.3-2.37,1.37-1.73-.68-2.57-.69-1.7.33-2.54.25-.87-.45-1.7-.6c-.41,1.09.39.9.39,2.06s-.67,1.17-.67,2.34.23,1.17.23,2.34-1.49,1.17-1.49,2.34.96,1.04,1.37,2.14c.84-.05,1.11.37,1.91.38s1.7-.57,2.5-.49,1.51,1.08,2.3,1.23,1.87-.68,2.64-.46,1.21,1.54,1.97,1.85,1.92-.26,2.65.12.73,1.97,1.42,2.41,1.56.52,2.21,1.02.75,1.54,1.35,2.1,1.43.77,2,1.37,1.01,1.21,1.53,1.85,2.6.08,3.09.75-1.02,2.66-.58,3.36,2.14.59,2.55,1.31,1.35,1.16,1.72,1.89.04,1.82.39,2.57.27,1.67.59,2.43.87,1.41,1.16,2.18-.44,1.89-.17,2.66,1.53,1.2,1.78,1.98.35,1.6.59,2.39-.41,1.8-.19,2.6,2.16,1.13,2.36,1.93.06,1.68.24,2.48-.2,1.73-.04,2.53.46,1.58.61,2.39,1.28,1.45,1.42,2.25-1.94,1.99-1.81,2.79,1.21,1.47,1.32,2.28.41,1.61.51,2.41-.55,1.72-.46,2.53,2.03,1.43,2.12,2.23-1.01,1.78-.93,2.6-.79,1.74-.71,2.57,1.61,1.51,1.68,2.34.21,1.65.28,2.47,1.05,1.58,1.12,2.41-1.39,1.78-1.33,2.6,1.61,1.55,1.67,2.37.08,1.66.14,2.49-1.75,1.78-1.7,2.6,1,1.6,1.04,2.43-.11,1.67-.06,2.5-.71,1.7-.67,2.52,1.02,1.61,1.06,2.44.95,1.62.99,2.44-1.74,1.74-1.7,2.56.09,1.65.12,2.48-.33,1.67-.29,2.5,1.24,1.61,1.27,2.44-.69,1.68-.66,2.51-.37,1.67-.35,2.49,1.66,1.6,1.68,2.43.66,1.64.68,2.47.08,1.65.11,2.48-2.09,1.72-2.06,2.54,2.04,1.61,2.06,2.44-2.01,1.71-1.99,2.55c.02.76.15,1.59.17,2.47.02.79,1.32,1.58,1.33,2.44.02.8-.39,1.63-.39,2.48s.44,1.63.44,2.47.62,1.66.6,2.49-.49,1.65-.52,2.48-.73,1.63-.78,2.45-1.11,1.56-1.18,2.38,1.66,1.85,1.55,2.65c-.11.84-1,1.55-1.14,2.34-.16.85.63,1.9.43,2.66-.23.85-1.78,1.22-2.07,1.93-.34.83.2,2.09-.24,2.7-.53.73-1.68.76-2.38,1.08s-1.64,1.8-2.54,1.63c-.79-.15-1.86-1.42-2.43-2.23-.44-.63.1-1.95-.21-2.85-.26-.76-2.03-1.24-2.22-2.13-.17-.82,1.89-2.05,1.78-2.92s-2.19-1.54-2.24-2.4-.16-1.81-.16-2.65.39-1.64.39-2.47.95-1.65.95-2.47.25-1.65.24-2.47-1.09-1.64-1.09-2.46,1.88-1.66,1.87-2.48-1.5-1.63-1.51-2.45.95-1.66.93-2.48-.57-1.64-.58-2.46-.09-1.64-.1-2.46-.06-1.64-.08-2.46-.16-1.64-.18-2.46-.69-1.63-.71-2.45.89-1.67.87-2.49.84-1.67.82-2.49-1.04-1.61-1.06-2.44.29-1.65.26-2.47-1.73-1.59-1.76-2.41.37-1.65.34-2.47,1.22-1.69,1.19-2.51-.76-1.61-.79-2.43-1.15-1.59-1.19-2.41.1-1.65.06-2.47.1-1.65.06-2.47,1.76-1.73,1.72-2.55-.65-1.61-.69-2.43-.82-1.6-.87-2.42.54-1.67.49-2.49-.41-1.62-.45-2.44-.49-1.62-.54-2.44,1.53-1.74,1.48-2.57-1.69-1.51-1.75-2.34-.66-1.57-.73-2.39,1.88-1.79,1.8-2.61-.49-1.6-.58-2.42-1.22-1.5-1.32-2.32.23-1.67.12-2.48.11-1.67,0-2.48-1.52-1.41-1.66-2.21.11-1.67-.04-2.47.89-1.85.72-2.65-1.67-1.3-1.86-2.1.44-1.8.23-2.58-1.5-1.27-1.73-2.05-.77-1.44-1.03-2.21,1.16-2.14.87-2.9-1.22-1.29-1.54-2.04-.9-1.38-1.26-2.11-1.33-1.12-1.72-1.83.51-2.21.08-2.89-1.37-1.07-1.86-1.72-.95-1.35-1.48-1.96-1.62-.68-2.21-1.24-.45-1.97-1.09-2.47-1.54-.71-2.23-1.14-1.99.38-2.74.03-.8-2.25-1.59-2.52-1.51-.94-2.32-1.12-2.49.45-3.32.36c-.41,1.17,1.62,1.48,1.62,2.71s-1.14,1.24-1.14,2.47.6,1.24.6,2.47-.21,1.24-.21,2.47-.23,1.24-.24,2.47,1.21,1.24,1.21,2.47-1.35,1.24-1.35,2.47.53,1.24.53,2.48.91,1.24.91,2.48-.16,1.24-.16,2.48-2.08,1.24-2.08,2.47-.06,1.24-.06,2.48.82,1.24.81,2.48.12,1.24.12,2.48.35,1.24.35,2.48-.52,1.24-.52,2.48,1.42,1.24,1.42,2.48-1.04,1.24-1.04,2.48-.96,1.24-.96,2.48-.14,1.24-.14,2.48.18,1.24.18,2.48.03,1.24.03,2.48,1.57,1.24,1.57,2.48.42,1.24.42,2.48-2.38,1.24-2.38,2.48,1.79,1.24,1.79,2.48-.51,1.24-.51,2.48-.02,1.24-.02,2.48.83,1.24.82,2.48-1.09,1.24-1.09,2.48.39,1.24.39,2.48-1.19,1.24-1.19,2.48,1.01,1.24,1.01,2.48-.57,1.24-.57,2.48.47,1.24.47,2.48-1.21,1.24-1.21,2.47.23,1.24.23,2.48.8,1.24.8,2.48.97,1.24.97,2.48-1.1,1.24-1.1,2.48,1.2,1.24,1.2,2.48-1.02,1.24-1.02,2.48.38,1.24.38,2.48-1.41,1.24-1.41,2.48,2.1,1.24,2.1,2.48-.61,1.24-.61,2.48-.78,1.24-.78,2.48.89,1.24.89,2.48-.02,1.24-.02,2.48-1.25,1.24-1.25,2.48.33,1.24.33,2.48-.3,1.24-.3,2.48,1.08,1.24,1.08,2.48-1.17,1.24-1.17,2.48.6,1.24.6,2.49-.41,1.24-.41,2.49c0,.79.56,1.56.5,2.33s.63,1.66.52,2.43-2.05,1.17-2.23,1.93.63,1.74.38,2.48-.97,1.25-1.3,1.96-.51,1.42-.9,2.11Z"/>
    <path class="cls-1" d="M971.05,257.36c-.35-.74.74-2.44.44-3.18s-2.19-.91-2.44-1.67-.22-1.67-.41-2.45.73-1.78.6-2.58-1.81-1.41-1.87-2.22.12-1.67.12-2.49c0-1.24.11-1.24.11-2.48s-.33-1.24-.33-2.48,1.2-1.24,1.2-2.48.83-1.24.83-2.48-1.32-1.24-1.32-2.48.45-1.24.45-2.48-.52-1.24-.52-2.48-.94-1.24-.94-2.48.76-1.24.76-2.48-.52-1.24-.52-2.48,2.04-1.24,2.04-2.48-1.56-1.24-1.57-2.48.58-1.24.58-2.48-.05-1.24-.05-2.48.94-1.24.94-2.48-2.16-1.24-2.16-2.48.7-1.24.7-2.48.16-1.24.16-2.48.48-1.24.48-2.48.57-1.24.57-2.48-1.11-1.24-1.11-2.48-.68-1.24-.68-2.48.04-1.24.04-2.48.91-1.24.91-2.48.82-1.24.82-2.48-1.54-1.24-1.54-2.48,1.84-1.24,1.84-2.48-.01-1.24-.02-2.48-1.29-1.24-1.29-2.48-.87-1.24-.87-2.48,1.32-1.24,1.32-2.48-.24-1.24-.24-2.48-.3-1.24-.3-2.48.52-1.24.52-2.48.56-1.24.56-2.48-1.3-1.24-1.3-2.48.19-1.24.19-2.48.2-1.24.2-2.48-.16-1.24-.16-2.48-.35-1.24-.35-2.48.25-1.24.25-2.48,1.43-1.24,1.43-2.48-.01-1.24-.02-2.48-.6-1.24-.6-2.48.67-1.24.67-2.48-.78-1.24-.78-2.48-1.01-1.24-1.01-2.48,1.41-1.24,1.41-2.49-.4-1.24-.4-2.49-.71-1.24-.72-2.48,0-1.24,0-2.48.66-1.24.66-2.49.66-1.24.66-2.49-1.68-1.24-1.68-2.49,1.42-1.25,1.42-2.49.25-1.48-.15-2.66c-.84.07-1.93,1.51-2.73,1.65s-1.64-.12-2.42.1-2.06-.93-2.82-.63-.96,1.92-1.68,2.29-1.84.07-2.53.52-1.81.41-2.45.93-.36,2.1-.95,2.68-2.26.16-2.8.78.52,2.52.03,3.19-1.14,1.14-1.59,1.84-2.27.56-2.67,1.29-.85,1.46-1.22,2.21-.96,1.42-1.29,2.19-.35,1.68-.65,2.45-.93,1.46-1.19,2.24-.34,1.66-.58,2.45,1.77,2.21,1.56,3.01-1.54,1.29-1.73,2.1-1.25,1.42-1.42,2.23,1.06,1.89.91,2.71-1.47,1.42-1.6,2.23-.28,1.64-.4,2.45,1.16,1.83,1.05,2.64-.85,1.56-.95,2.37.67,1.73.59,2.54-1.22,1.55-1.28,2.36-1.12,1.59-1.17,2.4,2,1.79,1.95,2.6-2.19,1.54-2.24,2.35c-.06,1.21.71,1.25.64,2.45s.51,1.24.45,2.44-.3,1.2-.36,2.4-.77,1.17-.83,2.38,1.36,1.28,1.3,2.49-1.55,1.13-1.61,2.34,1.84,1.3,1.78,2.51-2.5,1.08-2.56,2.29,1.3,1.27,1.24,2.48.01,1.21-.05,2.42-.22,1.2-.28,2.41,0,1.21-.06,2.42.48,1.24.41,2.45-.5,1.19-.56,2.4-1.32,1.16-1.37,2.37c-.05,1.28,1.65,1.34,1.62,2.62s-.16,1.28-.19,2.57.45,1.29.41,2.58-.75,1.27-.78,2.55-.38,1.28-.42,2.56,1.26,1.32,1.23,2.6-1.24,1.26-1.27,2.54-.12,1.28-.15,2.56-.07,1.28-.1,2.57.8,1.31.77,2.59.07,1.29.03,2.57-.71,1.27-.74,2.56-1.33,1.26-1.36,2.54.15,1.29.12,2.58c-.02.84-.29,1.65-.34,2.53s.87,1.78.77,2.64.18,1.8.02,2.63c-.18.9-.02,1.89-.27,2.66-.3.91-1.58,1.27-2,1.91-.55.82-1.08.4-1.87.57-.92.2-1.17.69-1.89.38s-1.49-.28-2.04-1.01c-.45-.6-1.7-.94-2.05-1.78-.3-.72-.43-1.65-.66-2.51-.2-.77.54-1.8.38-2.66-.14-.79-1.32-1.47-1.43-2.32s.85-1.76.77-2.61-1.71-1.56-1.75-2.4,1.8-1.76,1.78-2.59-1.05-1.65-1.06-2.48-.28-1.69-.28-2.51,1.49-1.68,1.5-2.49c.01-.86-2.05-1.74-2.03-2.54.02-.88.58-1.71.61-2.49.02-.83,0-1.66.02-2.48s1.37-1.62,1.4-2.44-.72-1.68-.69-2.5-.45-1.67-.42-2.5,1.56-1.6,1.58-2.43-1.84-1.72-1.81-2.54,1.87-1.59,1.9-2.41-.96-1.69-.93-2.52-.39-1.67-.36-2.5,1.85-1.58,1.88-2.4-.6-1.68-.56-2.5.5-1.63.54-2.45-1.18-1.71-1.13-2.54.89-1.61.94-2.43-1.15-1.72-1.1-2.54-.02-1.66.03-2.48,2.08-1.52,2.13-2.35-1.82-1.78-1.76-2.6.56-1.62.62-2.44-.2-1.67-.13-2.5.84-1.59.9-2.42-.71-1.72-.64-2.54.64-1.6.72-2.43.33-1.63.41-2.45-.44-1.7-.35-2.53,2.04-1.45,2.13-2.27-.62-1.73-.53-2.55.24-1.64.34-2.46-1.03-1.88-.92-2.73.55-1.68.68-2.53,1.94-1.42,2.09-2.27.54-1.63.7-2.47-1.44-2.05-1.25-2.89,1.24-1.49,1.44-2.32.1-1.74.32-2.58-.48-1.91-.25-2.74,1.83-1.27,2.07-2.1.42-1.66.67-2.48.43-1.59.7-2.37.05-1.74.34-2.51,1.41-1.21,1.73-1.97.16-1.72.51-2.47,1.54-1.06,1.92-1.79-1.11-2.49-.7-3.2,2.28-.56,2.73-1.25,1.27-1.09,1.75-1.75.34-1.78.85-2.42,1.67-.68,2.23-1.28.83-1.42,1.43-1.98.67-1.71,1.32-2.23,1.8-.3,2.48-.77.75-1.91,1.47-2.31,1.16-1.52,1.91-1.87,2.45,1.7,3.23,1.42,1.24-1.31,2.05-1.51,1.35-1.61,2.18-1.75,1.84,1.48,2.67,1.41,1.55-1.6,2.39-1.61,2.64.94,3.48.98c.41-1.29-.89-1.67-.89-3.03s.88-1.36.88-2.72.15-1.36.15-2.72-.49-1.47-1.43-2.45-1.05-1.41-2.45-1.5-1.39-.18-2.79-.27-1.46.91-2.86.82c-.85-.06-1.52-1.16-2.32-1.28s-1.95,1.34-2.74,1.15-1.79-.1-2.57-.37-1.49-.97-2.24-1.32-1.72-.47-2.43-.89-.88-1.76-1.55-2.25-2.24.04-2.86-.52.44-2.83-.13-3.44-1.01-1.19-1.53-1.85-2.93.08-3.39-.62-.58-1.67-1-2.4-.34-1.74-.72-2.49-1.15-1.33-1.48-2.1.29-1.91,0-2.7.01-1.73-.23-2.53-1.69-1.24-1.9-2.05-.9-1.53-1.07-2.34,1.41-1.97,1.27-2.8-1.14-1.49-1.26-2.32-.09-1.67-.17-2.5-1.06-1.6-1.11-2.43,1.43-1.74,1.41-2.57-1.63-1.65-1.63-2.48c0-1.41-.34-1.41-.34-2.81s.15-1.41.15-2.81.42-1.41.42-2.81c0-.82.91-1.67.95-2.56.04-.84-1.26-1.82-1.18-2.69s1.93-1.52,2.05-2.37-.74-1.9-.57-2.72c.19-.87.67-1.67.92-2.45.28-.87,1.2-1.4,1.56-2.11.43-.85.12-2.13.67-2.67.66-.64,1.78.05,2.64-.01s1.78-.71,2.44-.1c.54.51,1.31,1.2,1.72,2.07.32.71.5,1.63.74,2.52.22.78,1.21,1.49,1.37,2.37.15.81-1.53,1.95-1.42,2.82s1.27,1.56,1.35,2.41.27,1.71.33,2.55-.35,1.75-.31,2.58c.04.88-.69,1.76-.66,2.57.05,1.3,1.22,1.26,1.26,2.55s.09,1.3.13,2.59-1.69,1.36-1.64,2.66,2.3,1.22,2.34,2.52c.03.83-1.87,1.75-1.82,2.58s.75,1.63.82,2.46,1.63,1.47,1.74,2.3-1.29,1.86-1.15,2.67.24,1.66.42,2.47,1.33,1.36,1.56,2.16.07,1.7.36,2.48c.31.84,1.2,1.27,1.59,1.97.43.77-.43,2.39.09,3.01.56.66,1.32,1.33,1.97,1.83s2.14-.23,2.9.14,1.37.84,2.19,1.08,1.34,1.76,2.19,1.9,1.84-1.28,2.7-1.21,1.62.88,2.48.89,1.68.08,2.54.06.5-.79,1.36-.83c.4-1.14,1.19-.81,1.19-2.02s-1-1.21-.99-2.43,1.3-1.21,1.31-2.42-1.44-1.22-1.44-2.43,2.19-1.21,2.19-2.42.09-1.21.09-2.43-1.74-1.22-1.74-2.43.98-1.21.98-2.42.12-1.21.12-2.43-.28-1.21-.28-2.43-.13-1.22-.13-2.43,1.11-1.21,1.12-2.43-.27-1.22-.27-2.43-.33-1.22-.32-2.43-1.61-1.22-1.6-2.43,1.47-1.21,1.47-2.42-.11-1.22-.11-2.43-.23-1.22-.22-2.43-1.11-1.22-1.1-2.43.56-1.22.57-2.43-.72-1.22-.72-2.44c0-.82.5-1.73.57-2.61s.89-1.64,1.01-2.49,1.29-1.47,1.48-2.29-1.74-2.31-1.47-3.08c.3-.86,1.77-1.25,2.16-1.95.46-.81.62-1.93,1.22-2.43.68-.56,1.82.52,2.7.52s.9.27,1.59.84c.6.49.99.76,1.45,1.57.39.69.72,1.29,1.02,2.15.27.78,2.44,1.06,2.63,1.92s-1.24,1.98-1.12,2.83,1.43,1.58,1.49,2.42.23,1.79.24,2.61c0,1.27-.31,1.27-.31,2.53s-.45,1.27-.45,2.54.07,1.27.08,2.54-.18,1.27-.17,2.54-.18,1.27-.18,2.54.5,1.27.5,2.54.69,1.27.69,2.53-1.6,1.27-1.6,2.54,1.88,1.26,1.88,2.53-2.25,1.28-2.25,2.55.59,1.27.59,2.54,1.43,1.27,1.43,2.54-.59,1.27-.59,2.54.43,1.27.44,2.53-1.19,1.27-1.19,2.54-.57,1.27-.57,2.54-.07,1.27-.06,2.54.87,1.27.87,2.54.75,1.27.75,2.55-.68,1.25-.29,2.47c.82.1,1.38-.05,2.15,0,.83.06,1.61-.45,2.38-.45.83,0,1.62.76,2.39.68.82-.08,1.75.35,2.5.16.79-.2,1.73-.3,2.44-.64s1.34-1.09,1.98-1.58c.61-.47.95-1.34,1.5-1.96.5-.57.34-1.62.79-2.33.41-.64.9-1.19,1.27-1.95s1.27-1.22,1.56-1.98.75-1.5.97-2.28.15-1.66.31-2.47,1.41-1.45,1.53-2.27-.85-1.78-.77-2.6.51-1.61.57-2.43-1.42-1.73-1.37-2.55c.08-1.27,1.4-1.19,1.48-2.46s1-1.22,1.08-2.49-1.53-1.36-1.45-2.63,1.27-1.2,1.34-2.47-1.07-1.34-.99-2.61-.17-1.29-.1-2.56.84-1.23.91-2.5,1.18-1.21,1.25-2.48-2.13-1.4-2.06-2.68c.04-.68,1.22-1.35,1.39-2.11.16-.7-.78-1.8-.54-2.5s2.58-.61,2.87-1.26c.32-.72.59-1.28.93-1.86.26-.45.31-.74,1.18-.9s1.42-.32,1.85-.07c.67.39,1.18.76,1.68,1.42.46.6.09,1.52.42,2.29.3.7.69,1.24.91,2.05.2.74,2.39,1.08,2.53,1.89s-2.03,1.88-1.94,2.69,1.24,1.46,1.3,2.26,1.3,1.55,1.33,2.34-1.23,1.66-1.21,2.44c.02.82,1,1.6,1.01,2.37.01.81-1.01,1.63-1.01,2.44s-.56,1.6-.58,2.4,1.75,1.7,1.71,2.51,0,1.65-.07,2.46-.1,1.65-.19,2.45-.82,1.55-.94,2.35-1.01,1.48-1.15,2.28-1.24,1.38-1.41,2.17.37,1.72.17,2.5.9,1.93.68,2.7-1.91,1.11-2.16,1.88-1.08,1.3-1.36,2.05-.39,1.54-.7,2.28.43,1.94.09,2.67-1.84.87-2.21,1.59-.84,1.32-1.25,2.02-.37,1.56-.82,2.21.34,2.28-.17,2.89-2.32.04-2.88.6-.15,2.22-.76,2.71-1.03,1.46-1.69,1.89-1.69.47-2.39.84-1.74.12-2.48.41-1.66-.03-2.43.19-1.24,1.87-2.03,2-1.68-.02-2.49.03-1.61-1.13-2.42-1.15-1.58.27-2.38.16-1.13.05-1.92-.13c-.4,1.11-1.15,1.02-1.14,2.2s1.2,1.18,1.2,2.36.6,1.18.6,2.36-2.09,1.18-2.09,2.37-.29,1.58.12,2.69c.85-.06,2.57-1.33,3.39-1.32s1.67,1,2.49,1.07,1.44,1.4,2.24,1.56,1.54.25,2.33.49,2.11-1.07,2.88-.76.76,2.22,1.5,2.61,1.66.28,2.36.74,2.1-.08,2.76.44.81,1.63,1.42,2.2.58,1.7,1.14,2.32,2.77-.18,3.3.48,1.03,1.39,1.51,2.08-.21,2.17.23,2.88,1.68.95,2.09,1.68,1.05,1.37,1.43,2.11.81,1.5,1.16,2.26-.65,2.11-.33,2.88,2.06.99,2.35,1.77.09,1.76.36,2.55-.39,1.88-.13,2.68.35,1.62.58,2.43.71,1.53.92,2.33,1.69,1.3,1.88,2.11-.87,1.92-.69,2.74,1.37,1.42,1.53,2.24-1.73,2.04-1.58,2.85,1.61,1.4,1.75,2.22,1.09,1.53,1.22,2.34-1.45,1.91-1.34,2.73.77,1.58.88,2.4.15,1.67.24,2.48,1.08,1.55,1.16,2.38-.57,1.73-.49,2.55.21,1.65.28,2.47.71,1.6.78,2.43-.32,1.69-.25,2.52-.63,1.71-.57,2.54,1.12,1.58,1.18,2.41.23,1.65.28,2.48-1.12,1.73-1.07,2.56,1.38,1.58,1.43,2.41.79,1.62.83,2.45-.14,1.67-.09,2.5-.28,1.68-.24,2.5.74,1.63.78,2.46-.32,1.68-.29,2.5-.38,1.67-.35,2.5-.31,1.67-.29,2.5-.04,1.66-.01,2.49.03,1.66.06,2.49-.33,1.67-.31,2.49,1.01,1.63,1.03,2.46.2,1.65.22,2.48-1.46,1.69-1.44,2.52.42,1.65.44,2.48.16,1.66.18,2.49-.42,1.67-.4,2.51c.02.74-.2,1.56-.17,2.41.02.76.92,1.54.93,2.38.02.78.47,1.57.48,2.4s.6,1.59.6,2.41.12,1.61.11,2.42.36,1.62.34,2.43-2.49,1.52-2.53,2.32.68,1.63.62,2.43-.84,1.53-.92,2.32.15,1.61.04,2.39c-.11.82-.06,1.6-.21,2.36-.16.82,1.41,2.04,1.21,2.78-.23.82-.82,1.6-1.11,2.29-.34.81-2.08.73-2.52,1.31-.53.7-.85.93-1.54,1.24s-1.26,1.9-2.14,1.74c-.79-.14-1.71-1.15-2.27-1.98-.43-.63-1.41-1.35-1.73-2.25-.26-.77.45-1.95.27-2.84-.17-.82.96-1.85.85-2.73s-2.23-1.53-2.28-2.38,1.31-1.82,1.31-2.65-1.49-1.67-1.49-2.51.05-1.67.04-2.51.06-1.67.05-2.51,1.69-1.69,1.68-2.52-.54-1.67-.55-2.51-1.01-1.66-1.02-2.5,1.38-1.69,1.37-2.53-.22-1.67-.23-2.51-.3-1.67-.31-2.51-.19-1.67-.21-2.51-.97-1.65-.98-2.49.93-1.69.91-2.53.45-1.68.42-2.52-.48-1.66-.5-2.5.42-1.69.4-2.52-1.93-1.61-1.96-2.45.56-1.69.53-2.52,0-1.67-.03-2.51.89-1.71.86-2.54-.44-1.66-.47-2.49-.34-1.66-.38-2.49-1.1-1.62-1.14-2.46,1.85-1.76,1.81-2.59-2.03-1.57-2.07-2.41.89-1.72.85-2.55.49-1.7.45-2.54-.83-1.63-.88-2.46.73-1.72.68-2.55-.52-1.65-.57-2.48.86-1.73.81-2.57-.14-1.65-.2-2.5-.05-1.66-.12-2.5-.26-1.65-.34-2.49-1.24-1.54-1.33-2.38-.51-1.6-.62-2.44-.43-1.61-.55-2.44.72-1.79.58-2.61-.53-1.6-.68-2.42-1.18-1.46-1.34-2.28.31-1.76.13-2.57.59-1.87.38-2.67-1.14-1.43-1.37-2.23-.42-1.62-.68-2.41-.94-1.44-1.23-2.22-1.41-1.21-1.73-1.97,1.56-2.52,1.21-3.27-.77-1.56-1.17-2.28-2.25-.66-2.69-1.36.1-2.1-.39-2.76-1.3-1.17-1.83-1.8-1.17-1.25-1.76-1.83-1.33-1.06-1.98-1.58-.85-1.83-1.55-2.27-1.99,0-2.75-.36-1.78.04-2.58-.23-1.27-1.61-2.1-1.79-.98.57-1.83.49c-.42,1.17-1.05.97-1.05,2.21s1.46,1.24,1.46,2.48-.01,1.24-.01,2.48-.49,1.24-.49,2.48-.11,1.24-.11,2.48-.93,1.24-.93,2.48.56,1.24.56,2.48-1.39,1.24-1.39,2.48.25,1.24.25,2.48,1.05,1.24,1.05,2.48-.5,1.24-.5,2.48,1.31,1.24,1.31,2.48-1.94,1.24-1.94,2.48,1.54,1.24,1.54,2.48-1.4,1.24-1.4,2.48-.36,1.24-.36,2.48,1.35,1.24,1.34,2.48-1.17,1.24-1.17,2.48,1.7,1.24,1.7,2.48-1.89,1.24-1.89,2.48,1.64,1.24,1.64,2.48-1.4,1.24-1.4,2.48,1.7,1.24,1.7,2.48-.68,1.24-.68,2.48,0,1.24,0,2.48-1.23,1.24-1.23,2.48,1.25,1.24,1.25,2.48-.77,1.24-.77,2.48.43,1.24.43,2.48.57,1.24.57,2.48-.02,1.24-.02,2.48.76,1.24.76,2.48-1.35,1.24-1.35,2.48.56,1.24.56,2.48-.51,1.24-.51,2.48.54,1.24.54,2.48-.75,1.24-.75,2.48.55,1.24.55,2.48-.18,1.24-.18,2.48,1.05,1.24,1.05,2.48-.78,1.24-.78,2.48.38,1.24.38,2.48.22,1.24.22,2.48.34,1.24.34,2.48-.67,1.24-.68,2.48.23,1.24.23,2.49-1.49,1.24-1.49,2.48,1.4,1.24,1.4,2.49-.82,1.24-.82,2.49.63,1.24.62,2.48-.89,1.24-.89,2.48,1.06,1.24,1.06,2.49-1.1,1.24-1.11,2.49,1,1.24,1,2.49-1.37,1.25-1.37,2.49.44,1.25.44,2.49c0,.81-.76,1.5-.82,2.28s.28,1.56.15,2.34-.33,1.49-.52,2.26,1.52,2.09,1.28,2.84-2.73.72-3.02,1.46.74,2.13.42,2.85c-.6.2-1.48,1.05-2.27,1.12-.7.07-1.55-.69-2.27-.73s-2.03.32-2.68.16Z"/>
  </g>
  <g>
    <path class="cls-1" d="M55.56,255.65c-.29.5.03,1.77-.92,1.89-.73.09-1.63.03-2.38-.08-.91-.13-1.81-.6-2.24-.95-.37-.67.39-1.88.08-2.62s-1.2-1.15-1.44-1.91-.93-1.36-1.11-2.13.05-1.6-.06-2.38-.76-1.5-.82-2.28-.51-1.6-.51-2.38c0-1.24,1.96-1.24,1.96-2.48s-.3-1.24-.3-2.47-.85-1.24-.85-2.47.54-1.24.54-2.47-1.37-1.24-1.37-2.47,1.53-1.24,1.53-2.47-.28-1.24-.28-2.47-.63-1.24-.63-2.48-.88-1.24-.88-2.48,1.12-1.24,1.12-2.48.21-1.24.2-2.48-.17-1.24-.17-2.48-.62-1.24-.62-2.47,1.79-1.24,1.79-2.48-.87-1.24-.87-2.48-.23-1.24-.23-2.48-.54-1.24-.54-2.48-.84-1.24-.84-2.48,1.43-1.24,1.43-2.48.77-1.24.77-2.48-.42-1.24-.42-2.48-.8-1.24-.8-2.48-.65-1.24-.65-2.48.3-1.24.3-2.48.66-1.24.66-2.48-.21-1.24-.21-2.48-.38-1.24-.38-2.48,1.55-1.24,1.55-2.48-.84-1.24-.84-2.48-1.02-1.24-1.02-2.48-.42-1.24-.42-2.48,1.38-1.24,1.38-2.48-.21-1.24-.21-2.48.85-1.24.85-2.48-.02-1.24-.02-2.48-1.01-1.24-1.01-2.47.18-1.24.17-2.47-.09-1.24-.09-2.48.7-1.24.7-2.48-1.18-1.24-1.18-2.48,1.67-1.24,1.67-2.48-.37-1.24-.37-2.48.46-1.24.46-2.48-1.05-1.24-1.05-2.48.47-1.24.47-2.48-.01-1.24-.01-2.48.56-1.24.56-2.48-.04-1.24-.04-2.48-2.2-1.24-2.2-2.48,1.73-1.24,1.72-2.48.46-1.24.46-2.48-.08-1.24-.08-2.48-1.2-1.24-1.2-2.48.83-1.24.83-2.48.67-1.24.67-2.49-1.87-.97-2.27-2.15c-.83.06-.53.55-1.31.68s-1.65-.07-2.42.13-1.73-.05-2.49.23-1.93-.15-2.65.22-.86,1.88-1.54,2.32-1.61.56-2.24,1.07-.55,1.81-1.14,2.37-2.53-.16-3.07.46.64,2.61.14,3.27-1.55.84-2,1.53-1.61.93-2.02,1.64-.97,1.36-1.34,2.1.65,2.1.32,2.85-.81,1.4-1.1,2.16-2.1.97-2.37,1.75,1.15,2.09.91,2.88-.18,1.62-.39,2.41-2.22,1.11-2.41,1.9,1.23,1.95,1.05,2.75-1.34,1.38-1.5,2.19-.17,1.63-.3,2.44-.48,1.58-.6,2.39-.62,1.57-.73,2.38-.27,1.63-.36,2.44.25,1.68.16,2.49-.4,1.62-.47,2.42-.64,1.61-.7,2.41-.03,1.65-.08,2.46,1.86,1.75,1.82,2.55c-.06,1.21-1.23,1.15-1.29,2.36s.09,1.21.03,2.42.64,1.24.58,2.45-1.65,1.13-1.71,2.33-.22,1.2-.28,2.41.47,1.23.41,2.44.12,1.22.05,2.42,1.6,1.29,1.54,2.5-2.27,1.09-2.33,2.3.09,1.21.02,2.42,1.8,1.3,1.74,2.51-2.02,1.11-2.08,2.32.59,1.24.53,2.45,1.25,1.28,1.19,2.49-1.45,1.15-1.49,2.36-.86,1.23-.89,2.47,2.27,1.3,2.24,2.54-2.29,1.19-2.32,2.43,1.71,1.28,1.68,2.52.13,1.25.1,2.49-1.74,1.2-1.77,2.44.15,1.25.12,2.49-.5,1.23-.53,2.47.87,1.26.84,2.5-.77,1.22-.8,2.46,1.48,1.28,1.44,2.52-1.74,1.2-1.77,2.44.68,1.26.65,2.5-.59,1.23-.62,2.48,1.38,1.28,1.35,2.53c-.02.81-.11,1.66-.17,2.5s-.97,1.57-1.08,2.39.85,1.85.68,2.64c-.18.86.15,1.93-.1,2.67-.3.87-.94,1.8-1.36,2.4-.54.78-1.68,1.92-2.44,2.09-.9.2-1.81-1.33-2.52-1.62s-1.28-.62-1.83-1.32c-.46-.58-.8-1.25-1.15-2.07-.3-.7.31-1.67.08-2.51-.21-.75-2.09-1.13-2.25-1.96-.15-.77-.57-1.57-.67-2.4s1.33-1.77,1.26-2.6.33-1.62.29-2.45-1.96-1.53-1.99-2.35.82-1.66.8-2.47S0,226.01,0,225.2s1.87-1.63,1.88-2.43-.4-1.66-.38-2.45c.02-.85.2-1.66.22-2.44.03-.86-1.42-1.73-1.4-2.49.03-.82,1.36-1.6,1.39-2.42s-.13-1.65-.1-2.47.88-1.61.91-2.43-1.55-1.7-1.52-2.52.09-1.64.12-2.46,1.5-1.58,1.53-2.4.25-1.63.29-2.45-2.01-1.73-1.97-2.55,2.13-1.54,2.17-2.36-.07-1.64-.03-2.46-.17-1.65-.13-2.47-1.27-1.71-1.22-2.53.87-1.59.92-2.41-.49-1.67-.44-2.49-.31-1.66-.25-2.48,2.16-1.5,2.22-2.32-1.88-1.77-1.82-2.59.88-1.58.94-2.4.66-1.59.72-2.41-.31-1.67-.24-2.48-.43-1.68-.36-2.5-.39-1.68-.32-2.5,1.57-1.51,1.65-2.32-.38-1.68-.3-2.5.02-1.65.1-2.46.36-1.61.44-2.43-.06-1.66.02-2.47.64-1.58.74-2.4-.59-1.73-.48-2.55,1.98-1.37,2.1-2.19-1.43-1.89-1.3-2.7.57-1.58.72-2.39,1.4-1.4,1.56-2.2-1.22-1.95-1.04-2.75.59-1.57.79-2.37.52-1.58.73-2.37.13-1.69.37-2.48,1.63-1.22,1.89-2,1.31-1.27,1.58-2.05-.67-2-.37-2.76,1.03-1.36,1.36-2.11.2-1.72.55-2.46-.1-1.93.28-2.65,1.47-1.11,1.88-1.82.43-1.72.87-2.4,2.6-.22,3.08-.88-.26-2.26.26-2.9,1.51-.89,2.07-1.49,1.11-1.22,1.71-1.78,1.81-.36,2.45-.88.03-2.74.71-3.2,1.81-.34,2.52-.74,1.55-.65,2.3-.99,1.69-.2,2.47-.48,1.68.04,2.49-.17,1.34-1.46,2.16-1.6,1.58-.92,2.41-1,1.7-.08,2.54-.1,1.55.98,2.39,1.02c.41-1.32.82-1.35.82-2.72s-1.54-1.38-1.54-2.76,1.84-1.38,1.84-2.76.65-2.4-.27-3.42c-.87-.97-2.06.88-3.37.8s-1.36.8-2.67.72-1.23-1.4-2.54-1.48c-.8-.05-1.61.12-2.4,0s-1.65.04-2.43-.14-1.43-.89-2.19-1.12-1.29-1.02-2.03-1.32-2,.55-2.71.19-1.35-.94-2.02-1.37-1.23-1.06-1.87-1.55-1.36-.89-1.95-1.44-1.43-.9-1.96-1.49-.92-1.47-1.43-2.14.21-2.15-.24-2.86-.84-1.36-1.24-2.1-1.28-1.17-1.64-1.94-.04-1.75-.35-2.54-1.31-1.26-1.58-2.06-1.47-1.3-1.71-2.11.93-1.97.73-2.79-.76-1.52-.93-2.35-1.02-1.52-1.15-2.35-.25-1.67-.36-2.5.45-1.74.37-2.57.51-1.71.45-2.54-1.78-1.57-1.82-2.41,1.35-1.73,1.34-2.56-.15-1.66-.15-2.5-1.68-1.71-1.66-2.55.5-1.69.54-2.52,1.59-1.59,1.65-2.42-1.26-1.8-1.18-2.62.99-1.59,1.09-2.41.9-1.57,1.01-2.39c.11-.76-1.07-1.77-.87-2.49s1.88-.92,2.18-1.59c.34-.74-1-2.42-.58-2.99.5-.68,1.49-1.25,2.08-1.6.7-.41,1.56.95,2.31,1.17.67.19.71.4,1.23,1.18.39.59.39,1.22.7,2.05.26.7.77,1.26.98,2.08.19.74,0,1.54.15,2.34s.46,1.48.58,2.28,2.52,1.3,2.61,2.09-1,1.74-.93,2.51c.07.83-.78,1.68-.74,2.43.04.8,1.5,1.53,1.54,2.33s-1.11,1.67-1.07,2.46.07,1.61.12,2.4,1.5,1.51,1.55,2.31-.54,1.64-.48,2.44.98,1.52,1.05,2.31-.91,1.7-.82,2.49-.79,1.72-.68,2.52,2.31,1.28,2.44,2.07-1.81,1.94-1.66,2.73,1.06,1.44,1.23,2.22.91,1.43,1.11,2.21c.21.84.23,1.68.51,2.4.32.8.08,1.9.49,2.56.45.73,2.06.51,2.6,1.09.57.61.23,2.26.9,2.72s2.27-.83,3.03-.5.73,2.88,1.54,3.09,1.91-.96,2.74-.84c.79.11,1.6.12,2.44.17s1.61.24,2.44.24,1.62-.06,2.46-.09,1.06-.19,1.89-.23c.39-1.15.41-1.02.41-2.23s1.25-1.21,1.25-2.42-1.68-1.22-1.68-2.43.13-1.21.13-2.43-.47-1.21-.47-2.43.72-1.21.73-2.42.36-1.21.36-2.43-1.29-1.22-1.29-2.43,1.21-1.21,1.21-2.43.1-1.21.1-2.43.04-1.21.04-2.43-.83-1.22-.83-2.43-.09-1.21-.09-2.43.68-1.21.68-2.43,1.31-1.21,1.31-2.42-.18-1.21-.18-2.43.23-1.21.24-2.43-1-1.22-1-2.43-.42-1.22-.41-2.43-.39-1.22-.39-2.44,1.04-1.22,1.04-2.43c0-.82.82-1.6.88-2.48s-.39-1.69-.28-2.54-.29-1.77-.11-2.59c.19-.86-.49-1.98-.22-2.76.29-.86.84-1.7,1.23-2.39.46-.81,1.73-.92,2.34-1.4C52.03,1.28,52.6-.01,53.49,0s1.43,1.3,2.12,1.86c.6.49,2.43.3,2.89,1.1.39.69-.95,2.31-.66,3.16.27.77,1.46,1.31,1.66,2.17s.61,1.66.73,2.51-1.26,1.85-1.2,2.69,2.17,1.67,2.18,2.49c0,1.21-.54,1.21-.53,2.42s.05,1.21.06,2.42-1.32,1.21-1.32,2.43.77,1.21.78,2.42.5,1.21.51,2.42-1.5,1.21-1.5,2.43,1.9,1.21,1.9,2.42-1.81,1.22-1.81,2.43,1.03,1.21,1.03,2.42.46,1.21.46,2.42-1.78,1.22-1.78,2.43.68,1.21.68,2.42-.42,1.21-.42,2.43,1.26,1.21,1.27,2.42-.8,1.21-.8,2.42,1.25,1.21,1.25,2.42.12,1.21.12,2.43-1.98,1.22-1.97,2.43,1.94,1.21,1.94,2.42-.44,1.22-.44,2.43-.11,1.01.28,2.16c.84.08.85.26,1.64.3.85.04,1.63-.8,2.41-.83.85-.03,1.62.42,2.4.31.83-.11,1.61-.09,2.37-.31s1.23-1.04,1.95-1.4,2.42.77,3.07.26.73-1.7,1.28-2.35c.51-.59,1.06-1.23,1.51-1.96.41-.66-.31-1.93.06-2.71s.97-1.43,1.27-2.27,2.17-1.22,2.39-2.09.65-1.77.8-2.65-1.52-2.03-1.41-2.92,1.07-1.68,1.14-2.57-.18-1.8-.13-2.69c.08-1.31-.86-1.36-.79-2.67s1.5-1.22,1.57-2.53,0-1.31.08-2.61.01-1.31.09-2.61-.45-1.34-.37-2.64.95-1.25,1.03-2.56-.46-1.34-.38-2.65,1.01-1.25,1.09-2.56-2.07-1.44-1.99-2.75c.04-.68,1.82-1.23,1.99-1.99.16-.7.78-1.21,1.02-1.92s-.25-1.64.04-2.29c.32-.71,1.37-.93,1.71-1.52.26-.44.27-.63,1.15-.79s1.69-.95,2.12-.7c.67.39.61,1.48,1.11,2.14.46.6,1.86.67,2.19,1.44.3.7,1.35,1.3,1.57,2.11.2.74-2.09,2.07-1.95,2.88s1.09,1.39,1.18,2.19,1.42,1.48,1.47,2.28-1.64,1.69-1.6,2.49,1.54,1.56,1.56,2.34c.02.82-1.63,1.65-1.62,2.41.01.85.95,1.69.94,2.54s-.9,1.68-.92,2.53-.2,1.68-.23,2.52,1.45,1.77,1.4,2.62-1.55,1.58-1.63,2.42-.25,1.65-.35,2.5.79,1.8.66,2.64-1.28,1.49-1.43,2.32,1.3,1.99,1.12,2.82-.03,1.77-.24,2.59-.82,1.56-1.07,2.37-.19,1.75-.48,2.56-1.54,1.25-1.86,2.04.61,2.15.25,2.89-2.85.35-3.27,1.05-.87,1.31-1.36,1.97.85,2.81.31,3.43-1.49,1.01-2.09,1.57-1.62.74-2.28,1.25-1.1,1.4-1.8,1.84-1.93,0-2.67.38-1.68.15-2.46.45-1.14,1.75-1.95,1.97-1.56.9-2.38,1.05-1.86-1.52-2.7-1.45-1.58.98-2.42.97-1.64-.17-2.48-.25-.92.22-1.75.07c-.41,1.09-1.48.89-1.48,2.06s1.59,1.17,1.59,2.34.34,1.17.34,2.34-.14,1.17-.14,2.34-.86,1.03-.46,2.13c.84-.05,1.07.41,1.88.42s1.77-1.31,2.57-1.23,1.41,1.94,2.2,2.09,1.84-.66,2.62-.44,1.51.76,2.26,1.06,1.22,1.24,1.94,1.62,1.93-.07,2.62.37.65,1.9,1.3,2.4,1.92.23,2.53.78,1.39.96,1.96,1.56,1,1.33,1.53,1.97,1.69.82,2.17,1.5-.58,2.38-.14,3.08,1.78.83,2.19,1.54.92,1.39,1.29,2.12.33,1.67.68,2.42-.03,1.79.29,2.55,1.71,1.07,2.01,1.84.62,1.53.89,2.31-1.12,2.09-.86,2.88,2.64.9,2.87,1.69-1.41,2.1-1.2,2.89,1.04,1.42,1.23,2.21,1.82,1.27,2.01,2.07-1.15,1.94-.98,2.74.25,1.62.4,2.42,1.25,1.45,1.39,2.25-.16,1.7-.03,2.51.88,1.54,1,2.34-1.39,1.86-1.28,2.66.25,1.62.35,2.42,1.59,1.48,1.68,2.28-.05,1.68.03,2.5-1.21,1.79-1.13,2.61,1.67,1.51,1.74,2.33-.64,1.72-.57,2.55.06,1.66.13,2.48,1.69,1.53,1.75,2.36-1.13,1.75-1.07,2.58,1.11,1.59,1.17,2.41-1.19,1.74-1.14,2.57,1.55,1.57,1.6,2.4-2.09,1.78-2.04,2.61,0,1.66.05,2.48,1.83,1.57,1.87,2.39-.9,1.7-.86,2.53-.04,1.66,0,2.49.36,1.64.39,2.47.2,1.65.23,2.48-1.05,1.69-1.02,2.52.33,1.64.36,2.47.38,1.64.41,2.47,1.66,1.61,1.69,2.43-1.42,1.7-1.39,2.53.16,1.65.19,2.48.28,1.65.3,2.48,1.15,1.63,1.18,2.46-.52,1.68-.5,2.51c.02.76.77,1.57.79,2.45.02.79-.43,1.63-.41,2.49.02.8-.71,1.64-.7,2.49s-1.03,1.63-1.04,2.47,2.24,1.67,2.23,2.5-1.23,1.63-1.26,2.45.51,1.69.46,2.51-1.63,1.54-1.71,2.35-.39,1.6-.49,2.4c-.11.84-.07,1.63-.21,2.41-.16.85-.25,1.6-.45,2.36-.23.85,1.42,2.29,1.13,3-.34.83-2.16.84-2.6,1.44-.53.73-.42,2.22-1.12,2.54s-1.95.62-2.85.45c-.79-.15-1.72-1.2-2.28-2.01-.44-.63-.44-1.69-.76-2.59-.26-.76-.55-1.6-.74-2.48-.17-.82-.13-1.71-.23-2.58s0-1.73-.05-2.58-.57-1.74-.57-2.57-.68-1.64-.69-2.46,1.6-1.65,1.6-2.47-1.89-1.64-1.89-2.46,2.25-1.66,2.24-2.48-.6-1.64-.61-2.46-1.44-1.63-1.45-2.45.58-1.65.57-2.47-.46-1.64-.47-2.46,1.17-1.66,1.16-2.48.54-1.66.53-2.48.04-1.65.02-2.47-.9-1.62-.92-2.45-.78-1.62-.8-2.44.24-1.65.22-2.47-.08-1.64-.11-2.46-.59-1.62-.62-2.44.73-1.67.71-2.49.52-1.66.5-2.48.15-1.65.12-2.47-.39-1.63-.42-2.45-.48-1.62-.52-2.44-.84-1.61-.88-2.43.08-1.65.05-2.47.56-1.67.52-2.49.13-1.65.09-2.47-.35-1.63-.4-2.45,1.03-1.7.99-2.52-1.16-1.58-1.21-2.4.26-1.66.21-2.48-1.63-1.55-1.68-2.37,1.23-1.7,1.17-2.53.81-1.69.74-2.52-1.73-1.48-1.81-2.31,1.04-1.74.95-2.56-1.31-1.49-1.41-2.31-.44-1.58-.55-2.39.53-1.72.41-2.53.84-1.8.71-2.61-2.46-1.22-2.61-2.03.73-1.8.56-2.6-1.52-1.32-1.71-2.12,1.76-2.13,1.55-2.92-.45-1.61-.68-2.39-.92-1.46-1.18-2.23-.65-1.53-.93-2.29-.68-1.52-1-2.26.02-1.86-.33-2.59-.94-1.43-1.33-2.14-2.6-.36-3.03-1.04.98-2.68.5-3.33-1.89-.65-2.42-1.26-1.94-.34-2.53-.9-.34-2.04-.99-2.54-1.84-.16-2.54-.59-.89-1.71-1.64-2.06-1.34-1.17-2.13-1.44-2.02,1.27-2.84,1.09-.3-.93-1.13-1.03c-.41,1.17.11.87.11,2.1s-.63,1.24-.63,2.47-.77,1.24-.77,2.47-.97,1.24-.97,2.47.73,1.24.73,2.47,1.36,1.24,1.36,2.48-1.51,1.24-1.51,2.47-.6,1.24-.6,2.48.19,1.24.19,2.48,1.17,1.24,1.17,2.48-1.28,1.24-1.28,2.48-.12,1.24-.12,2.48.49,1.24.49,2.48,1.62,1.24,1.62,2.48-1.71,1.24-1.72,2.48,1.51,1.24,1.51,2.48.53,1.24.53,2.48-.49,1.24-.49,2.48-.66,1.24-.66,2.48-.59,1.24-.59,2.48,1.52,1.24,1.51,2.48-.25,1.24-.25,2.48-1.19,1.24-1.19,2.48.36,1.24.36,2.48.6,1.24.6,2.48-1.18,1.24-1.18,2.48,1.2,1.24,1.2,2.48.6,1.24.6,2.48-2.1,1.24-2.1,2.48.06,1.24.06,2.48,1.85,1.24,1.85,2.48-.95,1.24-.95,2.48-1.23,1.24-1.23,2.48.08,1.24.08,2.48,1.67,1.24,1.67,2.48-1.74,1.24-1.74,2.47.56,1.24.56,2.48,1.26,1.24,1.26,2.48-.74,1.24-.74,2.48-.82,1.24-.82,2.48,2.2,1.24,2.2,2.48-.04,1.24-.04,2.48-1.4,1.24-1.4,2.48.94,1.24.94,2.48.27,1.24.27,2.48.07,1.24.07,2.48-1.45,1.24-1.45,2.48,1.54,1.24,1.54,2.48-.53,1.24-.53,2.48-.97,1.24-.97,2.48-.15,1.24-.15,2.48.27,1.24.27,2.48,1.3,1.24,1.3,2.48-1.29,1.24-1.29,2.48,1.03,1.24,1.03,2.49-2.1,1.24-2.1,2.49c0,.79,1.31,1.57,1.26,2.35s.68,1.69.57,2.46-1.95,1.22-2.13,1.98.15,1.61-.11,2.35-.58,1.41-.91,2.13-1.45.91-1.85,1.59Z"/>
    <path class="cls-1" d="M166.38,257.31c-.35-.74.54-2.33.24-3.06s-2.42-.84-2.67-1.6-.5-1.63-.69-2.41.32-1.77.19-2.57-.56-1.6-.63-2.41.28-1.66.28-2.48c0-1.24-.34-1.24-.34-2.48s.09-1.24.09-2.48.19-1.24.19-2.48.69-1.24.69-2.48,1-1.24,1-2.48-.8-1.24-.8-2.48.18-1.24.18-2.48-1.5-1.24-1.5-2.48,1.54-1.24,1.54-2.48.48-1.24.48-2.48-2.07-1.24-2.07-2.48-.16-1.24-.16-2.48.72-1.24.72-2.48.72-1.24.72-2.48-1.4-1.24-1.4-2.48,1.76-1.24,1.75-2.48-1.11-1.24-1.11-2.48-.37-1.24-.38-2.48-.31-1.24-.31-2.48,1.02-1.24,1.02-2.48-1.15-1.24-1.15-2.48.87-1.24.87-2.48.26-1.24.26-2.48.64-1.24.64-2.48-.25-1.24-.25-2.48-.63-1.24-.64-2.48.87-1.24.87-2.48.24-1.24.24-2.48-.69-1.24-.69-2.48.15-1.24.15-2.48-.29-1.24-.29-2.48.15-1.24.15-2.48-.71-1.24-.71-2.48,1.08-1.24,1.08-2.48.56-1.24.56-2.48-2.24-1.24-2.24-2.48,1.97-1.24,1.97-2.48,0-1.24,0-2.48-.31-1.24-.31-2.48.79-1.24.78-2.48-2.25-1.24-2.25-2.48-.18-1.24-.18-2.48.59-1.24.59-2.48.13-1.24.13-2.48.75-1.24.75-2.48.1-1.24.1-2.49.57-1.24.57-2.48-1.28-1.24-1.28-2.48-.74-1.24-.74-2.49.17-1.24.17-2.48.76-1.24.76-2.48.58-1.24.58-2.49-1.57-1.24-1.57-2.49,2.09-1.24,2.09-2.49-1.2-1.25-1.2-2.49.55-1.29.14-2.47c-.84.07-1.41,1.21-2.2,1.35s-1.57.16-2.35.37-1.68-.01-2.44.29-2.23-.81-2.96-.44-1.34,1.19-2.03,1.64-.92,1.61-1.56,2.13-.86,1.47-1.45,2.05-1.79.56-2.33,1.19-1.02,1.32-1.51,1.98-.47,1.66-.92,2.37-.17,1.76-.57,2.49-1.21,1.17-1.57,1.92-.57,1.51-.9,2.27-1.09,1.31-1.38,2.09.19,1.79-.08,2.57-1.27,1.3-1.5,2.09-.53,1.56-.74,2.35-1.43,1.35-1.62,2.15,1.65,2.05,1.47,2.86-1.93,1.29-2.08,2.1.41,1.75.28,2.56-.27,1.62-.39,2.44.71,1.75.61,2.57-1.53,1.47-1.62,2.29,1,1.76.92,2.58-1.94,1.49-2.01,2.3.18,1.69.13,2.5.49,1.7.44,2.51.69,1.7.65,2.5c-.06,1.21-.97,1.16-1.03,2.37s-.04,1.21-.11,2.41.57,1.24.51,2.45.28,1.22.22,2.43-1.7,1.12-1.77,2.33,1.67,1.3,1.61,2.5-.93,1.16-.99,2.37-.53,1.18-.59,2.39-.14,1.2-.2,2.41-.32,1.19-.39,2.4-.24,1.2-.3,2.41,1.28,1.28,1.22,2.49-1.76,1.12-1.82,2.33.73,1.25.67,2.46,1.51,1.27,1.47,2.49c-.05,1.28-.15,1.26-.18,2.55s-2.06,1.24-2.09,2.52,1.02,1.31.99,2.59-1.06,1.26-1.09,2.54.13,1.29.1,2.57,1.63,1.32,1.6,2.61-.83,1.27-.87,2.55-.02,1.28-.05,2.56.1,1.29.06,2.57-.93,1.26-.96,2.55,1.79,1.33,1.76,2.62-1.63,1.25-1.66,2.53,1.37,1.32,1.34,2.61-1.69,1.25-1.72,2.54c-.02.84.27,1.7.21,2.59s.58,1.8.48,2.65-.59,1.7-.75,2.53c-.18.9.1,1.91-.15,2.68-.3.91-2.07.95-2.5,1.59-.55.82-.08,3.1-.87,3.27-.92.2-1.57-1.99-2.3-2.29s-1.86.2-2.41-.53c-.45-.6-.82-1.39-1.17-2.23-.3-.72.26-1.74.03-2.6-.2-.77-1.16-1.38-1.31-2.23-.14-.79-1.33-1.49-1.44-2.34s1.17-1.8,1.1-2.65-.31-1.64-.36-2.48.4-1.68.38-2.51-1.85-1.64-1.86-2.47,1.35-1.7,1.36-2.52.5-1.68.51-2.49c.01-.86-1.79-1.74-1.77-2.54.02-.88,2.48-1.65,2.5-2.43.02-.83-.5-1.67-.47-2.5s.5-1.64.53-2.47-.96-1.68-.94-2.51.37-1.64.39-2.47-.1-1.66-.07-2.48.2-1.65.23-2.47-1.22-1.7-1.19-2.52-.22-1.66-.19-2.49-.07-1.66-.04-2.49.88-1.62.91-2.44.04-1.65.08-2.48,1.14-1.6,1.18-2.43-.76-1.69-.72-2.52,1.17-1.59,1.22-2.42-1.14-1.72-1.09-2.54,1.66-1.55,1.71-2.38-.6-1.69-.55-2.51-.89-1.72-.84-2.54-.09-1.66-.03-2.49,1.22-1.57,1.28-2.39-.65-1.71-.58-2.53,1.03-1.57,1.1-2.39-1.27-1.77-1.2-2.59,1.35-1.54,1.43-2.36-.14-1.67-.05-2.49.76-1.58.85-2.4.71-1.58.8-2.4-1.12-1.79-1.02-2.61-.64-1.83-.52-2.68,2.22-1.42,2.35-2.27.38-1.66.53-2.51-1.1-1.95-.94-2.79,1.9-1.36,2.08-2.2.02-1.74.21-2.58.16-1.72.37-2.55-.31-1.86-.08-2.69,1.82-1.26,2.06-2.09-1.06-2.1-.8-2.93.54-1.57.81-2.35.7-1.52.99-2.29,1.71-1.08,2.03-1.84,0-1.78.35-2.53.25-1.72.63-2.45,1.11-1.28,1.52-1.99.37-1.72.81-2.41.59-1.64,1.07-2.31,2.54-.13,3.06-.76.8-1.41,1.36-2.01.53-1.77,1.13-2.33,1.57-.68,2.21-1.19.51-2.11,1.19-2.58,2.19.4,2.91,0,1.28-1,2.04-1.34,1.27-1.22,2.06-1.49,1.36-1.37,2.17-1.57,1.87.72,2.69.58,1.63-.03,2.47-.1,1.61-.28,2.45-.29,1.14-.25,1.99-.2c.41-1.29,1.76-1.21,1.76-2.56s-.87-1.36-.87-2.71-.23-1.36-.23-2.72.5-1.49-.44-2.47-1.22.86-2.61.77-1.31-1.52-2.71-1.61-1.35-.86-2.75-.95c-.85-.06-1.66.28-2.47.16s-1.8.5-2.59.3-1.85.16-2.63-.11-1.52-.89-2.27-1.24-1.21-1.34-1.92-1.76-1.53-.71-2.2-1.21-1.58-.75-2.2-1.3-.11-2.23-.68-2.84-1.71-.65-2.23-1.31-1.84-.74-2.31-1.44-1.29-1.23-1.71-1.96.4-2.13.03-2.89-.9-1.41-1.23-2.18.17-1.83-.12-2.62-.56-1.53-.8-2.33-1.44-1.31-1.65-2.12-.23-1.66-.41-2.48-.43-1.62-.57-2.44.43-1.74.31-2.57-1.38-1.52-1.47-2.35,1.51-1.79,1.46-2.62-.46-1.62-.49-2.45.42-1.65.42-2.48c0-1.41-1.04-1.41-1.04-2.81s.47-1.41.47-2.81,0-1.41,0-2.81c0-.82.58-1.63.62-2.53.04-.84.06-1.66.14-2.53s-2-1.98-1.88-2.83,1.98-1.43,2.16-2.25c.19-.87.83-1.52,1.08-2.3.28-.87.46-1.56.82-2.28.43-.85-.11-2.16.44-2.7.66-.64,1.61-.27,2.47-.34s.74.58,1.39,1.19c.54.51,2.84-.14,3.24.73.32.71.37,1.75.61,2.64.22.78.04,1.74.2,2.61.15.81-.25,1.74-.14,2.6s-.67,1.75-.59,2.61,1.39,1.59,1.45,2.44-.33,1.74-.3,2.57c.04.88,1.11,1.7,1.14,2.5.05,1.3-1.85,1.36-1.81,2.66s2.22,1.22,2.26,2.52-.72,1.33-.67,2.63-.82,1.33-.78,2.63c.03.83-.13,1.69-.08,2.52s1.6,1.55,1.68,2.38-.03,1.65.07,2.48-1.37,1.9-1.23,2.72,2.03,1.29,2.22,2.1.67,1.49.9,2.29-1.27,2.17-.98,2.95c.31.84,2.15.93,2.54,1.63.43.77.04,2.01.56,2.63.56.66,1.29,1.18,1.95,1.68s1.32,1.17,2.08,1.53,1.48,1.05,2.3,1.3,1.69.49,2.54.63,1.75-.19,2.61-.13,1.68.34,2.54.35,1.71.51,2.56.49,2.63-.84,3.49-.88c.4-1.14-1.9-1.56-1.9-2.77s1.17-1.21,1.17-2.42-.14-1.21-.14-2.43-.7-1.21-.69-2.43,1.59-1.21,1.6-2.42.16-1.21.17-2.43-.53-1.22-.53-2.43-.17-1.21-.17-2.43-1.66-1.22-1.66-2.43,2.21-1.21,2.22-2.42-.14-1.22-.14-2.43-1.86-1.22-1.85-2.43,1.96-1.21,1.97-2.42-.65-1.22-.65-2.43-1.31-1.22-1.31-2.43,1.37-1.21,1.38-2.42.83-1.21.83-2.43-2.3-1.22-2.3-2.44,2.26-1.21,2.26-2.43-1.73-1.22-1.73-2.44-.16-1.22-.15-2.44c0-.82,1.74-1.61,1.81-2.49s-.04-1.66.08-2.51.72-1.54.9-2.36-.46-1.85-.2-2.63c.3-.86,1.26-1.23,1.65-1.92.46-.81-.22-2.36.38-2.85.68-.56,1.74.73,2.62.73s1.3-.52,1.98.04c.6.49.51,1.29.97,2.1.39.69,1.98.84,2.27,1.7.27.78.46,1.65.65,2.51s-.49,1.8-.37,2.66,1.3,1.59,1.37,2.43.69,1.77.69,2.59c0,1.27-.18,1.27-.18,2.53s.26,1.27.27,2.54-1.52,1.27-1.51,2.54.11,1.27.11,2.53-.02,1.27-.02,2.54-.88,1.27-.88,2.54,1.76,1.26,1.76,2.53.29,1.27.3,2.54-1.53,1.27-1.52,2.54-.46,1.27-.46,2.54,1.88,1.26,1.89,2.53-.86,1.27-.85,2.54,1.24,1.27,1.25,2.54-1.85,1.27-1.85,2.54.43,1.27.44,2.54-.15,1.27-.15,2.54,1.48,1.27,1.48,2.54-1.3,1.27-1.3,2.55.19,1.27.19,2.55-1.15,1.6-.77,2.82c.82.1,2.53-.81,3.3-.75.83.06,1.58.12,2.35.12.83,0,1.71,1.4,2.47,1.32.82-.08,1.77-.06,2.52-.24.79-.2.83-2.4,1.55-2.74s2.44,1.01,3.09.52c.61-.47,1.21-1.23,1.77-1.85.5-.57.84-1.44,1.3-2.15.41-.64-.39-1.98-.01-2.74s1.39-1.15,1.68-1.91-.02-1.7.2-2.49,0-1.62.17-2.43,2.33-1.26,2.45-2.07-1.77-1.86-1.69-2.68.91-1.55.97-2.37.65-1.6.69-2.42c.08-1.27-.36-1.3-.28-2.57s-.48-1.3-.41-2.57-.45-1.3-.37-2.57,1.51-1.18,1.58-2.45-.46-1.3-.38-2.57-.06-1.28.02-2.55.27-1.26.35-2.53-.16-1.29-.08-2.56.54-1.25.62-2.52c.04-.68-.63-1.59-.45-2.36.16-.7,2.06-.93,2.3-1.64s-1.08-2.01-.8-2.66c.32-.72.94-1.32,1.28-1.9.26-.45,1.61.08,2.48-.08s2.13-1.61,2.55-1.36c.67.39,1.36,1.31,1.86,1.97.46.6.83,1.49,1.17,2.27.3.7.9,1.45,1.12,2.25.2.74-.8,1.82-.65,2.63s-.59,1.64-.49,2.44,1.47,1.44,1.53,2.24-.35,1.62-.32,2.42.57,1.59.59,2.37c.02.82.97,1.61.98,2.38.01.81-.74,1.64-.75,2.45s.5,1.65.47,2.45-2.1,1.53-2.14,2.34,1.46,1.72,1.39,2.52-.72,1.56-.81,2.37-.15,1.61-.26,2.41-1.17,1.44-1.32,2.23,1.82,2.01,1.65,2.8-1.04,1.45-1.23,2.24-.56,1.54-.79,2.32-.92,1.41-1.18,2.18-1.06,1.32-1.34,2.08.45,1.91.13,2.66-.04,1.78-.38,2.52-.76,1.47-1.14,2.19-1.57,1-1.98,1.71-1.51.91-1.96,1.56.28,2.24-.23,2.84-2.4-.05-2.96.51-1.08,1.04-1.7,1.54-.48,1.99-1.14,2.43-.98,1.63-1.68,2-2.03-.49-2.77-.19-1.41.77-2.19.99-1.5.68-2.29.81-1.64-.3-2.45-.24-1.55-.5-2.35-.53-1.68,1.2-2.48,1.1-1.12-.68-1.91-.86c-.4,1.11-.18,1.04-.18,2.22s.16,1.18.16,2.36.35,1.18.35,2.36-.25,1.18-.25,2.36-1.77,1.6-1.36,2.7c.85-.06,2.6.54,3.41.54s1.66-.55,2.47-.47,1.51.85,2.32,1.01,1.76-.41,2.55-.18,1.95-.42,2.71-.11.94,1.95,1.67,2.34,1.62.45,2.32.9,1.79.37,2.45.89,1.3,1.09,1.91,1.67.72,1.63,1.29,2.25.57,1.64,1.1,2.3,2.35.3,2.84.99-.24,2.16.2,2.87.96,1.33,1.37,2.06,2.3.67,2.68,1.42.35,1.72.7,2.48-.69,2.11-.37,2.89,1.92,1.02,2.22,1.81-.2,1.85.07,2.64-.13,1.78.12,2.58,1.8,1.19,2.03,1.99-1,2-.79,2.81,2.37,1.12,2.57,1.93.13,1.7.31,2.51-1.24,1.97-1.08,2.79.27,1.64.42,2.45.03,1.68.17,2.49.58,1.59.71,2.4-.12,1.7,0,2.51.42,1.62.52,2.44,2.51,1.39,2.6,2.21-.98,1.78-.89,2.61-.72,1.74-.64,2.57,1.57,1.51,1.65,2.34-1.04,1.76-.96,2.59.13,1.65.2,2.48,1.53,1.54,1.6,2.37-.53,1.71-.47,2.53.96,1.6,1.02,2.43-.96,1.73-.9,2.55-.88,1.71-.83,2.54,2.21,1.54,2.25,2.37-2.01,1.77-1.97,2.59.85,1.62.89,2.44.65,1.63.68,2.46-.17,1.67-.14,2.5-.64,1.68-.61,2.51,1.48,1.61,1.51,2.43-1.43,1.71-1.41,2.54,1.96,1.6,1.98,2.43-2.39,1.73-2.36,2.56,1.41,1.62,1.43,2.45.12,1.65.14,2.48-.11,1.66-.09,2.49.1,1.66.12,2.49.58,1.65.6,2.48-.4,1.67-.38,2.5c.02.74-1.2,1.58-1.18,2.44.02.76,1.72,1.53,1.74,2.36.02.78-.09,1.59-.08,2.41s.5,1.59.5,2.41-.72,1.6-.72,2.41-.37,1.6-.39,2.4,1.24,1.66,1.21,2.46-1.29,1.56-1.34,2.35-.21,1.61-.29,2.39-.21,1.61-.32,2.38c-.11.82.57,1.76.42,2.52-.16.82-.26,1.69-.47,2.42-.23.82-1.15,1.41-1.44,2.1-.34.81-1.78.74-2.22,1.32-.53.7-.59,1.01-1.27,1.32s-.82.11-1.7-.05c-.79-.14-1.47.41-2.03-.42-.43-.63-1.17-1.23-1.48-2.14-.26-.77-.88-1.55-1.07-2.44-.17-.82.7-1.86.59-2.74s.61-1.75.55-2.61-.61-1.69-.61-2.52-.56-1.67-.56-2.51-.95-1.67-.96-2.51.16-1.67.15-2.51.94-1.68.93-2.52-1.08-1.66-1.09-2.5,1.02-1.69,1.01-2.52-1.6-1.65-1.61-2.49,1.86-1.7,1.85-2.54-1.04-1.66-1.05-2.49-.3-1.67-.31-2.5,1.45-1.7,1.43-2.54-2.12-1.62-2.14-2.46.5-1.68.48-2.52-.1-1.67-.12-2.5,1.28-1.71,1.25-2.55-.82-1.65-.85-2.48-.55-1.65-.58-2.49,1.44-1.72,1.41-2.56-1.96-1.6-1.99-2.43,1.75-1.74,1.71-2.58-1.09-1.63-1.13-2.46-.53-1.65-.57-2.48,1.7-1.75,1.66-2.59-.75-1.64-.79-2.47.34-1.69.3-2.53-1.35-1.6-1.39-2.44.71-1.71.67-2.55-1.34-1.6-1.39-2.43-.21-1.66-.26-2.5,1.87-1.8,1.82-2.63-2.04-1.51-2.1-2.36.32-1.67.25-2.51-.46-1.61-.54-2.45.54-1.72.45-2.55-1.03-1.54-1.14-2.37.28-1.7.16-2.53-.06-1.67-.2-2.49-.86-1.53-1.01-2.35,1.54-2,1.37-2.81-1.13-1.48-1.32-2.29-.33-1.64-.53-2.45-1.63-1.27-1.86-2.07-.17-1.67-.43-2.45,1.06-2.14.78-2.92-.39-1.7-.7-2.46-2.32-.82-2.67-1.57.06-1.9-.33-2.63-1.09-1.32-1.52-2.02-1.67-.85-2.16-1.52.12-2.2-.42-2.83-1.19-1.23-1.79-1.8-1.3-1.11-1.95-1.63-1.64-.57-2.35-1.01-1.04-1.62-1.79-1.98-1.76-.19-2.56-.46-1.4-1.4-2.23-1.58-.82,1.1-1.67,1.01c-.42,1.17-1.62.88-1.62,2.12s-.46,1.24-.46,2.48.8,1.24.79,2.48-.84,1.24-.84,2.48.38,1.24.38,2.48.82,1.24.82,2.48-.85,1.24-.86,2.48,1.2,1.24,1.2,2.48.8,1.24.8,2.48-2.52,1.24-2.52,2.48.86,1.24.86,2.48,1.26,1.24,1.26,2.48-1.73,1.24-1.74,2.48,1.49,1.24,1.49,2.48-1.66,1.24-1.66,2.48.93,1.24.93,2.48-.89,1.24-.89,2.48-.15,1.24-.15,2.48,1.53,1.24,1.53,2.48-1.44,1.24-1.44,2.48-.09,1.24-.09,2.48,1.01,1.24,1.01,2.48-1.03,1.24-1.03,2.48,1.66,1.24,1.66,2.48.37,1.24.37,2.48-.38,1.24-.38,2.48.35,1.24.34,2.48-1.02,1.24-1.02,2.48,1.4,1.24,1.4,2.48-2.36,1.24-2.36,2.48-.04,1.24-.04,2.48,2.38,1.24,2.38,2.48-.42,1.24-.42,2.48-.54,1.24-.54,2.48.47,1.24.47,2.48-.99,1.24-.99,2.48-.58,1.24-.59,2.48,1.26,1.24,1.26,2.48.5,1.24.5,2.48-1.78,1.24-1.78,2.48.89,1.24.88,2.48-.13,1.24-.13,2.48.91,1.24.91,2.48-1.53,1.24-1.53,2.48,1.59,1.24,1.59,2.48.34,1.24.34,2.49-.14,1.24-.15,2.48-.42,1.24-.42,2.48-.89,1.24-.89,2.49,1.37,1.24,1.37,2.48-1.76,1.24-1.76,2.48,1.04,1.24,1.04,2.49-.27,1.24-.27,2.49-.67,1.24-.67,2.49.99,1.25.99,2.49-1.21,1.25-1.21,2.49c0,.81,1,1.62.94,2.4s.1,1.65-.03,2.43-.44,1.57-.63,2.34.37,1.81.13,2.57-2.25.91-2.53,1.65.31,2.02-.02,2.74c-.6.2-1.6.6-2.39.67-.7.07-1.51-.37-2.24-.41s-1.98.3-2.64.14Z"/>
  </g>
  <path class="cls-1" d="M638.88,163.11c.39-1.2,2.12-.89,2.12-2.15s-1.57-1.27-1.57-2.53.8-1.27.8-2.53.83-1.27.83-2.53-.18-1.27-.18-2.53-1.95-1.27-1.95-2.54,1.47-1.1.58-2.01-.68-.59-1.9-.58-1.22-.1-2.44-.09-1.22.17-2.44.19-1.23-.36-2.45-.35-1.22.05-2.44.06-1.2,1.65-2.43,1.66-1.24-1.54-2.46-1.53-1.22.18-2.44.19-1.23-.46-2.45-.45-1.23-.58-2.45-.56-1.22.25-2.44.26-1.22.28-2.44.29-1.21,1.55-2.43,1.56-1.23-.35-2.45-.34-1.22.1-2.45.11-1.24-1.29-2.46-1.28c-.81,0-1.62.4-2.43.42s-1.63.03-2.43.05-1.58,1.12-2.39,1.15-1.64-.52-2.45-.48-1.61.2-2.41.25-1.54,1.04-2.35,1.1-1.69-.88-2.49-.81-1.6.19-2.41.27-1.55.7-2.35.79-1.84-1.78-2.64-1.68-1.44,1.49-2.25,1.6-1.75-.76-2.55-.64-1.17,2.44-1.96,2.65-2.01-.95-2.77-.64-1.98-.1-2.7.3-1.42,1.08-2.09,1.57-1.05,1.46-1.66,2.02-1.16,1.24-1.7,1.87-1.81.82-2.27,1.51,1.22,2.64.84,3.38-2.26.75-2.56,1.53.44,1.87.23,2.68-.13,1.59-.25,2.41-1.49,1.48-1.6,2.3,1.39,1.86,1.29,2.69-2.49,1.4-2.58,2.23,1.1,1.8,1.02,2.63.48,1.72.41,2.55-.1,1.66-.16,2.5-.61,1.63-.66,2.47-1.26,1.59-1.31,2.43-.26,1.66-.3,2.5,1.28,1.75,1.24,2.59.12,1.68.07,2.52c-.06,1.23.17,1.25.1,2.48s-2.02,1.13-2.08,2.37,1.42,1.31,1.36,2.55-.8,1.2-.86,2.44.29,1.25.23,2.49-1.06,1.18-1.12,2.42.21,1.25.15,2.49,1.83,1.33,1.77,2.57-1.53,1.16-1.59,2.4,1.3,1.31,1.24,2.54-1.91,1.14-1.97,2.38,1.92,1.34,1.85,2.58-.7,1.21-.77,2.44-.65,1.21-.71,2.45-.35,1.22-.41,2.46-.76,1.2-.82,2.44,1.24,1.31,1.18,2.55-.79,1.2-.86,2.44-.38,1.22-.45,2.46,1.7,1.33,1.64,2.57-.4,1.22-.46,2.47c-.04.76-1.37,1.42-1.5,2.22s.82,1.79.61,2.56-.93,1.41-1.23,2.12c-.32.76-.97,1.29-1.4,1.91-.48.7-.98,1.17-1.58,1.58-.67.46-1.2.71-2.01.7s-1.67.18-2.27-.34c-.53-.46-.72-1.33-1.11-2.09-.33-.64-.94-1.24-1.18-2.03-.21-.71.82-1.72.67-2.5-.14-.74-1.8-1.26-1.89-2.04s.76-1.62.73-2.39-.58-1.55-.57-2.3c.02-1.22-.55-1.23-.53-2.46s.93-1.21.95-2.43.65-1.21.67-2.44-.03-1.22-.01-2.45-1.84-1.25-1.82-2.47.51-1.22.53-2.44-.26-1.23-.24-2.45,1.04-1.21,1.06-2.43-.59-1.23-.57-2.46.65-1.22.67-2.44,1.12-1.21,1.14-2.44c.01-.82-2.45-1.69-2.43-2.51s.81-1.63.84-2.45.26-1.64.29-2.46.82-1.61.85-2.43.62-1.61.66-2.43.06-1.64.1-2.46-.77-1.69-.72-2.51-.13-1.65-.08-2.47-.04-1.65.02-2.47.64-1.6.7-2.42-1.15-1.74-1.08-2.56,1.09-1.56,1.16-2.38-.89-1.73-.82-2.55-.06-1.66.01-2.48,2.33-1.43,2.41-2.25-.26-1.67-.18-2.49.05-1.64.14-2.46-.43-1.7-.34-2.51.46-1.6.55-2.42.59-1.59.68-2.4-.46-1.71-.36-2.53,1.41-1.4,1.57-2.2-.74-1.82-.52-2.6-.75-2.02-.47-2.78,2.58-.71,2.93-1.45-1.07-2.41-.66-3.12,2.04-.7,2.5-1.37,1.67-.73,2.18-1.37-.65-2.72-.09-3.31,2.3-.03,2.9-.58,1.41-.78,2.05-1.29,1.24-.97,1.91-1.43.59-2.08,1.29-2.5,1.5-.71,2.23-1.09,1.15-1.5,1.9-1.83,1.85.12,2.61-.18,1.83.24,2.6-.03,1.17-1.69,1.95-1.93,1.55-.61,2.34-.82,1.91.86,2.71.67,1.57-.39,2.37-.56,1.32-1.84,2.12-1.98,1.79.77,2.6.64,1.76.93,2.57.82,1.46-1.45,2.28-1.54,1.62-.25,2.43-.32,1.71,1.07,2.52,1.02,1.61-.21,2.42-.25,1.57-1.35,2.39-1.37,1.63-.54,2.44-.56,1.64-.23,2.46-.24,1.64.52,2.46.52,1.63.49,2.45.5,1.65-1.11,2.46-1.1,1.61,1.99,2.42,2.01,1.62.48,2.44.49,1.68-2.19,2.5-2.17,1.6,1.56,2.41,1.58c1.29.03,1.32-1.46,2.6-1.44s1.26,1.35,2.55,1.38,1.3-.6,2.58-.58,1.27.8,2.56.83,1.31-1.19,2.6-1.17,1.25,1.77,2.54,1.79,1.3-.73,2.59-.7,1.31-.84,2.6-.82,1.95,1.9,2.92,1.05c.87-.76-.43-1.56-.43-2.71s.7-1.16.69-2.32-1.03-1.16-1.03-2.31,1.43-1.16,1.43-2.32-.45-1.16-.45-2.32.46-1.73-.4-2.52c-.9-.83-1.41.35-2.63.38s-1.2,1.12-2.42,1.15-1.23-.52-2.45-.5-1.22.28-2.44.3-1.22.28-2.44.31-1.27-2.07-2.49-2.05-1.2,1.21-2.42,1.23-1.22.55-2.44.57-1.28-1.84-2.51-1.8-1.23.66-2.48.73-1.25.1-2.49.16-1.22.58-2.47.65-1.21.71-2.46.77-1.24.27-2.49.33-1.31-1.21-2.56-1.14-1.28-.48-2.53-.42-1.24.22-2.49.29-1.26-.11-2.51-.04-1.18,1.35-2.43,1.42-1.31-1.18-2.56-1.12-1.16,1.7-2.41,1.76-1.27-.35-2.52-.29-1.23.49-2.48.56-1.27-.31-2.52-.24-1.26-.09-2.51-.03-1.24.36-2.49.41-1.34-1.02-2.64-.97-1.27.68-2.57.73-1.27.76-2.57.81-1.3-.03-2.6.03-1.34-.88-2.64-.83-1.3.04-2.6.09-1.29.36-2.59.41-1.28.58-2.58.64c-.81.03-1.66-.24-2.52-.22s-1.67-.12-2.51-.12-1.67-.4-2.49-.44-1.62-.64-2.43-.73c-.87-.09-1.99,1.67-2.77,1.52-.88-.17-1.65-1.03-2.37-1.3-.88-.32-1.37-1.28-1.93-1.76-.67-.58-1.71-1.17-1.77-2.03s1.62-1.09,2.07-1.79c.41-.63-.2-2.22.52-2.74.62-.44,1.8-.09,2.59-.45.71-.32,1.54-.3,2.35-.57.75-.25,1.03-2.26,1.84-2.47s1.9.9,2.71.74,1.76.71,2.57.58,1.54-.64,2.34-.74c.84-.1,1.65.06,2.43,0,.83-.07,1.58-1.01,2.41-1.08s1.67-.02,2.5-.08,1.64-.32,2.47-.38,1.74,1.01,2.57.95,1.52-2.05,2.35-2.1,1.8,1.94,2.63,1.88,1.6-.95,2.43-1.01,1.62-.81,2.45-.86,1.61-.97,2.44-1.02,1.67-.02,2.5-.07,1.67-.03,2.5-.08,1.7.58,2.53.53,1.65-.41,2.48-.45,1.71,1.09,2.54,1.05,1.66-.1,2.49-.14,1.68.57,2.52.54,1.6-1.7,2.43-1.73,1.64-.76,2.47-.79,1.67.18,2.5.15,1.69,1,2.53.98,1.69.99,2.52.97,1.64-.71,2.47-.73,1.66.01,2.49,0,1.65-.38,2.48-.4,1.65-.4,2.49-.41,1.67.73,2.51.72,1.65-1.05,2.48-1.06,1.66-.08,2.49-.09,1.68,1.54,2.51,1.53,1.65-.69,2.49-.7,1.67.56,2.5.56,1.66-.79,2.49-.79,1.66-.69,2.5-.69,1.58.56,2.41.56c.4-1.28-.48-1.32-.47-2.66s.29-1.34.3-2.69-.98-1.35-.98-2.69.14-1.34.14-2.69,1.41-1.34,1.41-2.69.33-1.43-.56-2.44c-.75-.85-.82.24-1.96.3s-1.17-.62-2.3-.56-1.18-.75-2.31-.69-1.03,1.92-2.17,1.98c-1.24.07-1.26-.22-2.5-.14s-1.27-.33-2.51-.25-1.28-.47-2.52-.39-1.14,1.78-2.38,1.86-1.3-.83-2.54-.76-1.29-.72-2.54-.65-1.25.02-2.49.09-1.23.31-2.48.38-1.23.27-2.48.35-1.28-.44-2.52-.37-1.24.18-2.48.25-1.26-.14-2.5-.07-1.14,1.89-2.38,1.96-1.27-.35-2.52-.27-1.35-1.7-2.6-1.63-1.2.94-2.45,1.02-1.27-.39-2.52-.33-1.23,1.71-2.54,1.76-1.38-2.08-2.69-2.03-1.24,1.73-2.55,1.78-1.33-.73-2.64-.68-1.33-.68-2.64-.63-1.3.16-2.61.21-1.31-.15-2.62-.1c-.85.03-1.71.1-2.61.1s-1.76.96-2.64.93-1.67-1.14-2.54-1.23c-.91-.09-2.09,1.93-2.93,1.77-.92-.17-1.22-2.45-2-2.73-.91-.33-1.7-.19-2.32-.69-.74-.58-1.49-.86-1.69-1.72-.22-.92-.52-1.92-.09-2.66.39-.67,1.83-.34,2.64-.87.66-.43.51-2.67,1.37-3.02.76-.31,2.15.94,3.01.69.8-.23,1.46-1.16,2.32-1.35s1.57-1.16,2.43-1.3,1.81.2,2.67.09,1.91,1.56,2.75,1.49c.89-.08,1.62-1.93,2.44-1.98,1.24-.07,1.33,1.46,2.56,1.39s1.13-2.03,2.36-2.1,1.24-.06,2.48-.13,1.28.63,2.52.56,1.22-.41,2.46-.48,1.26.31,2.5.24,1.22-.41,2.46-.48,1.24.02,2.48-.05,1.25.12,2.49.05,1.28.62,2.52.55,1.3.93,2.54.86,1.19-.87,2.43-.94,1.25.11,2.49.04,1.15-1.58,2.4-1.65,1.33,1.47,2.57,1.4,1.27.41,2.51.34,1.12-2.14,2.37-2.21,1.24-.24,2.49-.3,1.27.67,2.51.63,1.26.67,2.5.63,1.18-1.45,2.41-1.49,1.3,1.71,2.53,1.67,1.19-1.16,2.43-1.2,1.22-.42,2.46-.47,1.22-.36,2.46-.4,1.28.97,2.51.93.72.06,1.56-.85.54-.45.54-1.74.26-1.29.26-2.59.64-1.3.64-2.59-.25-1.3-.25-2.59-.64-1.3-.64-2.59.88-1.3.88-2.6.95-2.27,0-3.16-1.85.55-3.19.61-1.34-.09-2.67-.03-1.32.35-2.65.41-1.34-.09-2.67-.03-1.3.77-2.64.83-1.39-1.03-2.72-.96c-1.2.06-1.24-.5-2.44-.43s-1.07,2.31-2.28,2.38-1.32-1.9-2.52-1.84-1.2.06-2.41.13-1.19.38-2.39.44-1.25-.72-2.45-.65-1.08,2.32-2.28,2.38-1.19.25-2.4.32-1.24-.53-2.44-.46-1.21-.06-2.42,0-1.24-.69-2.45-.62-1.21-.04-2.41.03-1.24-.51-2.44-.44-1.13,1.35-2.34,1.42-1.16.81-2.37.88-1.22-.1-2.42-.03-1.25-.69-2.46-.63-1.19-.53-2.36-.47-1.09,1.63-2.25,1.68-1.26-2.04-2.43-1.99-1.11,1.25-2.28,1.31-1.17-.08-2.34-.03-1.12,1.06-2.29,1.11-1.18-.1-2.34-.05-1.19-.45-2.36-.39c-.83.04-1.76-1.55-2.67-1.53-.85.02-1.7.42-2.59.42s-1.75.79-2.62.75-1.81.48-2.67.4c-.9-.08-1.67-1.06-2.5-1.19-.92-.15-1.76-.27-2.54-.49-.93-.27-1.99-.08-2.65-.49-.84-.52-2.31-1.14-2.53-1.93-.24-.87.41-2.25.79-3.01.35-.68,1-1.6,1.73-2.18.61-.48,1.68-.56,2.49-.96.72-.36,1.25-1.45,2.08-1.75.78-.28,1.88.22,2.71,0s1.67-.34,2.5-.49,1.81.75,2.63.66,1.4-2.24,2.21-2.33,1.8,1.45,2.61,1.37,1.56-.88,2.37-.96,1.63-.15,2.44-.23,1.55-1.1,2.36-1.17,1.75,1.19,2.56,1.12,1.53-1.32,2.35-1.39,1.77,1.67,2.59,1.6,1.61-.44,2.42-.5,1.59-.72,2.4-.78,1.58-.9,2.4-.95,1.69.81,2.51.75,1.63-.12,2.45-.16,1.6-.73,2.41-.77,1.62-.43,2.43-.47,1.72,1.56,2.53,1.52,1.55-1.81,2.37-1.85,1.67.8,2.49.76,1.65.4,2.47.36,1.64,0,2.45-.02,1.64.2,2.46.17,1.64.12,2.46.09,1.59-1.4,2.4-1.43,1.69,1.65,2.51,1.62,1.61-.85,2.42-.87,1.59-1.65,2.4-1.67,1.64.07,2.46.05,1.7,1.99,2.52,1.97c1.3-.04,1.27-1.09,2.57-1.13s1.33,1,2.62.96,1.29-.2,2.59-.23,1.25-1.7,2.55-1.74,1.59,1.69,2.52.78-.06-1.13-.06-2.38-.13-1.25-.13-2.49.9-1.25.9-2.49-1.83-1.25-1.83-2.49,1.61-1.25,1.61-2.5-.95-.98-1.36-2.16c-.86,0-.74-.98-1.59-.99s-1.71.32-2.57.31-1.72.71-2.57.7-1.71-.36-2.56-.37-1.71.51-2.56.52-1.71-1.62-2.57-1.62-1.68,2.24-2.53,2.25-1.74-2.2-2.6-2.18-1.67,1.22-2.53,1.25-1.7,0-2.56.05-1.75-.77-2.6-.72c-1.25.07-1.2.87-2.45.94s-1.19,1.14-2.44,1.21-1.33-1.3-2.58-1.23-1.24.26-2.49.33-1.28-.41-2.53-.34-1.15,1.88-2.4,1.96-1.33-1.3-2.58-1.22-1.28-.42-2.53-.35-1.15,1.9-2.4,1.97-1.39-2.36-2.65-2.29-1.22.62-2.47.69-1.28-.38-2.53-.31-1.19,1.09-2.45,1.16-1.27-.25-2.52-.17-1.24.23-2.5.3-1.26-.07-2.52,0-1.18,1.35-2.44,1.42c-.8.05-1.67.36-2.53.37s-1.72.14-2.55.11-1.67-.9-2.49-.98-1.73-.17-2.51-.31c-.87-.16-1.41-1.39-2.14-1.64-.87-.29-1.97.12-2.57-.31-.75-.53-.29-1.58-.48-2.36-.21-.87-1.28-1.65-.94-2.41.32-.7,1.97-.3,2.66-.9.58-.51.73-1.45,1.51-1.87.7-.38,1.05-1.63,1.86-1.94.76-.29,1.55-.76,2.37-.98s1.88.66,2.7.51,1.54-1.05,2.36-1.14,1.73.72,2.55.63,1.49-1.59,2.31-1.67,1.75,1.05,2.57.97,1.61-.44,2.43-.51,1.69.46,2.5.4,1.67.41,2.49.36,1.55-1.43,2.37-1.48,1.59-.96,2.41-1.01,1.76,1.9,2.58,1.86,1.64.02,2.46-.02,1.57-1.52,2.39-1.55,1.71,1.53,2.53,1.5,1.62-.42,2.45-.45,1.63-.3,2.45-.32,1.62-.82,2.44-.84,1.67,1.38,2.49,1.36,1.61-1.65,2.44-1.66,1.64.02,2.47,0,1.65.14,2.47.13,1.65,1.2,2.47,1.19,1.64-.71,2.47-.71c1.26,0,1.26-.52,2.52-.52s1.26.38,2.52.38,1.26-.56,2.53-.56,1.27-.43,2.54-.42c1.15.01,1.12,1.99,2.28,2.01s1.16-.28,2.31-.26,1.17-.83,2.32-.81,1.14.57,2.3.59.97-.94,2.07-1.29c.03-.8,1.05-.81,1.09-1.65s-.18-1.64-.12-2.46-.5-1.69-.41-2.5-.69-1.78-.57-2.58c.12-.83,1.38-1.48,1.55-2.25.18-.84.59-1.57.83-2.3.28-.84.42-1.63.8-2.29.44-.78.55-1.88,1.15-2.34.65-.5,1.73.91,2.61.9s1.4-.7,2.06-.23c.62.44,1.22.84,1.66,1.62.37.66,1.19,1.22,1.46,2.06.24.74,1.28,1.41,1.45,2.25.16.78-1.11,1.86-1,2.7s-.56,1.68-.48,2.51.56,1.58.62,2.4.9,1.6.95,2.41.45,1.04.49,1.84c.81-.03,1.03.02,1.85,0s1.65.61,2.47.59,1.62-.26,2.44-.28,1.62-.42,2.44-.44,1.66,1.52,2.48,1.51,1.61-.87,2.43-.88,1.62-1.04,2.44-1.04,1.64-.43,2.46-.43,1.63,1.39,2.45,1.4,1.63-.2,2.45-.18,1.61.88,2.43.9,1.63.02,2.44.05,1.64-.96,2.43-.93,1.59.23,2.39.26,1.6-.04,2.4-.01,1.57.76,2.37.79,1.64-1.12,2.44-1.09,1.52,1.74,2.32,1.78,1.61-.29,2.4-.25,1.56.54,2.36.59,1.65-.95,2.45-.9,1.55.58,2.35.64,1.58.12,2.38.19,1.52.7,2.32.79,1.57.13,2.37.23,1.86-2,2.65-1.89,1.35,1.95,2.14,2.09,1.46.75,2.24.94,1.54.3,2.31.53,1.9-.67,2.66-.4,1.2,1.34,1.94,1.66,1.13,1.25,1.83,1.62,2.58-1.24,3.26-.82,1.24,1.19,1.88,1.68,1.06,1.34,1.65,1.88.78,1.51,1.31,2.12.31,1.73.78,2.39,1.93.63,2.32,1.35.34,1.62.66,2.37,1.56,1.18,1.8,1.96-1.44,1.98-1.29,2.79,2.42,1.27,2.5,2.09-.64,1.69-.63,2.52-.9,1.6-.99,2.43-.4,1.55-.57,2.37,1.11,1.95.9,2.76-.64,1.57-.88,2.36-2.05,1.09-2.3,1.88,1.15,1.68.9,2.46c.69.39,1.29.22,2.06.68.7.42.44,2.45,1.17,2.92s2.32-.45,3.03.03.79,1.82,1.47,2.33,1.43.93,2.07,1.47,1.14,1.28,1.72,1.86c.63.62.87,1.46,1.37,2.1.56.71.89,1.31,1.24,2.02.4.83.99,1.29,1.01,2.09.02.83-.33,1.29-.82,2.05-.46.71-.91.38-1.8.59-.73.17-1.22.25-2.16.16-.78-.08-1.94,1.7-2.81,1.48-.78-.19-1.3-1.57-2.13-1.85-.78-.26-1.62-.42-2.42-.74s-1.84,0-2.62-.34-.89-2.15-1.65-2.5-1.46-.88-2.2-1.24c-.8-.39-2.33-.31-3.04-.67-.31.82-.8,1.99-1.16,2.76s.69,2.36.26,3.1-2.77.29-3.27,1-.86,1.42-1.41,2.08.22,2.57-.39,3.17-2.58-.27-3.24.28-.92,1.56-1.63,2.05-.77,2.08-1.53,2.5-2.17-.4-2.96-.04c-.73.33-1.71-.16-2.44.09s-.83,2.7-1.58,2.9-2.03-1.84-2.8-1.7-1.29,1.97-2.08,2.06-1.6.31-2.39.35-1.61-1.66-2.4-1.66-1.55.17-2.34.15-1.53-.52-2.32-.56-1.61.82-2.4.78-1.53-.83-2.33-.87c-1.24-.06-1.32,1.45-2.57,1.38s-1.16-1.78-2.4-1.84-1.28.65-2.53.58-1.22-.62-2.46-.68-1.32,1.35-2.57,1.29-1.24-.11-2.49-.17-1.21-.9-2.45-.97-1.3,1.04-2.55.98-1.28.53-2.52.47-1.24-.25-2.49-.31-1.26.2-2.5.14-1.17-1.59-2.42-1.65-1.25.04-2.5-.02-1.25-.09-2.5-.15-1.2-.95-2.45-1.02-1.34,1.69-2.59,1.63-.95-.95-1.86-.08-1.27.63-1.27,1.89-.47,1.27-.47,2.54,1.88,1.27,1.88,2.54-.87,1.27-.87,2.54,1.24,1.27,1.24,2.54-2.54,2.09-1.68,3.02c.82.88,1.72-.18,2.92-.16s1.2.17,2.39.2,1.23-1.46,2.43-1.44,1.18,1.33,2.38,1.35,1.21-.17,2.41-.14,1.19.84,2.39.86,1.23-1.59,2.44-1.57,1.2.05,2.41.07c.82.01,1.61,1.47,2.43,1.48s1.63.22,2.45.23,1.68-2.05,2.5-2.03,1.59,2.1,2.41,2.12,1.64-.11,2.45-.09,1.64-.21,2.46-.19,1.67-1.31,2.49-1.29,1.61.84,2.43.86,1.65-.53,2.47-.5,1.65-.35,2.47-.32,1.55,2.13,2.37,2.16,1.71-1.93,2.53-1.9,1.6.84,2.42.88,1.61.61,2.42.65,1.65-.36,2.47-.32,1.66-.48,2.48-.44,1.66-.44,2.48-.39,1.55,1.53,2.37,1.58,1.66-.43,2.48-.38,1.64-.03,2.46.02,1.62.31,2.43.36,1.65-.12,2.46-.06,1.6.59,2.41.65,1.69-.68,2.51-.61,1.48,1.9,2.3,1.97,1.77-1.57,2.59-1.5,1.6.43,2.42.51,1.52,1.26,2.34,1.34c.91.09,2.03-1.38,2.92-1.23s1.81.55,2.69.76,1.78.57,2.65.85,1.89.29,2.73.63,1.2,1.82,2.02,2.23c.75.37.58,1.34,1.04,2.07s1.91,1,1.92,1.81c.02.87-.64,1.53-1.31,2.12-.43.38-.84,1.21-1.61,1.56-.65.3-1.14,1.48-1.83,1.69-.8.24-1.9-.33-2.5-.31-.83.02-1.66.55-2.48.56s-1.69-2.02-2.51-2.02-1.65,1.58-2.48,1.58-1.66-.58-2.49-.59-1.66.03-2.49.02-1.64-.97-2.47-.99-1.71,2.13-2.54,2.1-1.64-.75-2.47-.78-1.65-.22-2.48-.25-1.63-.54-2.46-.58-1.63-.64-2.46-.68-1.71,1.03-2.54.99c-1.25-.06-1.28.61-2.53.55s-1.25-.11-2.49-.17-1.2-.98-2.45-1.04-1.21-.88-2.46-.95-1.33,1.48-2.58,1.42-1.16-1.91-2.41-1.97-1.25-.05-2.5-.11-1.32,1.22-2.57,1.16-1.3.81-2.55.75-1.18-1.39-2.43-1.46-1.26.18-2.52.12-1.26.23-2.51.17-1.22-.59-2.47-.65-1.22-.63-2.48-.69-1.32,1.24-2.57,1.17-1.24-.26-2.5-.32-1.24-.27-2.5-.33-1.26.08-2.51.03-1.2.32-2.4.28-1.19-.29-2.38-.32-1.15-1.47-2.34-1.5-1.2-.02-2.39-.06-1.21.57-2.41.53-1.18-.71-2.37-.74-1.22.75-2.42.71-1.23.97-2.43.94-1.95-2.13-2.83-1.31.19,1.64.19,2.79.72,1.15.72,2.3-.01,1.15-.01,2.3-.66,1.15-.66,2.3-.67,1.15-.67,2.3.6.94,1.43,1.73c.9.85.69,1.23,1.93,1.26s1.24-.1,2.49-.08,1.27-1.68,2.52-1.66,1.23.46,2.48.49,1.22,1.52,2.46,1.54,1.27-1.38,2.52-1.35c.82.02,1.63.86,2.45.88s1.63.73,2.45.74,1.67-1.34,2.49-1.33,1.61,1.54,2.44,1.56,1.68-1.99,2.51-1.97,1.64.3,2.46.32,1.6,1.68,2.42,1.7,1.64.1,2.46.13,1.63.32,2.45.34,1.65-.26,2.47-.23,1.62.43,2.44.47,1.64-.12,2.46-.08,1.76-2.24,2.58-2.2,1.58,1.26,2.4,1.31,1.58,1,2.4,1.05,1.74-1.31,2.55-1.25,1.54,1.32,2.36,1.38,1.63.15,2.45.22,1.77-1.25,2.58-1.17,1.57.82,2.39.91,1.73-.66,2.55-.57,1.5,1.26,2.32,1.36,1.49,1.19,2.3,1.3,2.03-1.83,2.85-1.65,1.13,2.42,1.93,2.66,1.81-.25,2.59.05,1.79.09,2.55.45,1.41.96,2.14,1.38,1.05,1.45,1.75,1.92,2.23-.17,2.88.36.3,2.21.9,2.79,2.58-.11,3.14.52-.83,2.81-.33,3.49,2.07.57,2.51,1.3.91,1.43,1.29,2.18.57,1.59.88,2.38.64,1.55.88,2.37.98,1.5,1.16,2.34-.11,1.75,0,2.59-1.02,1.81-.92,2.63,1.88,1.44,1.99,2.26.07,1.67.17,2.49.66,1.6.76,2.43-.54,1.73-.45,2.56-.18,1.69-.1,2.52,1.45,1.53,1.53,2.36-1.05,1.77-.98,2.59.05,1.66.12,2.49.1,1.66.17,2.49.96,1.59,1.02,2.42.22,1.65.28,2.48-.56,1.7-.51,2.53-1.2,1.74-1.15,2.57.28,1.64.33,2.47-.14,1.67-.1,2.5,1.09,1.6,1.13,2.43.5,1.64.54,2.47.47,1.64.5,2.47-.97,1.7-.94,2.53-.73,1.69-.71,2.52.59,1.64.62,2.47.61,1.64.63,2.47.99,1.63,1.02,2.47-.13,1.67-.11,2.5-.91,1.68-.9,2.51,1.1,1.64,1.12,2.47-1.02,1.68-1,2.51,1.61,1.64,1.62,2.47-1.87,1.68-1.86,2.52,1.03,1.65,1.04,2.48.28,1.66.29,2.49-1.47,1.67-1.47,2.51,2.06,1.7,2,2.5-.7,1.63-.83,2.42-.27,1.67-.48,2.44-1.73,1.14-2.02,1.88.07,1.79-.32,2.49c-.26.48-1.02,1.39-1.86,1.54-.67.12-1.45-1.35-2.13-1.44-.85-.11-2.59,1.04-2.89.6-.46-.68.7-2.31.35-3.03s-1.59-1.07-1.85-1.84-.91-1.49-1.08-2.28,1.47-1.86,1.38-2.67-.83-1.5-.87-2.32.34-1.7.29-2.54-1.35-1.61-1.39-2.45.72-1.72.68-2.55-1.33-1.61-1.38-2.45-.2-1.67-.24-2.51,1.9-1.78,1.85-2.61-2.02-1.58-2.06-2.41.36-1.7.32-2.53-.41-1.66-.45-2.49.62-1.71.58-2.55-.94-1.63-.98-2.46.41-1.7.37-2.54.09-1.68.04-2.52-.69-1.64-.74-2.47,1.79-1.78,1.74-2.62-.9-1.63-.95-2.46-.04-1.68-.09-2.51-1.36-1.59-1.41-2.43.2-1.69.14-2.53,1.58-1.79,1.52-2.62.12-1.69.06-2.53-1.93-1.54-2-2.37.76-1.74.7-2.57-.44-1.65-.51-2.48-1.08-1.59-1.15-2.42,1.28-1.79,1.2-2.62-.22-1.66-.3-2.5-.22-1.66-.3-2.5-.69-1.62-.77-2.45.7-1.76.61-2.59-.71-1.61-.8-2.44.69-1.84.51-2.62-2.47-1-2.73-1.76.99-2.14.64-2.87-.39-1.76-.81-2.44-1.6-.96-2.1-1.59-.48-1.87-1.06-2.44-1.53-.89-2.17-1.39-1.81-.3-2.51-.72-1.06-1.57-1.81-1.9-1.94.51-2.72.28-1.64.4-2.45.27-1.22-2.75-2.01-2.87-1.73.62-2.53.52-1.75,1.06-2.55.97-1.42-1.91-2.22-1.98-1.74,1.34-2.55,1.27-1.49-1.79-2.29-1.84-1.67.83-2.48.78-1.57-.97-2.38-1.01-1.61-.22-2.42-.24-1.65,1.49-2.46,1.47-1.59-1.47-2.4-1.48c-1.25-.01-1.25-.1-2.5-.12s-1.26.99-2.51.98-1.24-1.05-2.49-1.06-1.27,1.65-2.52,1.63-1.26.36-2.51.34-1.25-.4-2.5-.41-1.26.33-2.51.32-1.24-1.04-2.49-1.05-1.27,1.39-2.52,1.38-1.22-2.39-2.48-2.4-1.25-.06-2.5-.07-1.28,2.37-2.53,2.36-1.25-.43-2.5-.45-1.25-.56-2.5-.57-1.26.45-2.51.44-1.24-1.01-2.5-1.02-2.22-1.25-3.12-.37,1.01,1.86,1.01,3.1.5,1.24.5,2.48-1.78,1.24-1.78,2.49.89,1.24.89,2.49-.13,1.24-.13,2.49.91,1.25.91,2.49-1.9,1.55-1.5,2.73c.86.04,2.46-1,3.31-.96s1.73-.26,2.58-.22,1.7.23,2.55.27,1.69.51,2.54.55,1.66.98,2.51,1.03,1.79-1.27,2.64-1.22,1.59,1.87,2.44,1.93,1.77-.92,2.62-.86,1.68.4,2.53.47,1.64.81,2.48.89,1.79-.83,2.64-.74,1.56,1.38,2.41,1.48,1.81-.84,2.66-.73,1.73-.05,2.57.07,1.67.38,2.51.51,1.82-.55,2.66-.41,1.29,2.11,2.08,2.29,1.87-.66,2.66-.42,1.65.38,2.42.67,1.39,1.03,2.13,1.37,1.13,1.39,1.85,1.78,2.04-.18,2.72.27,1.42.94,2.06,1.45.09,2.34.67,2.91,2.81-.35,3.33.29-.54,2.46-.09,3.15,1.39,1.02,1.76,1.76,2.08.95,2.36,1.73-.94,2.05-.75,2.86.25,1.58.36,2.41,1.13,1.56,1.15,2.4-.4,1.65-.38,2.47.67,1.63.69,2.44-1.61,1.66-1.6,2.48.06,1.63.07,2.45,1.43,1.63,1.43,2.44-.22,1.64-.22,2.46-1.38,1.63-1.38,2.45,1.51,1.64,1.51,2.46-.81,1.63-.82,2.45-.1,1.63-.12,2.45,1.54,1.67,1.52,2.49-1.3,1.61-1.32,2.42.95,1.67.93,2.49c-.03.87-1.39,1.65-1.5,2.48s1.17,1.99.98,2.81-2.53,1.08-2.8,1.88-.63,1.46-.99,2.23.79,2.33.34,3.05-1.75.88-2.28,1.55-1.15,1.19-1.76,1.79-1.02,1.35-1.7,1.87-1.29,1.1-2.03,1.54-1.93-.19-2.72.16-1.36.87-2.18,1.14-1.46.78-2.31.96-1.44,1.93-2.3,2.07-1.95-1.2-2.82-1.1-1.72.29-2.59.35-1.73.34-2.61.36-1.74,1.16-2.62,1.16-1.76-.57-2.64-.59-1.79.68-2.67.65c-1.23-.05-1.21-.52-2.44-.56s-1.2-.79-2.42-.84-1.19-1.1-2.42-1.14-1.32,2.21-2.55,2.16-1.18-1.25-2.41-1.3-1.25.53-2.48.48-1.17-1.58-2.4-1.62-1.22-.28-2.45-.32c-.81-.03-1.63.1-2.44.07s-1.63.02-2.44,0-1.68,1.97-2.49,1.95-1.58-1.66-2.39-1.68-1.65,1.19-2.46,1.17-1.62.11-2.43.1-1.61-.34-2.42-.35-1.61-.47-2.42-.47-1.62.06-2.43.06-1.62-.18-2.43-.18-1.62-.18-2.43-.17-1.61.52-2.42.53-1.6.71-2.41.73-1.66-1.57-2.47-1.54-1.55,1.93-2.36,1.96-1.71-2.2-2.52-2.17-1.59.66-2.4.7c-1.28.06-1.21,1.49-2.48,1.55s-1.31-.53-2.59-.47-1.26.5-2.54.56-1.34-1.13-2.62-1.07-1.31-.51-2.59-.45-1.28,0-2.57.06c-.85.04-1.64.94-2.48.96s-1.69.77-2.53.76-1.69-.33-2.53-.38-1.7-.09-2.53-.19-1.78.31-2.62.16-1.5-1.11-2.33-1.32-1.46-1.02-2.27-1.31-1.46-.8-2.24-1.17-1.64-.46-2.37-.91-1.66-.57-2.35-1.08-1.87-.5-2.5-1.08-1.17-1.36-1.74-2-.62-1.74-1.12-2.44-.77-1.52-1.2-2.27-1.04-1.38-1.38-2.17.43-1.93.18-2.75-1.49-1.32-1.66-2.17.06-1.71-.02-2.58c-.08-.8-1.68-1.46-1.75-2.25s1.2-1.71,1.14-2.5.81-1.66.76-2.45-1.71-1.49-1.76-2.29,1.11-1.66,1.07-2.46-1.22-1.54-1.26-2.34-.32-1.59-.35-2.39.71-1.63.68-2.42,1.06-1.63,1.04-2.43-2.26-1.54-2.28-2.34,1.03-1.62,1.02-2.42-1.23-1.57-1.25-2.37,2.2-1.63,2.19-2.43-.03-1.6-.04-2.4-.44-1.56-.36-2.34c.08-.82.08-1.57.25-2.34s.3-1.54.56-2.29,1.26-1.11,1.61-1.82.53-1.4.98-2.06-.71-2.57-.19-3.18,2.74.42,3.33-.14.44-1.85,1.09-2.34.64-1.95,1.33-2.39,2.04.27,2.76-.1,1.03-1.6,1.77-1.92,1.87.34,2.63.07,1.65,0,2.43-.22,1.09-2.19,1.88-2.37,1.6-.46,2.39-.6,1.63-.32,2.43-.43,1.7.42,2.5.33,1.71.58,2.51.49,1.72.78,2.52.7,1.54-.89,2.35-.97,1.49-1.51,2.3-1.58,1.75,1.37,2.56,1.3,1.66.47,2.47.41,1.6-.31,2.41-.36,1.54-1.28,2.35-1.33,1.69,1.18,2.5,1.14,1.62.03,2.43,0,1.59-.57,2.4-.6,1.56-1.69,2.37-1.72,1.68,1.66,2.49,1.63,1.58-1.57,2.39-1.59,1.61-.57,2.43-.59,1.64.46,2.45.44.47.3,1.29.29ZM726.05,56.41c.72-.83,2.17.06,2.52-.98s-1.14-1.54-.8-2.59,1.11-.79,1.45-1.84c.27-.82,1.28-1.6,1.36-2.41.08-.85-.11-1.9-.22-2.72s-2.19-1.14-2.49-1.92-.26-1.51-.73-2.21-.31-1.81-.91-2.41-1.19-1.21-1.9-1.68-1.52-.72-2.3-1.06-1.39-.97-2.16-1.23-1.58-.47-2.37-.69-1.94,1.19-2.73,1.02-1.28-1.85-2.08-1.98-1.63-.09-2.44-.2-1.56-.67-2.37-.76-1.57-.75-2.38-.83-1.68.09-2.51.02-1.68.13-2.51.07-1.76,1.42-2.58,1.36-1.63-.47-2.45-.52-1.65,0-2.48-.04-1.6-1.38-2.43-1.42-1.67.32-2.5.29-1.66-.06-2.49-.08-1.68,1.03-2.5,1.01-1.64-.62-2.47-.63-1.66.1-2.48.1-1.65.93-2.48.93-1.66-1-2.49-.99-1.65.07-2.48.08-1.64.57-2.47.59-1.7-1.94-2.53-1.92-1.62,1.34-2.45,1.36-1.69-.94-2.51-.92-1.58,2.26-2.4,2.29-1.71-1.43-2.54-1.4-2.72-.06-3.55-.02c-.39,1.15.14,1.57.13,2.79s.51,1.22.5,2.43.07,1.22.07,2.43-.9,1.21-.9,2.43,2.44,1.22,2.44,2.44-2.43,1.95-1.56,2.8,1.64-.87,2.91-.84,1.27-.22,2.54-.19,1.25,1.28,2.52,1.31,1.3-1.6,2.57-1.57,1.23,2.34,2.5,2.36,1.3-1.25,2.57-1.23,1.29-.61,2.56-.59c.82.02,1.65,0,2.47.02s1.63.54,2.45.56,1.59,1.21,2.41,1.25,1.62.23,2.44.27,1.71-1.29,2.53-1.24,1.66-.1,2.47-.04,1.66-.11,2.48-.05,1.47,2.09,2.28,2.16,1.77-1.33,2.59-1.25,1.55.9,2.37.99,1.67-.16,2.48-.06,1.49,1.2,2.3,1.31,1.65-.04,2.46.08,1.92-1.62,2.73-1.49,1.37,1.72,2.18,1.87,1.87-1.04,2.67-.89c.86.17,1.3,2.15,2.12,2.34s2.18-1.5,2.99-1.27,1.49,1.11,2.29,1.39,1.42,1.12,2.21,1.43,1.46.9,2.25,1.24,1.22,1.32,2.01,1.7,1.07-1.03,1.84-.62ZM720.73,70.57c-.71-.44.22-2.05-.47-2.44s-2.19.59-2.91.23-1.13-1.44-1.87-1.76-1.22-1.42-1.97-1.71-1.63-.42-2.4-.68-2.13,1.35-2.92,1.11-1.41-.8-2.21-1.02c-.82-.18-1.45-1.16-2.27-1.32s-1.63-.42-2.46-.57-1.68-.12-2.51-.25-1.61-.62-2.44-.73-1.68-.18-2.51-.28-1.84,1.43-2.68,1.34-1.51-1.72-2.35-1.79-1.69.02-2.52-.05-1.64-.6-2.48-.66-1.64-.7-2.48-.75-1.69.14-2.53.1-1.69.19-2.53.15-1.72,1.46-2.57,1.43c-1.28-.02-1.27-.38-2.54-.39s-1.27.08-2.55.07-1.27-1.32-2.54-1.33-1.28.37-2.56.36-1.28-.02-2.55-.03-1.29,1.05-2.56,1.04-1.27-.6-2.55-.61-1.51-.88-2.41.04,1,1.16.99,2.47-1.01,1.31-1.01,2.62.05,1.31.05,2.62.54,1.31.54,2.62-1.97,1.31-1.97,2.62,1.3,1.31,1.3,2.63-1.64,2.31-.74,3.27,2.02-1.85,3.3-1.8,1.22,1.55,2.5,1.6,1.24.95,2.52,1,1.29-.15,2.57-.09,1.3-.46,2.58-.4,1.28-.02,2.56.03,1.24.95,2.52,1,1.38-2.39,2.66-2.34,1.21,1.76,2.49,1.82,1.32-.98,2.6-.93,1.29-.19,2.57-.13,1.23,1.31,2.52,1.36,1.35-1.57,2.63-1.52c.85.04,1.59,2.39,2.43,2.43s1.77-1.17,2.61-1.11,1.75-.5,2.59-.43,1.7.12,2.55.21,1.64.67,2.48.78,1.52,1.36,2.37,1.48,1.74.35,2.55.37,1.65-1.38,2.46-1.45,1.55-.4,2.35-.57,1.45-.61,2.22-.88,2.34,1.16,3.07.78.7-2.11,1.37-2.59,1.77-.44,2.37-1.01.91-1.43,1.43-2.08,1.84-.8,2.27-1.52-1.3-1.62-.96-2.38ZM655.1,197.36c.84,0,1.67,2.18,2.51,2.18s1.69-1.56,2.53-1.55,1.66.82,2.5.84,1.65.86,2.49.88,1.68-.13,2.51-.11,1.74-1.89,2.58-1.87,1.66.43,2.5.47,1.64.9,2.48.94,1.67.19,2.5.23,1.68-.08,2.52-.03,1.65.47,2.48.51,1.67.06,2.51.11,1.77-1.53,2.61-1.47,1.57,1.66,2.4,1.72,1.68-.05,2.52.01,1.63.59,2.47.65,1.62.71,2.46.77,1.69-.11,2.52-.05,1.69-.14,2.52-.07.93-.81,1.77-.74c.38-1.23.3-1.03.27-2.31s-.12-1.29-.15-2.57,1.28-1.32,1.25-2.61-.41-1.28-.44-2.57-.02-1.29-.05-2.58c-.02-.93-1.28-1.38-1.76-2.13s-.58-1.67-1.29-2.25-1.49-.95-2.25-1.41c-.81-.49-1.95-.04-2.65-.43-.82-.24-1.21-1.39-2-1.6s-1.63-.37-2.43-.55-1.72.18-2.54.02-1.31-2.24-2.14-2.36-1.83,1.05-2.67.96-1.56-1.16-2.41-1.23-1.82,2.07-2.64,2-1.54-1.61-2.36-1.67-1.59-1-2.42-1.06-1.67.09-2.49.04-1.68.41-2.51.36-1.66-.02-2.48-.06-1.61-.98-2.44-1.02-1.76,2.37-2.58,2.33-1.58-1.78-2.41-1.81-1.69.98-2.51.95-1.66.19-2.48.17-1.62-1.3-2.45-1.32-1.68,1.59-2.51,1.58-1.62-2.34-2.45-2.35-1.67,1.26-2.49,1.26-1.65.63-2.48.63-1.65.04-2.47.04-1.65-.48-2.48-.47-1.67-1.14-2.49-1.12-1.66-.13-2.49-.11-1.62,1.41-2.45,1.43-1.64.25-2.47.27-1.64.28-2.47.31-1.73-1.9-2.55-1.87-1.59,1.56-2.41,1.59-1.69-.66-2.51-.61-1.63.44-2.46.49-1.71-.9-2.54-.85-1.64.38-2.46.43-1.52,2-2.34,2.06-1.75-1.35-2.58-1.28-1.54,1.49-2.36,1.56c-.87.07-1.89-1.69-2.73-1.6s-1.45,2.17-2.29,2.29-1.76-.37-2.59-.2-1.79-.22-2.62,0-1.74.19-2.55.47-1.89-.06-2.69.28c-.71.3-.92,1.91-1.65,2.42-.68.48-1.83.5-2.42,1.11s-1.48,1.28-1.86,2c-.41.78,1.02,1.99,1,2.82-.02,1.24-.35,1.23-.37,2.47s-1.27,1.22-1.29,2.46,1.12,1.26,1.1,2.49-.49,1.23-.51,2.47-.75,1.4-.35,2.58c.85-.07,2.02.13,2.86.07s1.69-.18,2.53-.25,1.65-.69,2.5-.75,1.72.24,2.57.18,1.67-.47,2.52-.53,1.78,1.12,2.62,1.06,1.59-1.68,2.43-1.74,1.75.8,2.6.75,1.66-.64,2.51-.69,1.66-.66,2.51-.71,1.74.82,2.59.78,1.72.55,2.57.51,1.69-.12,2.53-.16,1.62-1.92,2.47-1.95,1.71.43,2.56.41,1.69-.32,2.54-.34,1.72.98,2.57.96,1.68-.63,2.53-.64,1.7.62,2.55.61,1.69,1.1,2.54,1.1c1.21,0,1.21-2.47,2.43-2.47s1.21.78,2.43.78,1.21.22,2.42.22,1.21.76,2.43.76,1.21.56,2.43.56,1.21-.02,2.43-.02,1.22-.85,2.43-.85,1.27.16,2.43-.23c1.32-.44,1.22-1.21,2.44-1.21ZM636.91,231.3c1.3,0,1.28,2.21,2.57,2.25s1.34-1.53,2.63-1.5,1.27.84,2.57.87,1.27.86,2.57.9,1.3-.14,2.59-.11,1.35-1.91,2.65-1.87,1.29.41,2.58.44,1.27.87,2.57.9,1.29.15,2.59.19,1.3-.12,2.6-.09,1.29.41,2.59.45c.86.02,1.72.02,2.58.04s1.78-1.57,2.64-1.54,1.67,1.62,2.52,1.65,1.72-.1,2.58-.08,1.71.52,2.56.54,1.72.63,2.57.64,1.73-.22,2.59-.22,1.73-.27,2.59-.29,1.68-1.57,2.54-1.6,1.72.3,2.57.25,1.69-.19,2.55-.26,1.86,1.08,2.63.89,1.54-.85,2.28-1.16,1.54-.73,2.21-1.17.66-1.77,1.25-2.32,1.54-.72,2.03-1.36.8-1.39,1.16-2.12-.27-1.7-.05-2.49,1.31-1.29,1.37-2.11-.01-1.58-.12-2.4c-.14-1.12-.68-1.05-.82-2.17s2.05-1.85,1.56-2.87c-.83-.07-2.79.46-3.62.39s-1.59-1.12-2.42-1.19-1.83,2.07-2.67,2.01-1.56-1.61-2.39-1.67-1.61-1.01-2.44-1.06-1.68.09-2.52.03-1.7.4-2.54.35-1.68-.03-2.51-.08-1.62-.99-2.46-1.04-1.8,2.35-2.63,2.31-1.59-1.79-2.42-1.83-1.72.96-2.55.92-1.68.17-2.51.13-1.62-1.32-2.46-1.35-1.73,1.56-2.56,1.53-1.6-2.37-2.43-2.39-1.71,1.23-2.54,1.21-1.69.59-2.52.57-1.67,0-2.51-.02-1.66-.52-2.5-.53-1.66-1.18-2.49-1.19-1.67-.18-2.51-.18-1.68,1.36-2.52,1.36-1.67.2-2.51.19-1.67.23-2.51.23-1.68-1.96-2.51-1.95-1.66,1.5-2.5,1.5-1.68-.72-2.52-.71-1.67.38-2.5.39-1.69-.97-2.53-.96-1.67.31-2.5.33-1.62,1.94-2.46,1.96-1.71-1.42-2.55-1.4-1.63,1.41-2.46,1.44-1.74-1.79-2.57-1.75-1.59,2.04-2.43,2.08-1.69-.57-2.53-.53-1.7-.51-2.53-.47-1.68-.2-2.52-.16-1.71-.61-2.54-.56-1.6,1.4-2.43,1.45-1.71-.63-2.55-.58-1.69-.21-2.53-.16-1.55,1.88-2.38,1.94-1.69-.21-2.52-.15-1.76-1.13-2.59-1.06-1.58,1.27-2.41,1.33-1.7-.34-2.54-.27-1.96,0-2.79.08c-.43,1.02-.14,1.21-.2,2.32s0,1.11-.07,2.22c-.04.8.54,1.58.61,2.35s-.14,1.62.06,2.37.79,1.38,1.12,2.09-.33,2.07.11,2.72,2.18.3,2.73.86.54,1.74,1.19,2.2,1.59.39,2.31.73,1.55.05,2.33.26,1.29,1.24,2.09,1.33,1.6.8,2.43.86,1.68.06,2.5.1,1.7-1.79,2.53-1.78,1.63.51,2.46.51,1.64-.29,2.46-.31,1.68.97,2.51.94,1.62-.67,2.45-.71,1.68.55,2.51.51,1.71,1.02,2.54.97,1.53-2.56,2.36-2.6,1.7.7,2.52.66c1.18-.05,1.19.17,2.38.12s1.22.71,2.4.66,1.21.5,2.4.46,1.19-.07,2.37-.12,1.31-.53,2.41-.97c1.29-.52,1.1-1.52,2.29-1.52Z"/>
</svg>