<?xml version="1.0" encoding="UTF-8"?>
<svg id="_レイヤー_1" data-name="レイヤー 1" xmlns="http://www.w3.org/2000/svg" viewBox="0 0 540 566">
  <defs>
    <style>
      .cls-1 {
        fill: none;
        stroke: #d94236;
        stroke-miterlimit: 10;
        stroke-width: 10px;
      }

      .cls-2 {
        fill: #d94236;
      }
    </style>
  </defs>
  <g>
    <path class="cls-2" d="M202.33,442.91c-.29.49-.64,2.05-1.5,2.23-.65.14-1.66-.2-2.42-.22s-1.44-1.03-2.1-1.17c-.84-.18-2.54.45-2.97.1-.35-.63,1.38-2.53,1.08-3.22s-1.68-.86-1.93-1.57.09-1.56-.12-2.27-2.11-.99-2.27-1.72,1.91-1.89,1.79-2.62.12-1.44.04-2.18c-.08-.74-1.47-1.32-1.51-2.05s.09-1.48.09-2.21c0-1.06.66-1.06.65-2.12s-1.39-1.06-1.39-2.12.75-1.06.75-2.12c0-1.06.87-1.06.87-2.12,0-1.06-1.62-1.06-1.62-2.12s1.23-1.06,1.23-2.12c0-1.06.62-1.06.62-2.12,0-1.06-1.87-1.06-1.87-2.12s1.92-1.06,1.92-2.12-1.87-1.06-1.87-2.12,1.44-1.06,1.44-2.13c0-1.06-.59-1.06-.59-2.13s.22-1.06.22-2.13c0-1.06-.22-1.06-.22-2.13s.25-1.06.25-2.13-.16-1.06-.16-2.12.06-1.06.06-2.12.97-1.06.97-2.12-1.09-1.06-1.09-2.12-2-1.06-2-2.12c0-1.06,2.65-1.06,2.65-2.13s-.62-1.06-.62-2.12-1.49-1.06-1.49-2.12,1.29-1.06,1.29-2.13c0-1.06.97-1.06.97-2.13s-1.5-1.06-1.5-2.13,1.68-1.06,1.68-2.13-.98-1.06-.98-2.13-.23-1.06-.23-2.13-1.53-1.06-1.53-2.12,2.46-1.06,2.46-2.13.15-1.06.15-2.13c0-1.06-.97-1.06-.97-2.13s1-1.06,1-2.13c0-1.06-2.31-1.06-2.31-2.13s.71-1.06.71-2.13.91-1.06.91-2.13-.1-1.06-.1-2.13-.28-1.06-.28-2.13c0-1.06.67-1.06.67-2.13s.34-1.06.34-2.13c0-1.06-.64-1.06-.64-2.13,0-1.06.52-1.06.52-2.13,0-1.06-.38-1.06-.38-2.13,0-1.06-.15-1.06-.15-2.13,0-1.06-.74-1.06-.74-2.13s-.93-1.06-.93-2.13.81-1.07.81-2.13-.79-1.06-.79-2.13,2.63-1.07,2.63-2.13-2.76-1.06-2.76-2.13c0-1.06,1.18-1.06,1.18-2.13,0-1.07.44-1.07.44-2.13s.63-1.06.63-2.13c0-1.06-1.6-1.06-1.61-2.13s.35-1.06.35-2.13,1.34-1.07,1.34-2.13-.21-1.06-.21-2.13-2.14-1.06-2.14-2.13c0-1.06-.44-1.06-.44-2.13s1.96-1.06,1.96-2.13-1.44-1.06-1.44-2.12-.49-1.06-.49-2.13.97-1.07.97-2.13.35-1.06.35-2.13.51-1.06.51-2.13-.74-1.06-.74-2.13,1.1-1.07,1.1-2.13c0-1.06-1.05-1.06-1.05-2.13s.21-1.07.21-2.13-1.32-1.06-1.32-2.13,1.42-1.07,1.42-2.13c0-1.07.96-1.07.96-2.13s.11-1.07.11-2.13-.81-1.07-.81-2.13,1.02-1.06,1.02-2.13-1.18-1.07-1.18-2.13.88-1.07.88-2.13c0-1.07-1.79-1.07-1.79-2.13s.83-1.07.83-2.14-1.29-1.07-1.29-2.14,1.38-1.01,1.04-2.02c-.72.05-.89,1.44-1.58,1.53s-1.39-.15-2.08-.01-1.95-1.97-2.62-1.78-1.36.68-2.02.91-1.48.33-2.13.61-1.53.31-2.16.64-1.31.78-1.91,1.15.45,3.23-.12,3.64-1.74-.03-2.28.42-.22,1.79-.74,2.27-2.31-.36-2.79.15-1.79.35-2.25.9.01,1.87-.42,2.43-.84,1.14-1.24,1.73.65,2.07.27,2.67-1.82.52-2.17,1.14-.12,1.51-.45,2.14-2.34.42-2.64,1.07-1.1,1.1-1.38,1.75,1.38,2.12,1.12,2.78-.25,1.4-.5,2.06-.75,1.22-.98,1.89-1.57.98-1.79,1.66,1.31,1.86,1.12,2.54-2.66.73-2.85,1.42,1.66,1.89,1.5,2.58c-.17.69-1.16,1.17-1.32,1.86s.78,1.61.64,2.3.1,1.44-.03,2.14-2.56.96-2.69,1.66.05,1.46-.06,2.15-.7,1.34-.8,2.04-.69,1.35-.79,2.05,2.59,1.77,2.51,2.47-1.46,1.25-1.54,1.95.76,1.5.69,2.21-2.49,1.19-2.56,1.9.08,1.45.03,2.15,1.45,1.54,1.4,2.24-1.26,1.34-1.3,2.04.42,1.45.38,2.15.65,1.46.61,2.15c-.05,1.03-1.06.98-1.11,2.02s-.54,1.01-.59,2.04,1.49,1.11,1.44,2.14-1.52.96-1.57,2,1.64,1.12,1.59,2.15-1.49.96-1.54,1.99c-.05,1.03-.48,1.01-.54,2.05s-.18,1.03-.23,2.06.32,1.05.27,2.09,1.15,1.1,1.09,2.13-.72,1-.77,2.04-.87.99-.92,2.03,2.7,1.17,2.65,2.21-1.56.96-1.61,2-.89.99-.94,2.03c-.05,1.03,2.04,1.14,1.99,2.17s-2.06.93-2.11,1.97-.86,1-.92,2.03,2.4,1.16,2.35,2.2-1.76.95-1.81,1.99,1.03,1.09.97,2.13.59,1.06.55,2.1-.54,1.04-.57,2.1-.24,1.06-.26,2.12,1.27,1.09,1.24,2.16-1.5,1.03-1.53,2.09,1.16,1.09,1.13,2.16-.8,1.04-.82,2.11c-.03,1.06-.5,1.05-.53,2.12s-.92,1.04-.94,2.11.54,1.08.51,2.14c-.03,1.06-.8,1.05-.83,2.11-.03,1.06.31,1.07.29,2.14s1.92,1.11,1.89,2.18-1.82,1.02-1.85,2.09-.38,1.06-.4,2.12,1.94,1.11,1.91,2.18.48,1.08.45,2.14-.4,1.06-.42,2.12.3,1.07.27,2.14-1.87,1.02-1.9,2.09c-.03,1.07.52,1.08.49,2.15s-1.33,1.04-1.36,2.1,2.72,1.14,2.69,2.2c-.02.68-.29,1.41-.33,2.12s-2.28,1.24-2.35,1.94-.44,1.32-.53,2.01.47,1.45.35,2.12-.61,1.27-.77,1.93c-.17.71,1.1,1.79.89,2.42-.24.7-1.59.88-1.9,1.45-.36.67.11,1.85-.34,2.3-.52.53-1.66-.49-2.32-.34-.75.16-1.1.62-1.74.51-.7-.12-1.33.08-1.91-.32-.54-.38-1.81-.2-2.26-.8-.4-.52.24-1.79-.09-2.45-.29-.59-.13-1.34-.37-2.03-.22-.63-1.9-.84-2.09-1.54-.17-.65-.95-1.25-1.09-1.95-.14-.67,1.79-1.74,1.68-2.45s-1.91-1.13-2-1.83-.6-1.36-.67-2.07.09-1.43.04-2.14.05-1.42.01-2.12,1.85-1.48,1.83-2.18c-.03-.7-1.98-1.34-2-2.04s1.65-1.43,1.64-2.13.47-1.4.47-2.09-2.4-1.42-2.39-2.11,2.4-1.38,2.41-2.07-1.6-1.44-1.59-2.13,1.98-1.36,2-2.04c.02-.72.09-1.41.11-2.09.02-.73-2.93-1.52-2.9-2.18.02-.71.43-1.42.45-2.13s.82-1.4.84-2.12-.64-1.45-.62-2.17,2.12-1.36,2.14-2.07-2.21-1.51-2.18-2.22,2.5-1.34,2.52-2.05.26-1.42.29-2.13-.77-1.46-.74-2.17.95-1.39.98-2.1-1.33-1.48-1.3-2.2.28-1.42.31-2.13.27-1.42.3-2.13-.35-1.44-.32-2.16,1.39-1.36,1.42-2.07-.35-1.44-.31-2.16-.64-1.46-.61-2.17-1.38-1.5-1.34-2.22,1.36-1.35,1.4-2.07-.92-1.48-.88-2.19.63-1.39.67-2.1,1.47-1.34,1.51-2.05c.04-.71.42-1.4.46-2.11s-1.84-1.55-1.79-2.26,1.17-1.35,1.22-2.06-1.9-1.56-1.85-2.27,1.05-1.36,1.1-2.07c.05-.71,1.61-1.31,1.67-2.02s-1.11-1.51-1.05-2.22,1.02-1.35,1.07-2.06.03-1.43.09-2.14-1.94-1.59-1.88-2.3,1.47-1.31,1.53-2.02c.06-.71-1.05-1.53-.99-2.24s1.19-1.32,1.26-2.03-1.16-1.54-1.09-2.25,3.07-1.14,3.14-1.85-1.16-1.55-1.09-2.26.84-1.35.91-2.06-1.2-1.56-1.13-2.27c.07-.69,1.64-1.22,1.72-1.93s-1.13-1.54-1.05-2.25-.45-1.48-.35-2.18,1.05-1.27,1.15-1.97.8-1.29.91-1.99-.89-1.57-.77-2.27.31-1.38.43-2.07-.05-1.45.09-2.14,1.56-1.12,1.7-1.81-1.32-1.73-1.17-2.42,1.61-1.08,1.78-1.77-.22-1.51-.04-2.19,2.13-.89,2.31-1.57-.8-1.67-.61-2.35.49-1.32.7-1.99-.86-1.76-.64-2.42,1.28-1.07,1.5-1.74,1.98-.78,2.23-1.44.45-1.31.71-1.96-1.27-2.02-1-2.67.56-1.31.84-1.95.12-1.52.42-2.15,1.51-.85,1.83-1.47,1.14-.99,1.47-1.61,1.36-.83,1.71-1.43-1.24-2.4-.87-2.99,2.6,0,2.99-.57.94-1.01,1.36-1.57-.3-1.97.13-2.52-.23-2.06.23-2.59,2.78.59,3.26.08.74-1.2,1.24-1.69,1.54-.33,2.07-.8,1.02-.86,1.57-1.29.43-1.71,1-2.11.2-2.31.8-2.68,1.72.05,2.34-.29,1.49-.2,2.13-.5,1.45-.16,2.1-.42.88-1.71,1.55-1.93,1.42-.31,2.1-.5,1.26-1.02,1.95-1.16,1.61.78,2.31.68,1.37-.55,2.08-.62,1.5,1.58,2.22,1.55,1.35.19,2.06.19.83-1.43,1.55-1.39c.34-.93.11-.78.11-1.77s-.81-.99-.81-1.98c0-.99,2.65-.99,2.65-1.98,0-.99.11-.99.11-1.98,0-.99-2.92-.99-2.92-1.98s2.39-.99,2.39-1.98.12-1.64-.56-2.36-1.38.25-2.37.19-1.01.32-1.99.27-.99-.05-1.97-.11-1.02.56-2.01.51-.94-.82-1.93-.87c-.69-.04-1.3-.92-1.99-1s-1.43.31-2.11.2-1.26-.66-1.94-.82-1.04-1.28-1.71-1.47-1.23-.4-1.89-.63-1.89,1.17-2.53.9-1.28-.57-1.9-.88-.85-1.33-1.45-1.67-1.7.14-2.28-.25-1.09-.9-1.64-1.32-1.8-.06-2.32-.51-.36-1.73-.86-2.21.12-1.99-.34-2.51-1.05-.86-1.49-1.41-1.52-.56-1.93-1.14.35-1.87-.03-2.46-.67-1.14-1.02-1.75-3.17.13-3.49-.5.31-1.74.02-2.38.92-1.9.65-2.55-1.08-1.04-1.33-1.7-.7-1.21-.92-1.88-2.26-.76-2.46-1.44c-.2-.67,2.23-2.09,2.04-2.77-.18-.67-1.25-1.1-1.42-1.79s.73-1.58.59-2.27-2.79-.87-2.92-1.56,1.26-1.65,1.15-2.35-.07-1.4-.17-2.09-1-1.28-1.09-1.98-.07-1.41-.14-2.11-1.51-1.29-1.57-1.99c-.06-.7,1.08-1.5,1.03-2.2s-1.13-1.36-1.16-2.06,1.45-1.47,1.43-2.17c-.02-.7,1.18-1.42,1.17-2.12,0-.7-.1-1.39-.1-2.09s.18-1.38.19-2.08c.01-.7-2.49-1.47-2.46-2.17s1-1.38,1.03-2.07.87-1.36.92-2.05-.72-1.46-.66-2.16-1.26-1.54-1.19-2.23,2.59-1.16,2.66-1.85.47-1.35.56-2.03.04-1.4.14-2.08-.65-1.46-.49-2.12-1-1.79-.78-2.42c.23-.66,1.84-.8,2.13-1.39.31-.64.81-1.1,1.17-1.63.41-.6.92-.92,1.38-1.35.55-.5,1.02-.45,1.61-.66.65-.23.75-.17,1.43.03.64.19,1.75-.55,2.28.08.42.5-.43,1.82-.08,2.54.3.61,2.15.6,2.41,1.33.23.66-1.23,1.85-1.04,2.58.18.68.69,1.26.85,2s.92,1.28,1.04,2.01,1.26,1.29,1.36,2.01c.1.72-.89,1.6-.81,2.32s-.41,1.51-.35,2.23.37,1.44.42,2.15c.06.75.46,1.45.49,2.15s.95,1.38.99,2.09-1.74,1.52-1.7,2.23.76,1.39.79,2.1-.3,1.44-.26,2.15.06,1.43.1,2.14,1.26,1.34,1.31,2.05-1.19,1.52-1.14,2.22-.38,1.47-.32,2.18,1.87,1.26,1.94,1.96-.93,1.53-.85,2.24,2.16,1.17,2.25,1.87-.65,1.51-.55,2.21-.61,1.53-.49,2.23,1.42,1.19,1.55,1.89-.69,1.57-.54,2.27-.52,1.58-.36,2.27,1.63,1.08,1.8,1.77,1.34,1.03,1.56,1.68c.24.69.28,1.3.57,1.92.31.66-1.27,2.33-.9,2.91.39.62.97,1.24,1.42,1.77s.74,1.52,1.26,1.98,2.59-1.02,3.19-.64.32,2.31.96,2.62,1.38.59,2.06.82,1.31.9,2.01,1.06,1.6-.55,2.31-.44,1.54-1.14,2.26-1.07,1.26,1.97,1.98,2.01,1.45-1.18,2.17-1.17,1.38-1.31,2.09-1.33,1.38.02,2.09-.01,2.37,1.78,3.09,1.75c.34-1.01-1.06-1.37-1.05-2.44s1.47-1.06,1.47-2.13-2.22-1.07-2.21-2.14,1.48-1.06,1.48-2.13-1.82-1.07-1.82-2.14,1.39-1.06,1.4-2.13-.59-1.07-.59-2.14-.64-1.07-.64-2.14,1.15-1.06,1.16-2.13-.86-1.07-.86-2.13.83-1.06.84-2.13-.63-1.07-.63-2.14.23-1.07.23-2.13c0-1.07.36-1.07.37-2.13s-1.07-1.07-1.07-2.14-.21-1.07-.21-2.14-.19-1.07-.18-2.14.84-1.07.84-2.14,1.09-1.07,1.09-2.13.12-1.07.12-2.14-1.14-1.07-1.14-2.14.81-1.07.81-2.14,1.42-1.07,1.42-2.13-1.2-1.07-1.2-2.14-1.69-1.07-1.69-2.14.65-1.07.65-2.14-.21-1.07-.2-2.14,2.21-1.06,2.21-2.13c0-1.07.01-1.07.02-2.14,0-1.07-2.43-1.08-2.43-2.15,0-.67,1.29-1.34,1.32-2.03.03-.67.34-1.33.4-2.01s-.75-1.45-.66-2.13.04-1.41.16-2.08,1.41-1.11,1.56-1.77-.36-1.52-.16-2.15c.21-.67,1.32-.96,1.58-1.57.28-.66-1.39-2.32-1.06-2.88.37-.62,3.03.54,3.47.08.5-.52.46-.98,1.05-1.26s.81-.38,1.52-.37,1.8-1.65,2.4-1.34,1.83.49,2.32,1.01c.44.47-.98,2.5-.61,3.12.33.56.47,1.12.75,1.77.26.6.63,1.11.85,1.78.2.63,1.81.89,1.98,1.56s-.09,1.43.04,2.11c.12.67-1.11,1.54-1.02,2.22s1.11,1.23,1.17,1.9.79,1.33.82,2c.03.7.84,1.4.84,2.07,0,1.07-2.37,1.07-2.37,2.14,0,1.07-.07,1.07-.07,2.13s-.01,1.07-.01,2.13-.28,1.07-.28,2.13.45,1.07.46,2.13,1.48,1.06,1.48,2.13-.34,1.07-.34,2.13c0,1.07.91,1.06.92,2.13s.31,1.06.32,2.13-.75,1.07-.75,2.13-.35,1.07-.35,2.13-1.12,1.07-1.12,2.14-.53,1.07-.53,2.13c0,1.07.37,1.06.37,2.13s2.26,1.06,2.26,2.13c0,1.07-1.79,1.07-1.79,2.14s1.02,1.06,1.02,2.13-.48,1.07-.47,2.14,1.34,1.06,1.35,2.13-1.36,1.07-1.35,2.14-.1,1.07-.09,2.13c0,1.07-.89,1.07-.89,2.14s1.29,1.06,1.3,2.13-.52,1.07-.52,2.13.27,1.07.27,2.13.95,1.07.95,2.13-.86,1.07-.86,2.14.26,1.07.27,2.14-1.05,1.07-1.05,2.14,1.03.89,1.37,1.9c.72.07.69.82,1.38.86.73.04,1.47-.66,2.16-.64.73.01,1.39-.94,2.08-.96.73-.03,1.44.73,2.12.66.72-.08,1.27-.79,1.95-.93s1.46.25,2.12.03,1.17-.7,1.81-.99,1.53-.04,2.13-.43,1.34-.57,1.89-1.05.7-1.28,1.18-1.83c.46-.51,2.22-.1,2.65-.7.4-.56.92-1.22,1.29-1.86.34-.59.3-1.53.62-2.19.29-.61-1.23-2.02-.98-2.64s.45-1.21.66-1.85.39-1.23.56-1.88,2.77-.73,2.91-1.38-1.28-1.65-1.17-2.32-.7-1.45-.61-2.12.86-1.23.93-1.9-.58-1.39-.52-2.06,1.01-1.26,1.05-1.93-.2-1.36-.16-2.03c.06-1.05,1.27-.98,1.33-2.04s-.13-1.07-.07-2.12-2.07-1.18-2.01-2.24,2.34-.92,2.4-1.98-1.77-1.16-1.71-2.22-.38-1.08-.31-2.14c.06-1.06.7-1.02.77-2.07s1.65-.96,1.72-2.01.53-1.03.59-2.08.26-1.04.32-2.1-.37-1.08-.31-2.14c.06-1.06-1.64-1.16-1.58-2.21.06-1.06-.75-1.11-.69-2.16s.11-1.06.17-2.11c.04-.69,2.7-1.14,2.85-1.9.14-.71-.06-1.44.16-2.17s-.25-1.62.02-2.32-.84-2.05-.53-2.7c.33-.71,1.88-.83,2.23-1.43.23-.39.63-1.94,1.35-2.17.57-.18,1.6.34,2.21.3.76-.05,1.92,0,2.3.21.59.35.94,1.29,1.43,1.8.46.49,1.29.88,1.66,1.49.34.57.26,1.48.54,2.14.26.62.28,1.36.49,2.05.19.65-1.1,1.65-.95,2.34s3.14.8,3.25,1.49-2.6,1.76-2.51,2.46.32,1.31.38,2.01,1.94,1.24,1.98,1.93-2.12,1.49-2.09,2.18.57,1.36.59,2.05.79,1.38.8,2.06,1.23,1.39,1.24,2.06-.11,1.4-.11,2.09-.87,1.39-.88,2.09.11,1.39.09,2.09.05,1.39.03,2.09-1.28,1.33-1.31,2.03.38,1.4.34,2.09,1.72,1.52,1.67,2.21.1,1.43.04,2.12-1.94,1.2-2.02,1.89c-.08.69,1.58,1.61,1.49,2.3s-1.53,1.2-1.64,1.88-.23,1.37-.35,2.05.93,1.6.79,2.28-.13,1.42-.28,2.1-2.31.89-2.48,1.56.27,1.5.09,2.17.43,1.58.23,2.25-2.04.8-2.26,1.46,1.47,1.99,1.22,2.65-2.67.46-2.93,1.1-.65,1.21-.95,1.85,1.35,2.26,1.02,2.88-.94,1.16-1.31,1.76-1.83.52-2.23,1.1-1.28.76-1.71,1.32.02,1.82-.45,2.35-1.4.6-1.9,1.1-.95,1.01-1.48,1.47-1.1.84-1.66,1.27-.99,1-1.58,1.39-.59,1.77-1.21,2.12-2.01-.8-2.65-.49-1.43.07-2.09.33-.74,1.98-1.42,2.2-1.23.95-1.92,1.13-1.64-.87-2.34-.74-1.39,0-2.1.09-1.22,2.52-1.94,2.56-1.5-2.26-2.22-2.26-1.37-.01-2.09-.06-1.32-.56-2.03-.65-.99,1.25-1.7,1.13c-.35.99-1.39.85-1.39,1.89s.16,1.05.16,2.1,1.18,1.05,1.18,2.1c0,1.05-1.81,1.05-1.81,2.1s2.24,1.05,2.24,2.1-1.92,1.05-1.92,2.11.12,1.29.46,2.29c.71-.04,1.94-.34,2.63-.35s1.47-1.09,2.16-1.06,1.39.99,2.08,1.06,1.2,1.51,1.89,1.62,1.6-.95,2.27-.8,1.06,1.41,1.72,1.61,1.98-1.46,2.63-1.22,1.43.41,2.07.7,1.14,1,1.76,1.33.84,1.4,1.43,1.77.9,1.15,1.47,1.56.65,1.38,1.2,1.82.92.96,1.44,1.43,1.59.28,2.08.78,1.84.18,2.32.7,1.02,1.01,1.47,1.56-.53,2.19-.11,2.76,2.53-.11,2.93.47-1.01,2.35-.63,2.95,2.75-.05,3.11.55.66,1.28,1,1.9-1.47,2.36-1.14,2.99,2.92.11,3.23.75.61,1.3.9,1.94-2,2.39-1.72,3.04,3.13.23,3.39.89.72,1.26.96,1.92.42,1.37.65,2.03-1.26,1.91-1.04,2.58.33,1.36.54,2.03,2.06.86,2.25,1.53-1.86,1.98-1.67,2.66.35,1.34.52,2.02.22,1.38.39,2.06,2.98.74,3.14,1.43c.16.69-1.34,1.75-1.19,2.43.15.69-.63,1.56-.49,2.25s.24,1.37.38,2.06,1.41,1.16,1.54,1.85.24,1.39.35,2.08-.06,1.43.05,2.12,1.87,1.14,1.97,1.84-.74,1.54-.64,2.23-.53,1.49-.44,2.18,1.12,1.28,1.21,1.97.6,1.35.68,2.04-2.12,1.65-2.04,2.34.28,1.4.36,2.11.33,1.4.4,2.11.02,1.43.09,2.14,2.6,1.19,2.67,1.9-.88,1.52-.81,2.23.31,1.41.38,2.12.15,1.42.2,2.13.63,1.38.69,2.09-1.64,1.56-1.58,2.27-.14,1.44-.08,2.15-.37,1.45-.32,2.16,2.14,1.28,2.19,1.99-1.6,1.53-1.55,2.24-.02,1.43.02,2.14c.04.71.3,1.41.34,2.12s-.64,1.46-.6,2.17,1.3,1.36,1.33,2.07-.68,1.46-.65,2.17,2.25,1.32,2.29,2.03c.03.71-2.46,1.54-2.43,2.26s1.69,1.35,1.72,2.06,1.07,1.38,1.1,2.09-2.69,1.54-2.66,2.25,1.68,1.36,1.7,2.07,1.5,1.37,1.53,2.08-1.26,1.47-1.23,2.19c.03.71.5,1.41.52,2.12s.38,1.41.4,2.13-1.81,1.48-1.79,2.2,1.52,1.38,1.54,2.09-1.49,1.47-1.46,2.18,1.25,1.39,1.27,2.1-.79,1.45-.77,2.16,2.22,1.36,2.24,2.08-.06,1.43-.04,2.14-1.81,1.48-1.79,2.19-.47,1.44-.45,2.16.23,1.42.25,2.14c.02.67,1.52,1.34,1.54,2.08.02.68-.91,1.41-.9,2.15.02.68.65,1.38.66,2.1s-1.57,1.42-1.57,2.14.7,1.39.71,2.11.69,1.41.69,2.12-1.66,1.39-1.67,2.1,2.62,1.46,2.61,2.17-2.5,1.33-2.53,2.04.6,1.43.56,2.14,1.5,1.53,1.45,2.23-2.41,1.22-2.48,1.92-.04,1.4-.12,2.09.62,1.51.52,2.19-.58,1.33-.72,2.01c-.14.72,1.9,1.94,1.73,2.6-.18.71-1.28,1.21-1.5,1.85-.24.71-1.77.85-2.06,1.45-.32.68.84,2.21.45,2.75-.44.62-1.28,1.17-1.81,1.58-.58.44-1.52.92-2.21,1.07-.65.15-1.35-1.6-2.11-1.74-.69-.13-2.06,1.03-2.61.48-.46-.46-.09-1.75-.46-2.45-.31-.59-1.76-.82-2.01-1.54-.23-.65.7-1.72.53-2.45-.17-.68-1.51-1.17-1.64-1.89s1.32-1.66,1.23-2.39.14-1.44.09-2.16-2.25-1.33-2.28-2.04,1.2-1.51,1.2-2.22.2-1.41.2-2.11.34-1.41.33-2.12.3-1.41.3-2.12-1.75-1.4-1.75-2.1c0-.7,2.22-1.42,2.22-2.13s-.1-1.41-.11-2.11-.46-1.41-.47-2.11-.11-1.41-.12-2.11-2.19-1.38-2.2-2.09,2.84-1.45,2.83-2.15-2.47-1.37-2.48-2.08-.2-1.4-.21-2.11,2.51-1.45,2.5-2.16.11-1.41.1-2.12-.87-1.39-.89-2.1-.81-1.39-.83-2.1-.9-1.39-.91-2.09,1.01-1.43.99-2.14,0-1.41-.02-2.11.52-1.42.5-2.13.67-1.43.65-2.13.34-1.42.32-2.12-.06-1.41-.08-2.11-1.19-1.37-1.21-2.08-.2-1.4-.22-2.11-.14-1.4-.17-2.11.14-1.41.11-2.12-1.88-1.34-1.91-2.04,1.02-1.45.99-2.15,1.91-1.49,1.88-2.19-2.44-1.31-2.47-2.01.61-1.43.58-2.14,1.51-1.48,1.48-2.18.04-1.41,0-2.12-.42-1.39-.46-2.09-.78-1.37-.81-2.08-2.16-1.3-2.2-2,.72-1.44.68-2.15,1.15-1.47,1.11-2.17-1.64-1.32-1.68-2.02-.3-1.39-.34-2.09.89-1.46.85-2.17-.93-1.36-.98-2.06.33-1.43.29-2.14-.35-1.37-.4-2.08.72-1.44.67-2.15,1.75-1.54,1.69-2.24-1.85-1.25-1.91-1.95-1.01-1.3-1.08-2.01,1.88-1.59,1.8-2.3-.28-1.38-.36-2.09-.74-1.33-.83-2.03.13-1.43.04-2.13.07-1.43-.03-2.13.02-1.43-.09-2.13-1.51-1.18-1.63-1.87,1.13-1.63,1-2.33-.73-1.3-.87-1.99-.48-1.34-.63-2.03-1.27-1.15-1.43-1.83-.64-1.28-.82-1.96,1.5-1.86,1.32-2.53-2.72-.68-2.92-1.35,1-1.77.78-2.43-1.92-.82-2.15-1.48.4-1.62.15-2.27.85-1.86.58-2.5-1.49-.9-1.78-1.54.25-1.69-.06-2.31-1.29-.94-1.62-1.56.04-1.66-.32-2.26-2.42-.16-2.8-.74.74-2.21.33-2.78-1.78-.43-2.22-.97.52-2.34.05-2.86-1.3-.81-1.8-1.3-1.69-.3-2.23-.75-1.24-.71-1.8-1.12-.78-1.38-1.37-1.76-1.44-.37-2.07-.69-1.09-1.03-1.74-1.32-1.89,1.05-2.56.81-1.16-.76-1.84-.94-1.24-.67-1.94-.8-1.23-.54-1.94-.62c-.35,1-1.2,1.03-1.2,2.09s.76,1.06.76,2.12-1.13,1.06-1.13,2.12.29,1.06.29,2.12,2.59,1.06,2.59,2.12-1.2,1.06-1.2,2.12c0,1.06-.12,1.06-.12,2.12s-1.09,1.06-1.1,2.12,1.01,1.06,1.01,2.12-.95,1.06-.96,2.12,1.34,1.06,1.34,2.13-1.8,1.06-1.8,2.13c0,1.06,1.75,1.06,1.75,2.13,0,1.06,1.01,1.06,1.01,2.13s-2.26,1.06-2.26,2.12,1.8,1.06,1.8,2.13-1.14,1.06-1.14,2.12,1.49,1.06,1.49,2.12c0,1.06-1.43,1.06-1.43,2.12s.15,1.06.15,2.12-.42,1.06-.42,2.12-.74,1.06-.74,2.12,1.19,1.06,1.19,2.13.42,1.06.42,2.13c0,1.06,0,1.06,0,2.13s.93,1.06.93,2.13-.78,1.06-.78,2.13.16,1.06.16,2.13c0,1.06.73,1.06.73,2.13s-1.39,1.06-1.39,2.12-1.29,1.06-1.29,2.12,1.07,1.06,1.07,2.13-.32,1.06-.32,2.13-.55,1.06-.55,2.13,1.34,1.07,1.34,2.13,1.12,1.06,1.12,2.13c0,1.06-1.81,1.06-1.81,2.13,0,1.06.45,1.06.45,2.13,0,1.06.92,1.06.92,2.13,0,1.06.2,1.06.2,2.13s-.48,1.06-.48,2.13-1.76,1.06-1.76,2.13,1.02,1.07,1.02,2.13-.55,1.06-.55,2.13.77,1.06.77,2.13c0,1.06,1.25,1.06,1.25,2.13q0,1.06,0,2.13c0,1.06-2.81,1.06-2.81,2.13s1.92,1.07,1.92,2.13-1.23,1.06-1.23,2.13-.58,1.06-.58,2.13.31,1.06.31,2.13,1.1,1.07,1.09,2.13-.69,1.06-.7,2.13,1.76,1.07,1.76,2.13-.82,1.06-.82,2.13-.21,1.07-.21,2.13-.88,1.06-.88,2.13,1.66,1.06,1.66,2.13c0,1.06-.9,1.06-.9,2.13s-.14,1.06-.14,2.13,0,1.06,0,2.13,1.12,1.06,1.12,2.13-1.57,1.06-1.57,2.13.05,1.06.05,2.13,1.54,1.06,1.54,2.13-1.94,1.06-1.94,2.13-.16,1.07-.16,2.13-.42,1.06-.42,2.13-.04,1.07-.04,2.13,1.26,1.07,1.26,2.13-.33,1.07-.33,2.13c0,1.07.44,1.07.44,2.13,0,1.07-.82,1.07-.82,2.13,0,1.07,1.76,1.07,1.76,2.13s-.09,1.06-.09,2.13-.12,1.07-.12,2.13c0,1.07-1.23,1.07-1.23,2.13,0,1.07,2.06,1.07,2.06,2.14s-2.48,1.07-2.48,2.13.11,1.07.11,2.14-.25,1.07-.25,2.14c0,.74.92,1.47.88,2.2s-1.3,1.33-1.37,2.06.72,1.53.6,2.25-.97,1.24-1.14,1.96-.48,1.29-.7,2,.08,1.5-.2,2.19c-.27.68,1.45,2.26,1.12,2.93s-1.95.67-2.33,1.32Z"/>
    <path class="cls-2" d="M341.85,442.53c-.3-.62-.29-.69-.56-1.3s-2.42-.47-2.66-1.09,1.78-2.05,1.57-2.69-2.19-.71-2.37-1.36-1.63-1.04-1.77-1.7,2.22-1.81,2.11-2.48-1.85-1.1-1.92-1.78-.13-1.38-.16-2.06.17-1.38.17-2.06c0-1.06.89-1.06.89-2.12,0-1.06.36-1.06.36-2.12s.74-1.06.74-2.12-1.9-1.06-1.9-2.12-.65-1.06-.65-2.12c0-1.06,2.11-1.06,2.11-2.13s-1.05-1.06-1.05-2.12-.03-1.06-.04-2.13c0-1.06-.88-1.06-.88-2.13s1.91-1.06,1.91-2.13-.49-1.06-.49-2.13-1.51-1.06-1.51-2.13-.5-1.06-.5-2.13c0-1.06,1.18-1.07,1.18-2.13s.5-1.06.5-2.13-1.5-1.06-1.5-2.13c0-1.06,1.61-1.06,1.61-2.13s1.15-1.06,1.15-2.13-.74-1.06-.74-2.13-.87-1.06-.87-2.13c0-1.06.04-1.06.04-2.13s-.08-1.06-.08-2.13-1.27-1.06-1.27-2.13c0-1.06.62-1.07.62-2.13s1.5-1.07,1.5-2.13-1.74-1.06-1.74-2.13,1.47-1.07,1.46-2.13-.8-1.06-.8-2.13,0-1.06,0-2.13.18-1.06.18-2.13,1.53-1.06,1.53-2.13-2.17-1.06-2.17-2.13,2.41-1.07,2.41-2.13-2.75-1.06-2.75-2.13.3-1.07.3-2.13c0-1.07,2.48-1.07,2.48-2.13s-1.56-1.06-1.56-2.13c0-1.06-.02-1.06-.02-2.13s-1.57-1.06-1.57-2.13,2.9-1.07,2.9-2.13-2.09-1.06-2.09-2.13,2.27-1.07,2.27-2.13-.4-1.07-.4-2.13-2.18-1.06-2.18-2.13.46-1.07.46-2.13c0-1.07.17-1.07.17-2.13s.93-1.07.92-2.13c0-1.07-1.1-1.07-1.1-2.13s.98-1.07.98-2.13-.74-1.07-.74-2.13c0-1.07-.8-1.07-.8-2.13,0-1.07,2.57-1.07,2.57-2.13s-.77-1.07-.77-2.13-.16-1.07-.16-2.13.64-1.07.64-2.13-.49-1.07-.49-2.13c0-1.07.96-1.07.96-2.13s-2.68-1.06-2.69-2.13,2.25-1.07,2.25-2.13-2.1-1.07-2.1-2.13,1.34-1.07,1.34-2.13-.16-1.06-.16-2.13-.02-1.06-.02-2.13,1.32-1.07,1.32-2.13-.55-1.07-.55-2.13-2.46-1.06-2.46-2.13,1.56-1.07,1.56-2.13,1.22-1.07,1.22-2.13-.93-1.07-.93-2.13-1.85-1.07-1.85-2.13c0-1.07,2.52-1.07,2.52-2.13s-1.01-1.07-1.01-2.13c0-1.07-.52-1.07-.52-2.13s-1.1-1.07-1.1-2.13c0-1.07,3.05-1.07,3.05-2.14s-1.7-1.06-1.7-2.13-.91-1.07-.91-2.13-.16-1.07-.16-2.14,1.8-1.07,1.8-2.14-1.2-1.07-1.2-2.14-.44-1.07-.44-2.14,2.82-1.57,2.47-2.58c-.71.06-2.78.07-3.46.17s-1.33.66-2.01.8-1.67-.73-2.34-.54-1.27.85-1.93,1.08-1.63-.1-2.27.18-.59,2.11-1.2,2.43-.63,1.61-1.22,1.98-1.99-.55-2.56-.14-.31,1.84-.85,2.28-1.84-.04-2.36.44-1.5.5-1.98,1.01.61,2.4.15,2.94-.91.97-1.34,1.53-.84,1.04-1.24,1.61-1.66.54-2.04,1.13-1.83.55-2.18,1.16-1.09,1.05-1.42,1.67-.35,1.44-.66,2.07-.92,1.16-1.2,1.8,2.28,2.48,2.02,3.13-2.72.43-2.97,1.09-1.13,1.11-1.35,1.78,2.49,2.29,2.28,2.96-3.13.5-3.33,1.17-.63,1.3-.81,1.98,1.85,1.93,1.68,2.61.27,1.48.11,2.17-.51,1.3-.65,1.98-.29,1.35-.42,2.04-1.7,1.1-1.83,1.78-.42,1.35-.54,2.04-1.02,1.27-1.13,1.96-.28,1.39-.38,2.08.13,1.45.04,2.14,1.4,1.59,1.32,2.28-2.15,1.17-2.22,1.86,1.62,1.58,1.56,2.27-.98,1.32-1.04,2.02,1.66,1.55,1.61,2.24-2.12,1.24-2.17,1.93.74,1.46.69,2.15-1.59,1.31-1.63,2,.92,1.46.89,2.15c-.05,1.03-.33,1.02-.38,2.05s-.59,1.01-.65,2.04,1.64,1.12,1.59,2.15c-.05,1.03-.74,1-.8,2.03-.05,1.03-.93.99-.98,2.03-.05,1.03.23,1.05.18,2.08s1.25,1.1,1.2,2.14-1.76.95-1.81,1.98,1.31,1.1,1.26,2.14.76,1.08.71,2.11.11,1.04.06,2.08c-.05,1.04.16,1.05.1,2.08s-1.42.97-1.47,2-1.36.97-1.41,2.01.89,1.08.83,2.12.64,1.07.59,2.1-.14,1.03-.19,2.07.68,1.07.62,2.11.66,1.07.61,2.11-2.92.89-2.97,1.93,1.2,1.1,1.15,2.14-.17,1.03-.21,2.07,1.61,1.11,1.59,2.19-.59,1.06-.62,2.14-2.48,1.02-2.51,2.09.44,1.09.41,2.16.02,1.08,0,2.15.89,1.1.87,2.17,1.65,1.12,1.63,2.19-2.68,1.01-2.71,2.09.44,1.09.41,2.16c-.03,1.08-.95,1.05-.97,2.13s1.29,1.11,1.27,2.19-.48,1.07-.5,2.14.84,1.1.82,2.18-1.76,1.04-1.79,2.11,2.76,1.14,2.73,2.22-2.59,1.02-2.61,2.09c-.03,1.08,1.96,1.13,1.93,2.2s.14,1.08.11,2.16-1.22,1.05-1.24,2.13-1.05,1.06-1.08,2.14c-.03,1.08-.06,1.08-.08,2.16-.02.71,1.17,1.46,1.13,2.19s.03,1.45-.03,2.17-.78,1.37-.86,2.09,2.08,1.8,1.96,2.5-.72,1.44-.88,2.13c-.17.74-.66,1.45-.88,2.11-.24.73-1.01,1.3-1.31,1.91-.36.71-.5,1.71-.95,2.19-.54.56-1.9-.41-2.59-.26-.75.16-1.15.33-1.79.22-.7-.12-2.34,1.52-2.92,1.12-.54-.38.83-2.87.39-3.47-.39-.52-2.47-.02-2.8-.69-.29-.59.76-1.81.52-2.5-.22-.63-1.98-.83-2.17-1.54-.17-.65-.13-1.43-.27-2.14-.14-.67,1.73-1.71,1.62-2.42s-1.71-1.13-1.8-1.84-1.19-1.28-1.26-1.99,1.22-1.52,1.17-2.22-1.53-1.31-1.57-2.01-.29-1.41-.32-2.11,2.48-1.48,2.46-2.18-2.08-1.36-2.09-2.06,1.61-1.42,1.61-2.11-.38-1.41-.37-2.1-.32-1.42-.31-2.1-.66-1.43-.64-2.11c.02-.72,1.47-1.39,1.49-2.06.02-.73-1.91-1.48-1.89-2.15.02-.71.28-1.41.31-2.12s.45-1.41.47-2.12,1.11-1.39,1.14-2.1c.02-.71-.6-1.44-.58-2.15s-.42-1.43-.39-2.14.73-1.4.75-2.11,1.63-1.37,1.65-2.08-2.75-1.51-2.72-2.22,1.84-1.36,1.87-2.07-1.26-1.47-1.24-2.18.54-1.4.57-2.11,0-1.42.03-2.13,1.8-1.35,1.83-2.06-.46-1.44-.43-2.15.79-1.38.82-2.09-1.67-1.49-1.63-2.2-1.36-1.48-1.32-2.19,1.86-1.33,1.89-2.04-1.63-1.5-1.59-2.21,2.92-1.27,2.96-1.98-2.29-1.54-2.25-2.25,2.2-1.3,2.24-2-2.57-1.57-2.53-2.28,2.68-1.26,2.72-1.96.33-1.4.37-2.1-1.29-1.51-1.24-2.21,1.49-1.32,1.54-2.02.21-1.4.26-2.11-1.67-1.54-1.61-2.25-.01-1.42.04-2.13.88-1.35.93-2.06.93-1.34.99-2.05-.62-1.47-.56-2.18-.99-1.51-.93-2.22,1.47-1.29,1.54-1.99-.31-1.45-.24-2.16-.22-1.45-.15-2.15,1.08-1.31,1.16-2.02-1.19-1.55-1.11-2.26,2.28-1.17,2.36-1.88-1.42-1.59-1.34-2.29,1.71-1.24,1.81-1.95-2.3-1.77-2.2-2.48.33-1.42.44-2.13,1.85-1.16,1.97-1.87-.08-1.47.05-2.18.36-1.39.5-2.1.98-1.26,1.12-1.97-1.74-1.85-1.58-2.55.68-1.33.85-2.03,2.42-.89,2.59-1.59-1.87-1.96-1.69-2.65,2.4-.84,2.59-1.54-.58-1.65-.38-2.34.25-1.42.46-2.11-1.05-1.83-.83-2.52.74-1.26.96-1.93,1-1.16,1.23-1.82-.22-1.6.03-2.25,2.7-.45,2.97-1.09-.02-1.51.27-2.15-.36-1.71-.06-2.34-.37-1.78-.06-2.4,1.14-1.03,1.47-1.65,1.46-.81,1.82-1.42c.36-.61-.46-1.95-.09-2.55s1.73-.59,2.12-1.17.03-1.74.45-2.3.71-1.3,1.15-1.85.84-1.22,1.3-1.75,1.64-.48,2.12-.99.58-1.47,1.09-1.96,2.48.62,3.01.16.39-1.72.94-2.15,1.53-.28,2.1-.68,1.27-.56,1.87-.93,1.39-.28,2.01-.61.01-3.15.65-3.45,1.58-.06,2.24-.32,2.12,1.81,2.79,1.59.71-2.5,1.39-2.68,1.43-.21,2.12-.35,1.29-1.07,2-1.17,1.49.15,2.2.09,1.45.06,2.16.03,1.43.81,2.15.82.77-.09,1.48-.05c.34-1.08.09-.94.08-2.07,0-1.14.27-1.14.27-2.28s-1.18-1.14-1.18-2.27c0-1.14.27-1.14.26-2.28,0-1.14,2.42-1.15,2.42-2.29,0-1.14-.82-1.14-1.57-2-.7-.8-.69-1.07-1.75-1.13s-1.02-.61-2.07-.68-1.06-.03-2.11-.1-1.14,1.23-2.2,1.16-.96-1.63-2.01-1.7c-.72-.05-1.44.71-2.13.63s-1.67,1.42-2.36,1.3-.87-2.69-1.54-2.86-1.98,1.87-2.65,1.66-.72-2.22-1.37-2.48-2.18,1.45-2.81,1.14-.06-2.95-.68-3.3-1.29-.44-1.88-.82-1.54-.16-2.11-.59-1.78-.05-2.31-.51.03-2.11-.48-2.6-2.74.68-3.22.15-.49-1.52-.94-2.07-1.61-.62-2.03-1.2-.8-1.26-1.19-1.86-.09-1.67-.45-2.28.36-1.83.03-2.46-2.6-.29-2.91-.93,1.7-2.35,1.42-3-1.29-.98-1.55-1.64-1.01-1.14-1.24-1.81c-.23-.67-.75-1.26-.96-1.94s.74-1.7.54-2.38-.31-1.37-.48-2.06-.09-1.41-.25-2.11-1.92-1.05-2.06-1.75-.08-1.45-.2-2.15-.21-1.42-.31-2.12.96-1.55.88-2.26.45-1.45.39-2.16-.58-1.36-.63-2.06-1.28-1.35-1.31-2.06c-.03-.71.97-1.45.96-2.16s.11-1.41.11-2.12c0-1.06.88-1.06.88-2.12,0-1.06-.21-1.06-.21-2.12s-1.28-1.06-1.28-2.12-1.3-1.06-1.3-2.13,2.77-1.06,2.77-2.12c0-.7-1.24-1.42-1.21-2.16s-1.06-1.49-1.01-2.22.25-1.45.32-2.17,2.48-1.16,2.58-1.88-1.1-1.59-.98-2.3-.57-1.6-.42-2.29,1.66-1.09,1.85-1.77c.2-.72.87-1.18,1.11-1.83.26-.71-1.54-2.26-1.23-2.87.35-.69,1.73-.75,2.14-1.29.47-.61.16-2.27.73-2.63.62-.4,1.94.18,2.67.12s1.28.53,1.87.85c.56.3.55,1.03,1.01,1.62.39.5,2.61,0,2.93.66.28.58-.73,1.82-.49,2.51.21.62.31,1.3.48,1.99.16.64,1.69,1.04,1.82,1.73s.4,1.36.51,2.05-.68,1.5-.6,2.19-.77,1.46-.7,2.15.33,1.34.38,2.03.54,1.34.58,2.02-.9,1.44-.87,2.11c.04.7.51,1.36.54,2.03.03.71.29,1.38.32,2.04.04,1.09.78,1.06.82,2.15s-1.48,1.14-1.44,2.23-.71,1.11-.67,2.2c.04,1.09,1.37,1.04,1.41,2.13s1.26,1.05,1.3,2.14.58,1.07.62,2.16c.03.73-2.42,1.57-2.38,2.3s.92,1.42.97,2.15.03,1.47.1,2.2-.33,1.52-.25,2.25-.24,1.54-.14,2.26,1.61,1.23,1.74,1.94,1.03,1.26,1.19,1.97-1.29,1.82-1.1,2.53,2.43.79,2.65,1.49-1.35,1.98-1.1,2.67.41,1.44.71,2.05c.32.66.1,1.71.47,2.29.39.61.72,1.48,1.16,2,.46.55,2.95-.85,3.47-.39s.75,1.1,1.33,1.49,1.3.27,1.93.58,1.15.49,1.82.72.83,1.94,1.52,2.11,1.49-.32,2.19-.2,1.36.2,2.07.27,1.3,1.67,2.01,1.71,1.46-.76,2.17-.75,1.4-.83,2.11-.84,1.43,1.02,2.14.99.87-.77,1.59-.81c.34-1.01,1.73-.9,1.74-1.96s-.86-1.07-.86-2.14-1.6-1.07-1.6-2.14.34-1.07.35-2.13c0-1.07-.32-1.07-.32-2.14s.1-1.07.11-2.13-.34-1.07-.34-2.13.08-1.07.08-2.14.12-1.07.13-2.13.21-1.07.21-2.13.57-1.06.57-2.13,1.49-1.06,1.49-2.13-1.31-1.07-1.31-2.14c0-1.07.87-1.06.87-2.13s.21-1.07.21-2.13.56-1.07.57-2.14-2.83-1.07-2.82-2.14,2.11-1.06,2.11-2.13.64-1.07.64-2.13-.69-1.07-.69-2.14.56-1.07.56-2.14c0-1.07-.93-1.07-.93-2.14s1.21-1.07,1.21-2.14-.47-1.07-.47-2.14c0-1.07-.18-1.07-.17-2.14s-2.24-1.08-2.24-2.15.7-1.07.7-2.14,1.59-1.07,1.59-2.14-.84-1.07-.83-2.15.54-1.07.54-2.14c0-.66-1.89-1.42-1.85-2.11s.52-1.38.58-2.07,1.04-1.28,1.13-1.96-1.05-1.59-.93-2.26,2.26-.95,2.42-1.6.7-1.18.9-1.82c.21-.67.52-1.18.78-1.79.28-.66.74-1,1.08-1.56.37-.62-1-2.43-.56-2.9.49-.53,2.18.72,2.76.43s.71-1.36,1.42-1.36.91.86,1.52,1.17,2.34-.92,2.84-.39c.44.47-1.2,2.5-.83,3.12.33.56,1.05.78,1.33,1.44.26.61.13,1.27.34,1.95.2.63.84,1.09,1,1.77s-.41,1.41-.28,2.09,3.04.9,3.13,1.57-2.61,1.67-2.55,2.35,3.07,1.17,3.1,1.84-.42,1.45-.42,2.12c0,1.06-2.64,1.07-2.64,2.14s2.63,1.06,2.63,2.12c0,1.06.58,1.06.59,2.12,0,1.06-.62,1.07-.62,2.13s-.33,1.06-.33,2.13-1.14,1.07-1.13,2.13c0,1.06-.1,1.06-.1,2.13s.51,1.06.52,2.13-.03,1.06-.03,2.12c0,1.06-.37,1.06-.37,2.12,0,1.06-.6,1.06-.6,2.13s-.05,1.06-.04,2.13,2.07,1.06,2.08,2.12c0,1.06-2.23,1.07-2.22,2.13s2.4,1.06,2.41,2.12-1.45,1.07-1.45,2.13c0,1.06,1.24,1.06,1.25,2.12s-2.1,1.07-2.1,2.13,1.53,1.06,1.53,2.12-1.61,1.07-1.61,2.13.21,1.06.22,2.13c0,1.06,2.29,1.06,2.29,2.12s-1.18,1.07-1.18,2.13c0,1.06.16,1.06.17,2.13,0,1.06-1.4,1.07-1.4,2.13s-.21,1.07-.21,2.13,3.04,1.06,3.04,2.12-1.68,1.07-1.68,2.14.44,1.07.44,2.13c0,1.07.26.82.58,1.84.71.08.62-1.08,1.3-1.03.71.06,1.25,2.22,1.93,2.25.72.03,1.44-.7,2.12-.71.72,0,1.45.71,2.13.66.71-.05,1.54.39,2.21.28s.81-2.74,1.47-2.93,1.53.51,2.16.24,1.98.73,2.58.36.61-1.63,1.15-2.09.28-1.59.76-2.12c.45-.5,2.83.51,3.25-.08.39-.54-1.41-2.57-1.04-3.19.34-.58,1.81-.53,2.13-1.18s-.4-1.74-.13-2.41.9-1.16,1.13-1.84.17-1.42.36-2.11,0-1.44.15-2.14.02-1.41.14-2.12,1.43-1.21,1.53-1.93.98-1.34,1.05-2.06.26-1.44.32-2.16.52-1.42.56-2.15-2.56-1.61-2.51-2.33c.06-1.03,1.73-.93,1.79-1.95s.06-1.03.12-2.05c.06-1.03,1.42-.95,1.48-1.97s-.96-1.09-.9-2.11-1.37-1.11-1.3-2.14.1-1.02.16-2.05,2.47-.88,2.53-1.91-.65-1.07-.59-2.09.72-.99.78-2.01c.06-1.03-1.54-1.12-1.48-2.15s1.47-.94,1.53-1.97c.06-1.03-.53-1.06-.47-2.09s.58-1,.64-2.03-1.52-1.12-1.46-2.15c.04-.69-.71-1.66-.56-2.42.14-.7.24-1.57.45-2.3s2.89-.6,3.15-1.29-.85-1.95-.54-2.6c.33-.71.16-1.72.51-2.31.24-.4,1.71-.07,2.44-.31.58-.19,1.1-1.57,1.71-1.61.76-.05,2.15.03,2.53.25.59.35,1.31,1.1,1.79,1.61.46.49.81,1.36,1.18,1.97.34.57,1.21,1.1,1.48,1.76.26.62.02,1.56.23,2.25.19.65.54,1.35.69,2.04s-.34,1.5-.22,2.2.2,1.38.29,2.08-1.5,1.53-1.44,2.23,1.24,1.28,1.28,1.97.34,1.37.37,2.06.4,1.39.42,2.08-.56,1.41-.54,2.1c.01.71-.92,1.42-.9,2.09.01.71.12,1.4.12,2.11s1.24,1.42,1.23,2.13-.49,1.41-.52,2.11-.67,1.38-.71,2.09,1.84,1.53,1.79,2.24-1.49,1.31-1.55,2.01-1.17,1.29-1.25,1.99,2.28,1.7,2.19,2.4.13,1.48.02,2.17-3.15.92-3.27,1.61,2.7,1.95,2.56,2.64-.91,1.28-1.07,1.97-2.46.86-2.63,1.55,2.42,2.11,2.23,2.79-.59,1.34-.8,2.02-2.29.76-2.51,1.43-1.13,1.07-1.37,1.74,1.87,2.23,1.6,2.88-2.96.3-3.25.95.1,1.56-.2,2.2,0,1.56-.32,2.19.45,1.85.11,2.47-3.11-.12-3.46.49.36,1.86-.04,2.46-.97,1.06-1.4,1.64-.06,1.82-.53,2.37-.4,1.69-.91,2.2-2.88-.95-3.43-.47-.63,1.41-1.2,1.85-1.12.85-1.72,1.24-1.13.85-1.77,1.2-1.62-.15-2.27.15-1.03,1.08-1.71,1.33-1.22.77-1.92.97-1.38.29-2.09.43-1.29.97-2.01,1.06-1.52-1.13-2.24-1.09-1.39,1.75-2.12,1.74-1.31-2.04-2.03-2.1-1.62,1.69-2.35,1.58-1.14-.62-1.86-.78c-.36.99-.24.98-.24,2.04,0,1.06-.6,1.06-.6,2.12s.99,1.06.99,2.12-.48,1.06-.48,2.12.64,1.06.64,2.12.38,1.06.38,2.12-.73.95-.38,1.95c.72-.05.92-.54,1.61-.56s1.4,1.58,2.09,1.61,1.32.49,2.02.56,1.79-2.74,2.48-2.63,1.49.32,2.17.47,1.41.57,2.08.78.45,3.08,1.11,3.32,1.79-.76,2.43-.47,1.13.86,1.75,1.19,1.86-.37,2.46,0,.06,2.43.64,2.84.94.97,1.49,1.41,1.98-.21,2.51.26.97,1.02,1.47,1.53,2.15-.05,2.62.48-.8,2.57-.35,3.12,1.16.84,1.59,1.41,1.63.56,2.04,1.14-.1,1.76.28,2.35.63,1.24.99,1.85,1.94.51,2.28,1.13.85,1.17,1.17,1.8,1.12,1.05,1.42,1.69.62,1.31.91,1.95-.96,1.97-.68,2.62,1.06,1.09,1.32,1.75-.5,1.7-.26,2.36.72,1.23.96,1.89-.11,1.51.11,2.18.76,1.22.97,1.9,1.24,1.1,1.44,1.78.47,1.34.66,2.02-.55,1.61-.37,2.29,1.79,1.01,1.96,1.69-.11,1.49.05,2.17.8,1.28.95,1.97-1.57,1.78-1.43,2.47,1.49,1.14,1.63,1.83-.36,1.51-.24,2.2-.28,1.48-.16,2.17,1.74,1.15,1.85,1.84.66,1.34.76,2.04-.4,1.49-.3,2.19-.98,1.56-.89,2.26-.13,1.44-.04,2.13.7,1.34.77,2.03-.25,1.46-.17,2.17,1.53,1.27,1.6,1.98.35,1.4.43,2.11.4,1.4.47,2.11.5,1.39.56,2.1-.36,1.47-.3,2.18.77,1.37.83,2.08-.15,1.45-.09,2.16-1.69,1.56-1.64,2.28c.05.71,1.44,1.32,1.49,2.03s-1.63,1.55-1.58,2.26.16,1.42.21,2.13-.26,1.44-.22,2.15,2.67,1.27,2.71,1.98-2.27,1.56-2.23,2.27-.01,1.43.03,2.14,1.79,1.33,1.82,2.05-1.45,1.5-1.42,2.21-.08,1.43-.04,2.14-.17,1.43-.14,2.14,2.56,1.32,2.59,2.03-1.61,1.49-1.58,2.21,1.66,1.36,1.69,2.07-.95,1.46-.93,2.17.07,1.42.1,2.14-.95,1.46-.93,2.17.89,1.4.91,2.11-.07,1.43-.05,2.14,1.33,1.39,1.35,2.1-1.13,1.46-1.11,2.17-1.31,1.46-1.29,2.17.46,1.41.48,2.13,2.51,1.36,2.53,2.07-1.38,1.46-1.36,2.17.44,1.42.46,2.13-.29,1.43-.27,2.15,1.24,1.4,1.25,2.11.32,1.42.34,2.14c.02.66-.46,1.38-.44,2.11.02.67-2.39,1.44-2.38,2.17.02.68,1.66,1.34,1.68,2.06s-1.35,1.41-1.34,2.12,1.42,1.37,1.42,2.08.06,1.4.06,2.1-.74,1.4-.74,2.1,1.67,1.42,1.66,2.13-2.82,1.34-2.84,2.04,1.63,1.45,1.6,2.15-.32,1.39-.36,2.09,1.47,1.53,1.42,2.22c-.05.71-.7,1.38-.77,2.07s-1.58,1.25-1.67,1.93.18,1.44.07,2.12-.92,1.25-1.06,1.92c-.15.71.19,1.47.02,2.13-.19.71.13,1.52-.09,2.16-.24.7-2.02.64-2.31,1.24-.32.68.61,1.85.23,2.39-.44.61-1.31.52-1.83.92-.57.44-.4,2.51-1.08,2.66-.64.15-1.68-.27-2.43-.41-.69-.12-.89-1.4-1.44-1.96-.46-.47-1.77-.47-2.13-1.18-.31-.6.01-1.58-.24-2.31-.23-.66.74-1.64.56-2.38-.17-.68-1.78-1.06-1.91-1.79s-1.11-1.33-1.2-2.06,1.14-1.6,1.08-2.33-1.35-1.4-1.38-2.12,2.32-1.52,2.31-2.22-.67-1.4-.67-2.1-1.78-1.4-1.78-2.1,1.5-1.41,1.49-2.11-1.95-1.39-1.95-2.09.5-1.4.49-2.11-.32-1.4-.33-2.1,1.72-1.42,1.72-2.12,1.07-1.42,1.07-2.12-.73-1.4-.73-2.1.44-1.41.43-2.11-1.07-1.39-1.08-2.09-1.23-1.38-1.24-2.08,2.51-1.44,2.5-2.15-1.21-1.38-1.22-2.08-.84-1.39-.85-2.09,2.14-1.45,2.13-2.15c-.01-.7-.51-1.39-.52-2.09s-1.71-1.36-1.72-2.06.53-1.41.51-2.11c-.02-.7.36-1.41.34-2.11s-1.36-1.36-1.38-2.06c-.02-.7-.69-1.38-.71-2.08s.64-1.42.61-2.12.38-1.41.36-2.11.21-1.41.18-2.11-1.42-1.35-1.45-2.05.68-1.42.66-2.12,2.19-1.48,2.17-2.18-1.21-1.36-1.24-2.06c-.03-.7-1.27-1.35-1.3-2.05s.07-1.4.04-2.1,2.07-1.49,2.04-2.19-.04-1.4-.07-2.1-2.38-1.29-2.41-1.99,1.32-1.46,1.28-2.16-.09-1.4-.13-2.1-.1-1.4-.13-2.1-1.9-1.3-1.94-2-.06-1.4-.09-2.1-.16-1.39-.2-2.09,2.49-1.54,2.45-2.25-1.57-1.31-1.62-2.01,1.48-1.49,1.43-2.19-.23-1.39-.27-2.09.15-1.42.11-2.12-2.57-1.23-2.62-1.95,1.71-1.53,1.65-2.24.67-1.47.61-2.18-.53-1.37-.59-2.08.44-1.47.37-2.18-1.85-1.22-1.93-1.93-.84-1.32-.92-2.02,1.71-1.64,1.62-2.34-.91-1.3-1.02-2.01.9-1.57.79-2.27-2.44-1.04-2.56-1.73-.06-1.41-.19-2.11.65-1.56.51-2.25-1.58-1.11-1.73-1.8.94-1.65.78-2.34-.67-1.29-.85-1.98.14-1.5-.05-2.18.28-1.56.08-2.24-2.36-.76-2.57-1.43.2-1.54-.03-2.21-.51-1.31-.75-1.97.88-1.88.62-2.53-2.52-.47-2.8-1.11-.94-1.08-1.24-1.71,1.92-2.56,1.59-3.18-1.46-.85-1.82-1.46-.15-1.61-.53-2.2-2.48-.04-2.89-.61-1.3-.72-1.74-1.27,1.26-2.92.79-3.44-2.63.53-3.13.03-.17-1.87-.7-2.33-2.14.48-2.71.05-.71-1.32-1.3-1.7-1.29-.44-1.92-.77-.68-1.75-1.33-2.03-1.85,1.03-2.52.8-1.19-.53-1.88-.71-1.27-.29-1.97-.41-.1-1.22-.82-1.3c-.35,1-1.37.7-1.37,1.76s-.67,1.06-.67,2.12.08,1.06.08,2.12-.34,1.06-.34,2.12,2.23,1.06,2.23,2.13-1.23,1.06-1.23,2.12c0,1.06.92,1.06.92,2.13,0,1.06.41,1.06.41,2.13,0,1.06-.15,1.06-.15,2.13s-1.85,1.06-1.85,2.13c0,1.06-.46,1.06-.46,2.13s.21,1.07.21,2.13.21,1.07.21,2.13.73,1.06.73,2.13-.56,1.06-.56,2.13c0,1.06.85,1.06.85,2.13s-.68,1.06-.68,2.13.25,1.06.25,2.13,1.58,1.06,1.58,2.13-.16,1.06-.16,2.13-2.34,1.06-2.34,2.13c0,1.06,2.15,1.06,2.15,2.13s-.08,1.06-.08,2.13-.57,1.06-.57,2.13-.56,1.07-.56,2.13,1.04,1.07,1.04,2.13-.88,1.06-.88,2.13,0,1.06,0,2.13,1.38,1.06,1.38,2.13-2.15,1.06-2.16,2.13.63,1.06.63,2.13-.25,1.06-.25,2.13,1.41,1.07,1.41,2.13-1.85,1.06-1.85,2.13c0,1.07.28,1.07.28,2.13,0,1.07.47,1.07.47,2.13s-.72,1.06-.72,2.13,1.12,1.07,1.12,2.13c0,1.06-1.21,1.06-1.21,2.13s-.38,1.06-.38,2.13.15,1.07.15,2.13,1.01,1.07,1.01,2.13.3,1.07.3,2.13.46,1.07.45,2.13-.36,1.06-.36,2.13c0,1.07,1.01,1.07,1.01,2.13s.4,1.07.4,2.13-2.04,1.07-2.04,2.13.1,1.07.1,2.13.21,1.07.21,2.13.21,1.07.21,2.13,1.44,1.07,1.44,2.13-2.21,1.07-2.22,2.13,1.73,1.07,1.73,2.13c0,1.07-.63,1.07-.63,2.13s-.11,1.07-.11,2.13.5,1.07.5,2.13-.33,1.07-.33,2.13-1.84,1.06-1.84,2.13,1.83,1.07,1.83,2.13-.78,1.06-.78,2.13-.76,1.06-.76,2.13.31,1.06.31,2.13c0,1.07,1.03,1.07,1.03,2.13s-1.64,1.07-1.65,2.13,2.09,1.07,2.09,2.13-1.61,1.07-1.61,2.13c0,1.07-.22,1.07-.22,2.13s2.46,1.07,2.46,2.13-1.86,1.07-1.86,2.13.92,1.07.92,2.13-.87,1.07-.87,2.13c0,1.07-.53,1.07-.53,2.13s2.45,1.07,2.45,2.14-.66,1.07-.66,2.13.76,1.07.76,2.13c0,1.07-.42,1.07-.42,2.13s-2.13,1.07-2.13,2.14,1.79,1.07,1.79,2.14.81,1.07.81,2.14-1.15,1.07-1.15,2.14-.76,1.07-.76,2.14c0,.76-.63,1.44-.67,2.18s.86,1.56.77,2.3.71,1.65.57,2.39-.32,1.52-.49,2.24-1.77,1.08-1.99,1.8.55,1.75.3,2.46-2.23.73-2.51,1.43.32,1.53.02,2.21c-.58.2-.83,1.29-1.57,1.39-.65.09-1.45-1.59-2.15-1.58s-1.28.25-1.95.19c-.71-.06-.62-.33-1.24-.47Z"/>
  </g>
  <path class="cls-1" d="M270,510.47s0-.04,0-.04c-.71,0-1.42.25-2.13.24s-1.39-1.88-2.1-1.9-1.4-.41-2.1-.43-1.51,2.78-2.21,2.76-1.4-.59-2.11-.62-1.33-1.65-2.04-1.69-1.57,2.4-2.27,2.35-1.21-3.12-1.91-3.17-1.38-.4-2.08-.46-1.57,1.72-2.27,1.66-1.35-.7-2.06-.78-1.49.61-2.19.53-1.31-.98-2.01-1.06-1.68,1.93-2.38,1.84-.88-4.04-1.58-4.14-1.47.36-2.16.26-1.72,1.9-2.42,1.79-1.44,0-2.14-.12-.83-3.48-1.52-3.6-1.96,2.89-2.66,2.76-.8-3.29-1.49-3.42-1.7,1.32-2.39,1.18-1.52.35-2.21.2-1.58.56-2.27.4-1.3-.69-1.99-.85-.96-2.03-1.65-2.2-1.98,2.05-2.66,1.87-1.42-.23-2.1-.41-1.31-.64-1.99-.82-1.49.03-2.17-.17-.99-1.69-1.67-1.89-.86-2.03-1.53-2.23-1.96,1.55-2.64,1.34-.76-2.23-1.43-2.45-1.68.59-2.35.36-1.39-.31-2.05-.54-1.76.71-2.42.47-.71-2.19-1.37-2.44-1.98,1.25-2.64,1-1.03-1.29-1.68-1.55-1.87.85-2.53.58-.89-1.59-1.54-1.86-.51-2.44-1.15-2.72-2.2,1.54-2.85,1.26-1.03-1.18-1.67-1.47-.59-2.1-1.24-2.4-2.3,1.6-2.94,1.3-1.32-.54-1.96-.84-.11-3-.74-3.31-2.53,1.91-3.16,1.59.3-3.68-.33-4.01-2.13,1.04-2.76.71-2.23,1.15-2.85.81-1.15-.88-1.77-1.23-.69-1.68-1.3-2.03.16-3.1-.46-3.46-2.08.78-2.69.42-2.11.76-2.71.4.65-3.76.05-4.13-3.01,2.17-3.61,1.79-1.22-.74-1.81-1.12-1.17-.82-1.76-1.21.38-3.13-.2-3.53-2.53,1.22-3.11.83-1.81.12-2.39-.29.77-3.56.2-3.97-2.22.67-2.79.26-.51-1.69-1.08-2.11-.91-1.13-1.48-1.55-1.18-.77-1.74-1.2-1.43-.45-1.99-.89-2.7,1.13-3.25.69.21-2.53-.33-2.98-2.51.81-3.05.36.89-3.27.35-3.73-.44-1.64-.98-2.1-.95-1.04-1.48-1.5-3.6,1.93-4.12,1.46,1.15-3.39.63-3.86-2.96,1.13-3.47.65-.56-1.48-1.08-1.96-.15-1.89-.66-2.38-1.05-.94-1.55-1.44-2.75.76-3.25.26.25-2.25-.25-2.75-.8-1.19-1.29-1.7-2.67.58-3.16.07-.84-1.18-1.32-1.7-.95-1.08-1.42-1.6-.75-1.25-1.22-1.77.57-2.4.11-2.93-.71-1.25-1.17-1.78-.6-1.33-1.06-1.87-1.45-.62-1.9-1.16-1.16-.87-1.61-1.42-2.45.15-2.89-.41.56-2.26.12-2.81-.47-1.42-.9-1.98-.98-1.02-1.41-1.59-2.06-.23-2.48-.8-.23-1.6-.64-2.17-.33-1.5-.74-2.08.99-2.41.59-2.99-3.19.49-3.59-.09-1.53-.68-1.92-1.27-.79-1.19-1.18-1.78-.93-1.1-1.31-1.69,1.62-2.71,1.24-3.3-1.29-.85-1.66-1.45.62-2.02.25-2.62-4.38.97-4.73.36,1.82-2.71,1.46-3.32-.18-1.52-.52-2.13.11-1.66-.23-2.28-3.18.14-3.52-.48-1.8-.65-2.13-1.27.33-1.78,0-2.41,1.49-2.35,1.17-2.98-3.61.23-3.93-.41.8-1.97.49-2.61-1.94-.65-2.25-1.29.05-1.6-.24-2.24.1-1.6-.19-2.24,1-1.98.71-2.62-2.97-.25-3.25-.9,2.25-2.47,1.98-3.13-3.96.1-4.23-.56,1.84-2.26,1.59-2.92-2.77-.45-3.02-1.11-1.04-1.14-1.29-1.8,1.09-1.92.85-2.58,1.09-1.88.86-2.55-.07-1.46-.3-2.12-2.41-.68-2.63-1.35-1.94-.87-2.15-1.54c-.21-.67,1.8-2.05,1.59-2.73s.41-1.59.21-2.27-.51-1.31-.71-1.99-2.23-.84-2.42-1.52-.44-1.35-.62-2.04-1.48-1.09-1.66-1.77-.21-1.42-.38-2.11-.24-1.41-.4-2.1-.26-1.41-.42-2.1,2.12-1.92,1.97-2.61,1.04-1.65.89-2.34-.46-1.33-.6-2.02-1.22-1.19-1.35-1.88c-.13-.69-3.43-.81-3.55-1.51s4.01-2.13,3.89-2.83c-.12-.7-2.83-.96-2.94-1.66s1.58-1.67,1.47-2.37.6-1.5.5-2.2-.28-1.37-.38-2.07-1.15-1.27-1.23-1.97-1.23-1.27-1.31-1.98.66-1.49.59-2.19-2.91-1.14-2.97-1.85,2.19-1.62,2.13-2.32-.1-1.41-.16-2.11,0-1.41-.04-2.12-.07-1.41-.11-2.11-2.61-1.29-2.64-2,.23-1.44.2-2.15.28-1.44.26-2.15,2.27-1.47,2.26-2.18-1.01-1.4-1.02-2.1.38-1.42.38-2.12c0,0,1.05,0,1.05,0,0-.71-3.12-1.43-3.11-2.14s-.25-1.44-.24-2.14.9-1.41.92-2.12-.15-1.43-.12-2.14-.34-1.44-.31-2.15,1.34-1.36,1.37-2.06c.04-.71,1.51-1.32,1.55-2.03s-1.95-1.55-1.9-2.26,1.74-1.29,1.8-1.99-.13-1.43-.06-2.13-1.2-1.54-1.13-2.24-.74-1.52-.66-2.22,2.15-1.18,2.24-1.88-.27-1.46-.18-2.16-1.18-1.6-1.09-2.3,1.09-1.28,1.19-1.98,1.16-1.26,1.27-1.95,1.45-1.19,1.57-1.89-2.36-1.85-2.24-2.54,3.34-.82,3.47-1.52-1.9-1.8-1.76-2.49.93-1.26,1.07-1.95.43-1.35.58-2.04,1.57-1.09,1.72-1.78.75-1.26.92-1.95-.01-1.44.16-2.12-3.53-2.35-3.36-3.04,2.42-.84,2.6-1.52.18-1.42.37-2.1,2.07-.88,2.26-1.56-.11-1.49.09-2.17-.98-1.77-.77-2.45,2.66-.64,2.88-1.31-1.38-1.92-1.16-2.59-.62-1.7-.39-2.37-.05-1.53.18-2.19,1.86-.85,2.1-1.51-1.09-1.91-.84-2.58.57-1.31.82-1.97,2.23-.66,2.49-1.32-.33-1.66-.07-2.31,3.23-.2,3.5-.85-3.05-2.82-2.78-3.47,1.41-.95,1.69-1.6-.52-1.79-.23-2.44,3.85.19,4.14-.45-2.06-2.52-1.76-3.16,2.82-.23,3.13-.86,1.33-.91,1.64-1.55-.48-1.81-.16-2.44,1.32-.9,1.65-1.53-1.75-2.51-1.42-3.14,1.47-.83,1.81-1.45,2.45-.27,2.79-.89-1.58-2.5-1.23-3.12,3.03.11,3.38-.51-1.7-2.63-1.34-3.24,3.42.4,3.79-.2-1.17-2.36-.8-2.96-.18-1.79.2-2.39,2.44-.13,2.82-.72,1.18-.91,1.57-1.5-1.71-2.83-1.32-3.42,2.3-.16,2.69-.75-.22-1.88.18-2.46,1.39-.76,1.8-1.34.12-1.67.53-2.24.91-1.1,1.33-1.67,1.67-.53,2.09-1.09.85-1.13,1.28-1.69,1.61-.54,2.05-1.09-.81-2.45-.37-3,3.15.73,3.6.18-.9-2.56-.45-3.11,2.25.04,2.71-.5,1.01-.99,1.47-1.52,1.61-.46,2.07-.99-1.47-3.19-1-3.72,1.37-.68,1.84-1.21,1.41-.63,1.89-1.15.35-1.62.83-2.13,2.18.12,2.67-.39-.75-2.71-.25-3.21,3.82,1.8,4.32,1.3-1.51-3.53-1.01-4.03.69-1.34,1.2-1.83,2.89.97,3.4.49-.82-2.95-.3-3.43,3.21,1.4,3.73.92.3-1.77.83-2.24.59-1.47,1.12-1.93,2.66.92,3.2.46-1.48-3.91-.94-4.36,3.18,1.59,3.72,1.14-.3-2.59.25-3.04,2.19.47,2.75.03.22-2,.77-2.44,2.35.72,2.91.29,1.43-.43,1.99-.86,1.14-.81,1.71-1.23-1.01-3.77-.44-4.18,2.29.76,2.87.35.14-2.27.72-2.67,2.26.78,2.85.38.06-2.45.64-2.84,1.31-.61,1.9-1,2.09.62,2.69.24,1.06-.96,1.66-1.34.78-1.42,1.38-1.8.58-1.79,1.18-2.15,2.1.74,2.71.38,1.31-.56,1.92-.91.53-1.93,1.15-2.28,2.42,1.42,3.03,1.08-.1-3.13.52-3.47,3,2.61,3.63,2.28,1.12-.86,1.75-1.19,1.46-.21,2.09-.53.37-2.4,1-2.71,1.87.63,2.51.32.37-2.49,1.01-2.79,1.73.36,2.37.07,1.94.88,2.58.59.44-2.47,1.09-2.75,1.01-1.23,1.66-1.5,1.49-.12,2.14-.39,1.47-.13,2.13-.39.9-1.57,1.56-1.82.96-1.46,1.62-1.71,1.9,1.01,2.56.76,1.43-.2,2.1-.44.75-2.15,1.41-2.38,2.01,1.47,2.68,1.24,1.48,0,2.15-.23.73-2.35,1.4-2.56,2.37,2.86,3.05,2.65,1.12-1.12,1.8-1.32,1.35-.36,2.03-.56.89-2.03,1.57-2.22,1.07-1.48,1.75-1.66,1.63.61,2.31.43,1.99,2.14,2.67,1.97.42-4.25,1.11-4.41,1.83,1.59,2.52,1.43,1.38-.31,2.07-.46,1.1-1.62,1.8-1.77,1.94,2.49,2.64,2.35,1.41-.04,2.11-.18.91-2.82,1.61-2.94,1.26-1.09,1.95-1.21,1.4-.31,2.1-.42,1.42-.16,2.12-.27,1.4-.28,2.1-.37,1.64,1.51,2.34,1.42,1.34-.64,2.05-.73,1.22-1.88,1.92-1.96,1.42-.21,2.12-.28,1.54,1.14,2.25,1.07,1.56,1.65,2.27,1.59,1.32-1.25,2.02-1.3,1.42-.06,2.12-.1,1.39-.42,2.1-.46,1.35-1.54,2.06-1.57,1.55,3.12,2.26,3.1,1.38-.88,2.09-.9,1.44,1.37,2.14,1.36,1.4.07,2.11.06,1.4-3.18,2.11-3.18c0,0,0,1.72,0,1.72.71,0,1.4.83,2.11.83s1.46-3.06,2.17-3.05,1.39,1.59,2.09,1.61,1.48-1.63,2.18-1.6,1.35,1.75,2.06,1.78,1.43-.16,2.13-.12,1.24,2.9,1.94,2.94,1.54-1.89,2.24-1.84,1.61-2.33,2.31-2.27,1.22,2.43,1.92,2.49,1.63-2.07,2.33-2,1.28,1.47,1.98,1.55,1.48-.41,2.18-.32,1.34.78,2.04.87,1.18,1.81,1.88,1.91,1.55-.87,2.25-.76,1.71-1.72,2.4-1.61.7,4.48,1.39,4.6,1.58-.9,2.27-.77,1.7-1.42,2.39-1.29,1.05,2.03,1.74,2.17,1.99-2.67,2.68-2.53.69,3.57,1.38,3.72,1.36.35,2.05.5,2.09-2.74,2.78-2.58.76,2.88,1.45,3.05,2.15-2.73,2.84-2.55.51,3.66,1.19,3.84,1.99-1.93,2.67-1.74.64,2.94,1.32,3.13,1.41.16,2.09.36,1.7-.77,2.38-.57,2.02-1.7,2.7-1.49,1,1.55,1.67,1.77,1.67-.5,2.34-.28-.02,4.39.65,4.62,1.53-.14,2.19.1,1.1,1.07,1.76,1.31,2.86-3.59,3.52-3.34-.01,3.95.64,4.21,2.09-1.44,2.74-1.17,1.33.51,1.98.78.82,1.7,1.47,1.98,1.62-.2,2.27.09.78,1.72,1.42,2.01,1.43.25,2.07.54.67,1.87,1.31,2.17,2.79-2.58,3.43-2.27.68,1.84,1.31,2.16,2.03-.89,2.66-.57,1.22.76,1.84,1.09.35,2.39.97,2.72,1.87-.49,2.49-.15.18,2.61.8,2.95.74,1.53,1.36,1.88,3.4-3.1,4.01-2.75-.57,3.78.04,4.14,1.12.85,1.73,1.22,2.3-1.07,2.91-.7.38,2.06.98,2.44.83,1.31,1.42,1.69,2.48-1.24,3.08-.85,1.88-.26,2.47.13,1.08.96,1.66,1.36,1.04,1.01,1.62,1.41,1.56.27,2.13.68.6,1.62,1.17,2.04-.39,2.92.18,3.34,1.53.3,2.09.72,2.37-.77,2.93-.34.48,1.7,1.03,2.14,1.6.27,2.15.71,1.78.07,2.32.52-.77,3.17-.22,3.62,2.42-.68,2.96-.22,1.38.58,1.92,1.04.67,1.4,1.21,1.86,1.46.5,1.99.97,1.21.8,1.73,1.27.01,2.09.53,2.57.4,1.63.92,2.12,2.12-.17,2.63.32-1.17,3.22-.67,3.72,1.93.05,2.42.55,2.22-.21,2.72.29.9,1.11,1.39,1.62,1.64.4,2.13.92,1.11.92,1.59,1.44-1.59,3.38-1.11,3.91,1.15.85,1.62,1.37,2.08.04,2.55.57-.08,1.94.38,2.47.92,1.06,1.38,1.6,2.57-.31,3.02.23,1.68.47,2.12,1.02.51,1.43.95,1.98.88,1.12,1.32,1.68.35,1.53.78,2.09,1.07.97,1.5,1.54-1.71,3.03-1.29,3.6,3.38-.73,3.79-.15-1.67,2.93-1.26,3.51,1.21.85,1.62,1.43,3.43-.65,3.83-.07.32,1.5.72,2.09-1.77,2.86-1.38,3.45,2.17.26,2.55.86.54,1.33.92,1.92,1.98.43,2.35,1.03.23,1.52.59,2.13-1.21,2.36-.85,2.97,1.85.54,2.2,1.16c.35.61.6,1.28.95,1.89s3.14-.13,3.48.49.34,1.44.68,2.07-.86,2.07-.52,2.69,2.12.5,2.44,1.12-2.48,2.86-2.16,3.49,3.74-.29,4.06.34-.59,1.87-.28,2.5,1.52.85,1.82,1.49,1.45.9,1.74,1.55.3,1.43.59,2.08.82,1.2,1.11,1.85-2.88,2.78-2.6,3.43,3.91-.11,4.18.55-1.11,1.99-.84,2.65-.91,1.88-.65,2.54,1.91.77,2.16,1.43,1.3,1.03,1.55,1.69-1.12,1.92-.88,2.58.24,1.41.47,2.07-.82,1.76-.59,2.43,1.96.82,2.18,1.49,1.23,1.08,1.45,1.76-1.88,2.06-1.67,2.74,1.67.96,1.87,1.63.84,1.22,1.03,1.9.45,1.34.64,2.02,2.85.7,3.04,1.38-.83,1.69-.66,2.38-1.82,1.91-1.65,2.6,3.52.6,3.68,1.29-2.14,1.95-1.99,2.64,1.87,1.03,2.02,1.72,1.17,1.21,1.32,1.9-2.81,2.01-2.67,2.71.25,1.38.38,2.07,2.9.91,3.03,1.6-.46,1.52-.34,2.22-1.48,1.67-1.37,2.37-.55,1.5-.45,2.2,2.52,1.06,2.62,1.76,1.33,1.26,1.42,1.96-1.02,1.56-.93,2.26-.92,1.53-.84,2.23,2.16,1.19,2.24,1.9-2.52,1.67-2.46,2.37.31,1.38.37,2.09,1.15,1.32,1.2,2.03-2.13,1.55-2.09,2.26,3.98,1.17,4.02,1.88-.19,1.44-.16,2.14.1,1.42.13,2.13-.11,1.43-.09,2.14-.9,1.44-.89,2.15.3,1.41.3,2.12-2.18,1.42-2.18,2.13c0,0,1.2,0,1.2,0,0,.71,1.04,1.42,1.03,2.13s-.84,1.41-.85,2.11.87,1.44.85,2.14-1.85,1.35-1.87,2.06,2.89,1.54,2.86,2.24-3.51,1.24-3.54,1.94,1.12,1.48,1.07,2.18-.39,1.39-.44,2.09,2.06,1.58,2.01,2.29-.65,1.37-.72,2.08.98,1.53.91,2.23-3.28,1.08-3.35,1.78-1.22,1.27-1.3,1.97,3.23,1.83,3.13,2.53-1.7,1.2-1.8,1.9,1.31,1.62,1.2,2.32-2.71,1.01-2.82,1.71.3,1.47.18,2.17.75,1.56.63,2.26-1.28,1.2-1.41,1.9,2.33,1.9,2.19,2.59-.3,1.4-.44,2.09-.56,1.34-.71,2.03-.48,1.36-.63,2.05-.55,1.34-.71,2.02-3.21.67-3.38,1.36,1.85,1.92,1.68,2.6.32,1.56.14,2.24-3.54.5-3.73,1.18,2.6,2.2,2.4,2.88-3.49.45-3.69,1.12,1.56,1.94,1.36,2.61-2,.85-2.21,1.52-.04,1.46-.26,2.13,1.46,1.97,1.23,2.64.96,1.84.73,2.51-3.6.23-3.84.89,1.52,2.06,1.28,2.72-3.51.18-3.76.84,2,2.28,1.74,2.94.48,1.72.21,2.38-.88,1.18-1.15,1.83-2.33.56-2.61,1.21,1.98,2.4,1.7,3.05-3.45.02-3.74.67-.31,1.4-.6,2.04-1.32.93-1.62,1.57,2.56,2.79,2.26,3.42-3.11.06-3.42.69.67,1.91.35,2.54.33,1.77,0,2.4c-.32.63-.77,1.21-1.1,1.83s-.75,1.22-1.08,1.84-1.38.87-1.72,1.48c-.34.62-2.65.13-3,.74s-.66,1.23-1.01,1.84-1.05,1-1.41,1.61-.52,1.32-.88,1.92,2.37,3.1,2,3.71-1.45.78-1.83,1.37-1.53.71-1.91,1.3-1.26.86-1.65,1.45,1.44,2.66,1.05,3.25-3.1-.38-3.5.2,1.5,2.76,1.1,3.34-.81,1.18-1.22,1.76-3.48-.75-3.89-.18-.16,1.63-.58,2.2-1.9.33-2.33.9,1.68,3.06,1.25,3.62-2.97-.51-3.4.05-.61,1.31-1.05,1.86,1.27,2.85.83,3.4-2.44-.16-2.89.38-2.48-.25-2.94.29.77,2.5.31,3.04-.4,1.54-.86,2.07-3.29-1.04-3.76-.51.09,1.97-.38,2.49-1.61.42-2.09.94-.7,1.26-1.19,1.77.53,2.45.04,2.96-1.03.97-1.53,1.48-1.77.23-2.27.73-2.14-.17-2.65.32,1.36,3.42.85,3.91-1.01,1.01-1.52,1.49-1.56.42-2.07.9-2.33-.46-2.86.02-.62,1.4-1.15,1.87-2.01-.16-2.54.31.06,2.2-.47,2.66-1.82.02-2.36.48-.15,2.01-.7,2.46-2.24-.52-2.79-.07.23,2.52-.32,2.96-1.52.35-2.07.79.59,3.07.02,3.5-3.69-2.52-4.26-2.09-.32,1.92-.88,2.34-1.97-.32-2.54.1-.87,1.17-1.45,1.58-1.36.49-1.94.89-1.13.81-1.72,1.21-.85,1.24-1.43,1.63.9,3.93.31,4.31-3.38-2.61-3.97-2.23.75,3.81.15,4.18-2.68-1.63-3.28-1.26-.96,1.13-1.56,1.49-.1,2.6-.7,2.96-2.92-2.2-3.54-1.85.73,4.13.12,4.48-2.3-1.19-2.92-.85-1.25.66-1.87.99-1.88-.53-2.5-.19-1.31.52-1.94.84-1.5.13-2.13.45.6,4.36-.03,4.67-2.28-1.43-2.92-1.12-.98,1.24-1.62,1.54-2.11-1.19-2.75-.89-.78,1.68-1.43,1.97-1.07,1.08-1.72,1.36-1.55-.02-2.2.25-2-1.15-2.66-.88.2,4.21-.46,4.47-1.37.42-2.03.68-2.32-2.07-2.98-1.82-1.55-.14-2.21.1-.5,2.72-1.17,2.96-1.81-.88-2.48-.64-.88,1.77-1.55,2-1.78-.87-2.45-.64-.72,2.36-1.4,2.57-1.51-.07-2.19.14-1.8-1.06-2.47-.86-.56,3.13-1.24,3.33-1.87-1.38-2.55-1.19-1.04,1.57-1.73,1.75-2.03-2.17-2.71-1.99-1.39.2-2.08.37-1.26.75-1.95.91-1.51-.32-2.2-.16-.88,2.55-1.57,2.7-1.96-2.45-2.65-2.31-1.2,1.1-1.9,1.24-1.16,1.41-1.85,1.54-1.59-.88-2.29-.75-1.25,1.01-1.95,1.12-1.34.56-2.03.67-1.44-.08-2.14.03-1.25,1.2-1.95,1.29-1.3.97-2,1.06-1.37.5-2.07.59-1.8-3.31-2.51-3.23-1.26,1.41-1.96,1.48-1.34.78-2.04.85-1.27,1.72-1.98,1.78-1.4.41-2.11.47-1.53-1.47-2.23-1.43-1.53-2.11-2.24-2.07-1.23,3.55-1.94,3.58-1.55-3.4-2.26-3.37-1.39.21-2.1.23-1.36,1.87-2.07,1.89-1.41.16-2.12.17-1.42.55-2.12.55Z"/>
</svg>